<svg width="1e3mm" height="1500mm" version="1.1" viewBox="0 0 1e3 1500" xmlns="http://www.w3.org/2000/svg">
    <g transform="translate(-9.0714 1220.8)">
        <path d="m397.56-638.7s-50.672-101.34-133.01-40.115c-82.342 61.229-255.47 126.68-255.47 126.68s79.154-68.233 135.13-97.122l130.9-67.563s-27.447-27.447-95.01-48.561c-67.563-21.113-141.46 6.334-141.46 6.334s40.289-49.529 137.24-31.67c80.231 14.779 103.46 31.67 103.46 31.67l126.68 59.117-16.891-124.57s-2.1113 2.1113-78.12-21.113c-76.008-23.225-221.69 12.668-221.69 12.668s23.876-31.396 84.454-38.004l116.12-12.668s-99.233-99.233-128.79-145.68c-29.559-46.45-25.336-99.233-25.336-99.233s68.744 97.224 84.454 126.68c33.781 63.34 152.02 120.35 152.02 120.35s-48.561-122.46-65.451-177.35c-17.791-57.821-76.008-97.122-76.008-97.122s80.231 10.557 90.788 50.672c10.557 40.115 95.01 200.58 95.01 200.58s26.006-161.66 92.899-206.91l71.785-48.561s-61.229 67.563-82.342 101.34c-21.113 33.781-35.893 101.34-25.336 107.68 10.557 6.334 82.342-69.674 82.342-69.674s47.526-37.411 88.676-57.006c44.338-21.113 63.34-19.002 63.34-19.002s-44.882 42.441-103.46 80.231c-65.452 42.227-130.9 116.12-130.9 116.12l16.891 59.117s66.599-9.1759 135.13-52.783c69.674-44.338 194.24-152.02 194.24-152.02s-90.788 105.57-156.24 160.46c-45.064 37.795-162.57 90.788-162.57 90.788s-6.7675 47.28 21.001 49.803c63.068 5.7293 198.93-35.043 247.14-73.027 69.674-54.895 166.4-144.38 166.4-144.38s4.5621 63.104-120.43 157.85c-65.537 49.675-142.94 103.36-284.55 125.88 0 0 327.13-9.1352 377.93-14.779 57.006-6.334 97.122-65.451 97.122-65.451s50.672 109.79-236.47 101.34c0 0 204.8 27.447 206.91 71.786 0 0-285.03-59.118-339.93-46.449-54.895 12.668-90.788 31.67-90.788 31.67l45.637 876.83-277.22 2.9859c71.786-329.37 83.791-917.82 83.791-917.82z"
              fill="#803300"/>
        <path d="m590.99 276.14-201.36-2.9859s52.271-375.57 64.939-574.04c12.668-198.47 10.557-200.58 10.557-200.58h84.981z"
              fill="#a40"/>
        <path d="m334.82-680.98c-9.1506-131.4-130.4-50.17-130.4-50.17s-70.917-62.116-109.81 7.1672c-39.572 70.498 18.301 109.9 18.301 109.9s-59.619 25.84-29.739 119.45c16.013 50.17 123.53 21.502 123.53 21.502 80.04 64.586 202.29 4.7863 153.27-83.617 0 0 144.12-81.228-25.164-124.23z"
              fill="#677821"/>
        <path d="m449.26-1203.9c-36.04 0.5943-74.099 31.103-74.099 31.103s-75.959-55.84-108.8 16.508c-7.6923 16.948-10.371 31.81-9.9501 44.653-33.167 4.6496-65.286 30.393-65.286 30.393s-75.959-55.837-108.8 16.511c-33.413 73.618 27.61 107.93 27.61 107.93s-57.196 30.832-19.438 121.55c20.236 48.621 124.92 10.885 124.92 10.885 80.645 54.409 189.39-5.292 153.21-82.915 17.761-3.9456 30.82-8.6396 30.82-8.6396 85.258 57.522 201.96-12.493 145.58-96.392 0 0 136.67-93.227-35.67-121.63-8.576-54.902-33.802-70.399-60.102-69.965zm255.45 187.56c-13.774-0.047-29.991 2.3545-48.997 8.4519-50.147 16.088-21.317 123.56-21.318 123.56-45.389 56.42-29.088 133.67 15.362 157.3 2.1653 27.731 19.02 45.535 28.52 53.5-6.6397 0.10818-13.714 1.0258-21.216 2.875 0 0-40.707-160.35-126.49-8.2037-129.22-25.534-82.528 112.74-82.528 112.74s-78.5 52.201-21.8 107.86c57.695 56.633 110.86 11.079 110.86 11.079s9.3501 64.302 107.52 59.946c52.612-2.3347 53.061-113.61 53.061-113.61 8.4051-6.0927 15.679-12.942 21.901-20.29 32.496-0.68623 65.748-11.313 65.748-11.313 83.103 60.595 202.29-5.1111 149-91.011 0 0 139.98-88.181-31.21-122.85-1.2297-10.333-3.0951-19.298-5.4845-27.062 47.159-35.648-5.2276-113.62-5.2276-113.62s62.011-71.01-7.3291-109.8c-70.557-39.468-109.87 18.463-109.87 18.463s-16.465-37.833-70.502-38.014z"
              fill="#677821"/>
        <path d="m348.34-712.06c-8.8694-131.42-130.29-50.449-130.29-50.449s-70.784-62.267-109.82 6.9322c-39.723 70.414 18.066 109.94 18.066 109.94s-59.674 25.712-29.995 119.39c15.906 50.204 123.49 21.766 123.49 21.766 79.901 64.758 202.28 5.2193 153.45-83.289 0 0 144.29-80.92-24.898-124.28z"
              fill="#97bd00"/>
        <path d="m781.82-1044.2c-1.6648-131.71-127.33-57.503-127.33-57.503s-67.27-66.047-110.04 0.9123c-43.516 68.134 12.023 110.76 12.023 110.76s-60.992 22.408-36.483 117.57c13.135 51 122.11 28.491 122.11 28.491 76.238 69.033 201.69 16.28 157.78-74.767 0 0 148.51-72.902-18.06-125.46z"
              fill="#677821"/>
        <g>
            <path d="m348.8-1053.2c-9.1505-131.4-130.4-50.17-130.4-50.17s-70.917-62.116-109.81 7.1673c-39.572 70.498 18.301 109.9 18.301 109.9s-59.619 25.84-29.739 119.45c16.013 50.17 123.53 21.502 123.53 21.502 80.04 64.586 202.29 4.7864 153.27-83.617 0 0 144.12-81.228-25.164-124.23z"
                  fill="#9fc700"/>
            <path d="m521.85-718.55c-129.47-24.207-81.366 113.58-81.366 113.58s-77.961 53.005-20.693 108.08c58.273 56.038 110.97 9.9403 110.97 9.9403s10.007 64.203 108.13 58.84c52.585-2.8743 51.893-114.15 51.893-114.15 82.648-61.213 55.534-194.58-42.36-169.38 0 0-42.351-159.92-126.57-6.9051z"
                  fill="#80a000"/>
            <path d="m910.15-769.59c-9.1506-131.4-130.4-50.17-130.4-50.17s-70.917-62.116-109.81 7.1672c-39.572 70.498 18.301 109.9 18.301 109.9s-59.619 25.84-29.739 119.45c16.014 50.17 123.53 21.501 123.53 21.501 80.04 64.586 202.29 4.7864 153.27-83.617 0 0 144.12-81.228-25.164-124.23z"
                  fill="#a1c900"/>
            <path d="m784.24-1069.1c-9.1505-131.4-130.4-50.17-130.4-50.17s-70.917-62.116-109.81 7.1672c-39.572 70.498 18.301 109.9 18.301 109.9s-59.619 25.84-29.739 119.45c16.014 50.17 123.53 21.502 123.53 21.502 80.04 64.586 202.29 4.7864 153.27-83.617 0 0 144.12-81.228-25.164-124.23z"
                  fill="#b8e600"/>
        </g>
        <g fill="#aad400">
            <path d="m530.74-1145.1c-9.1506-131.4-130.4-50.17-130.4-50.17s-70.917-62.116-109.81 7.1671c-39.572 70.498 18.301 109.9 18.301 109.9s-59.619 25.84-29.739 119.45c16.014 50.17 123.53 21.502 123.53 21.502 80.04 64.586 202.29 4.7864 153.27-83.617 0 0 144.12-81.228-25.164-124.23z"/>
            <path d="m824.95-931.87c-46.306-126.93-168.12-20.111-168.12-20.111s-100.83-45.125-128.24 31.569c-27.888 78.039 51.351 103.78 51.351 103.78s-63.704 38.683-3.021 123.89c32.522 45.667 152.25-6.4957 152.25-6.4957 112.31 45.511 241.11-40.499 159.14-116.32 0 0 148.93-111.93-63.355-116.32z"/>
            <path d="m483.94-682.89c162.69-23.879 36.221-108.27 36.221-108.27s63.32-63.316-31.385-84.88c-96.367-21.942-133.9 28.29-133.9 28.29s-44.528-43.291-155.67-8.027c-59.564 18.899-1.7175 99.254-1.7175 99.254-64.552 70.759 35.289 158.66 136 109.11 0 0 131.14 102.26 150.45-35.478z"/>
        </g>
    </g>
</svg>
