<svg width="1e3mm" height="1105.3mm" version="1.1" viewBox="0 0 1e3 1105.3" xmlns="http://www.w3.org/2000/svg">
    <g transform="translate(-137.96 876)">
        <path d="m524.1-277.86s54.451-101.76 110.31-143.67c0 0-5.0703-26.441 67.055-47.048 61.821-24.729 136.01-18.546 201.95-53.579 26.789-43.275 39.154-111.28 39.154-111.28l92.732 10.304-82.429-32.971 32.971-94.793-55.639 80.368-20.607-107.16-6.1821 109.22c-81.979-49.643-105.1-49.457-105.1-49.457s96.354 47.021 102.33 75.518c0 0 20.284 53.277-37.416 103.76-11.469 3.6136-147.47-66.38-157.85-63.603-8.9578 2.3982 127.05 71.483 120.05 73.349-91.152 24.324-80.436 7.2068-163.13 43.832-80.596 35.696-40.551 15.567-85.887 40.295-63.882 76.246-438.46 674.12-438.46 674.12l63.882-4.1214z"
              fill="#520"/>
        <path d="m815.52-710.4c-10.182-13.44-33.821-0.61039-37.181-16.656 0.62676-18.784 13.247-11.398 16.788-28.811 0.20937-14.873-27.107-23.038-16.585-40.581 13.446-16.408 34.378 9.2735 46.62 0.37254 11.556-1.4539 3.9098-29.81 23.53-32.653 18.616-0.34605 23.696 24.341 35.042 37.76 13.434 9.6628 20.943-0.38928 41.835 16.569 12.827 18.348-15.545 30.027-18.081 44.942-8.5927 11.311 21.557 45.445 2.4134 55.713-19.592 21.428-39.032-9.187-49.742-12.705-17.453 0.32438-23.599 16.525-50.638 9.6147-11.505-15.894 13.933-18.845 5.9984-33.566z"
              fill="#b3df00"/>
        <path d="m738.91-708.29c-11.699-5.3096-24.883 11.471-32.429 2.0444-5.5038-12.637 6.0528-12.185 3.1116-24.939-4.5671-9.905-27.1-5.7117-24.986-21.002 4.6086-15.567 28.039-5.94 34.151-16.122 7.9742-5.0183-6.6068-21.078 6.8142-29.847 13.48-6.7649 25.024 7.7703 37.565 12.657 12.874 1.6706 15.165-7.6105 35.799-3.7356 15.187 7.6247-1.8183 25.306 1.0638 36.057-2.6828 10.494 30.16 22.472 19.444 35.981-7.5014 21.044-31.409 7.6312-40.344 9.0659-12.638 6.3421-11.983 19.209-33.914 24.135-13.443-6.4671 4.1905-17.349-6.2741-24.295z"
              fill="#b6e300"/>
        <path d="m746.61-721.56c-7.8578-3.4554-16.888 7.8024-21.91 1.5788-3.6189-8.3741 4.1798-8.1512 2.2915-16.62-3.008-6.5619-18.253-3.6194-16.709-13.811 3.2304-10.392 18.976-4.1421 23.18-10.96 5.4221-3.3937-4.2995-13.985 4.8287-19.911 9.1528-4.5933 16.835 5.0036 25.265 8.172 8.6792 1.0254 10.297-5.1675 24.198-2.7271 10.195 4.9728 10.38 15.521 12.243 22.657-1.8915 7.0029 24.264 32.517 16.926 41.581-5.2254 14.057-35.609-2.7571-41.652-1.7421-8.5807 4.3062-9.7671 4.4861-24.612 7.9118-9.0265-4.2141 2.9617-11.576-4.0503-16.128z"
              fill="#668000"/>
        <g fill="#bfef00">
            <path d="m973.47-755.92c15.798-5.9181 13.556-33.904 29.031-32.101 16.36 6.7096 4.9754 17.045 19.002 26.249 13.064 5.0236 30.794-19.878 42.249-3.5924 9.3266 18.867-21.427 31.663-18.272 46.886-3.1624 12.122 24.842 13.588 19.803 34.291-6.8589 18.883-30.633 16.017-46.859 23.116-13.711 10.42-7.7163 21.243-30.745 36.822-21.153 6.9973-20.555-25.389-32.762-32.773-6.6901-12.324-48.462 7.0318-50.169-15.593-11.398-26.688 23.142-36.383 30.373-46.044 6.4302-17.702-5.5222-29.142 10.991-54.169 18.475-6.4577 11.293 20.147 27.358 16.909z"/>
            <path d="m1045.7-777.48c6.7471-10.982 27.832-4.4892 28.629-16.548-2.8297-13.571-12.334-6.6956-17.4-18.922-2.0041-10.78 19.531-19.979 8.6889-31.465-13.115-10.311-27.225 10.849-38.422 5.8474-9.714 0.32613-6.8963-21.189-23.436-20.907-15.404 1.9755-16.556 20.518-24.266 31.623-9.8957 8.6268-17.329 2.2225-32.48 17.042-8.3256 14.863 16.524 19.954 20.453 30.487 8.4828 7.1895-12.193 35.593 4.8678 40.763 18.804 13.223 31.076-11.343 39.48-15.18 14.441-1.8521 21.507 9.1818 42.967 0.92739 7.5363-12.923-13.817-12.024-9.0821-23.667z"/>
            <path d="m844.17-791.68c-8.4521-9.5773-28.074-0.43496-30.864-11.868 0.52011-13.385 10.996-8.1218 13.935-20.53 0.17392-10.598-22.501-16.417-13.767-28.917 11.162-11.692 28.536 6.6081 38.698 0.26546 9.5921-1.036 3.2454-21.242 19.532-23.268 15.453-0.24658 19.67 17.345 29.088 26.907 11.152 6.8855 17.384-0.27739 34.727 11.807 10.648 13.074-12.904 21.396-15.009 32.025-7.1326 8.0602 17.894 32.383 2.0033 39.7-16.263 15.269-32.399-6.5464-41.29-9.0533-14.487 0.23116-19.589 11.775-42.034 6.8512-9.55-11.326 11.566-13.428 4.9791-23.918z"/>
            <path d="m1065.3-673.99c12.088-3.7173 9.8341-21.951 21.816-20.645 12.758 4.5059 4.1601 11.135 15.163 17.245 10.181 3.3806 23.407-12.675 32.556-1.9788 7.5539 12.358-15.953 20.425-13.233 30.359-2.2155 7.8624 19.436 9.0545 15.932 22.486-4.9435 12.231-23.354 10.164-35.751 14.646-10.392 6.6646-5.5612 13.76-23.052 23.703-16.202 4.3742-16.346-16.699-25.909-21.608-5.396-8.0776-37.288 4.1644-39.029-10.575-9.2997-17.466 17.189-23.482 22.592-29.708 4.6344-11.467-4.8083-19.013 7.4751-35.161 14.145-4.0457 9.0962 13.208 21.44 11.237z"/>
        </g>
        <path d="m1069.1-661.2c8.0416-2.5653 6.6622-14.908 14.602-14.07 8.434 3.0029 2.689 7.527 9.9488 11.623 6.7323 2.2501 15.607-8.6778 21.608-1.4676 4.9326 8.3422-10.712 13.898-8.9697 20.617-1.5194 5.3347 12.835 6.0577 10.426 15.17-3.3565 8.3047-15.556 6.9764-23.807 10.061-6.9355 4.5553-3.776 9.3428-15.441 16.147-10.775 3.0263-18.264-3.3707-24.576-6.6593-3.5282-5.4508-40.068-5.5566-41.13-15.535-6.0584-11.795 27.444-19.584 31.068-23.822 3.1468-7.7856 3.8716-8.6058 12.122-19.592 9.4085-2.7958 5.9503 8.9115 14.151 7.5286z"
              fill="#668000"/>
        <path d="m831.18-722.15c-6.8985-8.8914-22.963-0.3932-25.226-11.011 0.44706-12.431 9.0068-7.547 11.43-19.072 0.15866-9.8425-18.38-15.238-11.216-26.85 9.1478-10.863 23.331 6.126 31.653 0.23165 7.8475-0.96589 2.6876-19.729 16.012-21.617 12.64-0.23499 16.062 16.101 23.751 24.977 9.1109 6.3903 14.22-0.26431 28.387 10.952 8.6891 12.138 3.2584 25.21 1.5193 35.082-5.8467 7.4883 9.629 54.306-3.3807 61.107-13.326 14.187-38.155-24.436-45.423-26.761-11.85 0.22027-13.267-0.25994-31.617-4.8242-7.7938-10.515 9.4809-12.476 4.1097-22.215z"
              fill="#668000"/>
        <path d="m857.16-800.05c-5.7264-6.3358-19.061-0.28019-20.94-7.8458 0.37073-8.8578 7.4763-5.3778 9.4882-13.59 0.1314-7.0135-15.257-10.858-9.3102-19.133 7.5934-7.7405 19.367 4.3652 26.274 0.16508 6.514-0.68826 2.2309-14.058 13.292-15.403 10.492-0.16743 13.333 11.473 19.715 17.798 7.5628 4.5536 11.804-0.18837 23.563 7.804 7.2126 8.6492 2.7047 17.964 1.2611 24.998-4.8532 5.336 7.9929 38.697-2.8062 43.543-11.062 10.109-31.672-17.413-37.705-19.069-9.8365 0.15698-11.012-0.1852-26.245-3.4376-6.4695-7.4924 7.87-8.8898 3.4115-15.83z"
              fill="#8a0"/>
        <path d="m987.39-743.17c11.828-4.527 10.334-25.555 21.871-24.276 12.167 4.964 3.6044 12.789 14.014 19.64 9.7182 3.7118 23.11-15.096 31.555-2.9094 6.8402 14.138-16.194 23.909-13.936 35.338-2.4375 9.1285 18.454 10.092 14.561 25.681-5.2395 14.229-22.964 12.193-35.12 17.609-10.299 7.9009-5.8945 16.008-23.181 27.833-15.831 5.3648-26.478-5.4068-35.541-10.898-4.9144-9.2319-58.168-8.7258-59.297-25.727-8.3367-20.007 40.819-33.922 46.278-41.22 4.912-13.34 6.0028-14.753 18.487-33.649 13.83-4.9459 8.2997 15.09 20.31 12.577z"
              fill="#668000"/>
        <path d="m1031.4-784.14c4.5977-7.2845 18.899-3.0325 19.46-11.017-1.8992-8.9771-8.3611-4.4053-11.78-12.488-1.3425-7.1314 13.29-13.268 5.9491-20.848-8.8856-6.7972-18.497 7.2413-26.09 3.9547-6.5941 0.23706-4.6466-14.011-15.874-13.788-10.459 1.3414-11.271 13.618-16.523 20.986-6.7311 5.7323-11.766 1.509-22.075 11.352-5.6753 9.8573 0.41489 18.704 3.0656 25.668 5.7463 4.7407-1.2595 40.603 10.313 43.988 12.742 8.7124 28.475-22.317 34.185-24.875 9.805-1.2575 10.915-1.7758 25.494-7.2867 5.1365-8.5709-9.3591-7.9291-6.1262-15.647z"
              fill="#8a0"/>
        <path d="m716.73-633.16c-11.405-6.3898-6.1891-23.357-18.31-24.903-13.414 1.3432-5.952 9.7118-17.883 13.004-10.669 0.86532-21.191-17.628-32.029-9.5027-9.5242 10.093 12.519 23.322 8.1938 32.218 0.91804 8.0608-20.792 4.1474-19.503 17.852 2.9158 12.889 21.549 15.207 33.136 22.402 9.2391 8.8216 3.2802 14.5 19.039 28.126 15.387 7.9812 18.97-12.203 29.275-14.68 6.6809-6.4895 36.375 12.705 40.512-1.0296 12.093-14.585-13.248-26.544-17.601-33.78-2.7335-12.084 7.8822-17.119-1.6882-35.48-13.396-7.1855-11.196 10.547-23.141 5.7735z"
              fill="#bae800"/>
        <path d="m710.94-621.77c-7.5726-4.3395-4.1868-15.859-12.214-16.91-8.8714 0.91112-3.901 6.5935-11.784 8.8276-7.0575 0.5863-14.092-11.971-21.233-6.4551-6.2636 6.8516 8.3758 15.836 5.5479 21.876 0.63887 5.4731-13.744 2.814-12.837 12.119 1.9798 8.7517 14.32 10.327 22.016 15.213 6.1486 5.9905 2.2272 9.8457 12.709 19.098 10.214 5.4204 18.7 1.032 25.51-0.64864 4.396-4.4056 40.725 4.028 43.409-5.2974 7.9461-9.9016-24.075-25.2-26.984-30.112-1.856-8.2047-2.4425-9.1609-8.8474-21.629-8.8932-4.8799-7.368 7.1601-15.292 3.9178z"
              fill="#668000"/>
    </g>
</svg>
