<svg width="1e3mm" height="604.03mm" version="1.1" viewBox="0 0 1e3 604.03" xmlns="http://www.w3.org/2000/svg">
    <g transform="translate(-413.42 909.29)">
        <g stroke-width="1.0659">
            <path d="m936.93-529.26c5.5461-24.928 29.292-57.948 25.73-81.517-4.0046-26.5-17.737-40.071-17.737-40.071l107.35-24.241-94.536-4.268c-45.813-35.66-0.0465-71.321-0.0697-106.98l-27.808 100.41-58.338-100.63 32.096 112.1c-99.933-21.207-123.14-12.908-123.14-12.908s117.64 12.832 133.65 39.419c-5.1029 10.539 18.525 23.263 20.553 48.22 1.6594 20.422-28.175 48.541-29.015 63.851 2.5565 4.4576-2.0023 230.08 1.4958 230.26 11.195 0.57889 8.2901 0.26483 22.5 0.26483 5.638 0 3.3343-219.98 7.2655-223.91z"
                  fill="#520"/>
            <path d="m800.44-685.82c-14.964-9.9558-34.257 11.251-43.268-3.7207-5.9592-19.127 9.335-16.12 6.7901-34.89-5.0072-15.044-35.367-13.679-30.931-35.028 7.7776-21.233 37.857-2.7268 47.056-15.981 11.122-5.5176-6.523-31.377 12.228-41.122 18.617-6.8794 32.391 16.187 48.519 25.713 16.912 5.013 20.944-7.7394 47.922 2.0004 19.348 13.968-5.1123 35.677-2.4322 51.58-4.6807 14.4 37.642 38.18 21.975 55.231-12.203 28.442-42.511 4.4466-54.525 4.663-17.454 6.4496-17.956 24.913-47.597 27.443-17.157-11.962 7.4128-23.857-5.7384-35.89z"
                  fill="#abd500"/>
            <path d="m724.07-656.82c-13.638-1.24-21.022 20.276-31.924 13.435-9.9734-10.789 1.8175-14.388-5.6175-26.194-8.072-8.3676-29.281 3.7586-32.518-12.374-0.82268-17.286 26.139-15.816 28.719-28.209 6.2658-7.8488-14.045-18.898-3.6126-32.433 11.195-11.538 27.914-0.9581 42.252-0.43925 13.544-2.835 12.594-12.981 34.723-16.32 17.962 2.3465 7.048 26.11 13.721 35.92 0.9813 11.504 38.242 12.038 32.195 29.395-0.16762 23.814-28.937 18.701-37.428 23.279-10.496 10.818-5.3223 23.539-25.669 36.191-15.8-1.7932-1.8687-18.933-14.839-22.253z"
                  fill="#a7d000"/>
            <path d="m727.16-672.88c-9.1215-0.72125-14.261 13.778-21.5 9.276-6.5806-7.1594 1.3474-9.671-3.5244-17.533-5.3299-5.5496-19.642 2.7607-21.664-8.0394-0.3943-11.593 17.647-10.827 19.487-19.164 4.267-5.3182-9.2341-12.568-2.1252-21.736 7.6013-7.8345 18.701-0.8699 28.298-0.6383 9.0958-2.0129 8.5515-8.8139 23.4-11.234 12.006 1.4286 15.893 11.981 20.272 18.51 0.55299 7.7124 35.831 24.217 31.625 35.915-0.32795 15.982-36.81 9.7178-42.536 12.86-7.1262 7.3448-8.2572 7.9422-21.998 16.598-10.564-1.0749-1.0802-12.691-9.7351-14.813z"
                  fill="#668000"/>
        </g>
        <g transform="matrix(1.0066 -.35084 .35084 1.0066 228.81 315.35)" fill="#b9e600">
            <path d="m973.47-755.92c15.798-5.9181 13.556-33.904 29.031-32.101 16.36 6.7096 4.9754 17.045 19.002 26.249 13.064 5.0236 30.794-19.878 42.249-3.5924 9.3266 18.867-21.427 31.663-18.272 46.886-3.1624 12.122 24.842 13.588 19.803 34.291-6.8589 18.883-30.633 16.017-46.859 23.116-13.711 10.42-7.7163 21.243-30.745 36.822-21.153 6.9973-20.555-25.389-32.762-32.773-6.6901-12.324-48.462 7.0318-50.169-15.593-11.398-26.688 23.142-36.383 30.373-46.044 6.4302-17.702-5.5222-29.142 10.991-54.169 18.475-6.4577 11.293 20.147 27.358 16.909z"/>
            <path d="m1045.7-777.48c6.7471-10.982 27.832-4.4892 28.629-16.548-2.8297-13.571-12.334-6.6956-17.4-18.922-2.0041-10.78 19.531-19.979 8.6889-31.465-13.115-10.311-27.225 10.849-38.422 5.8474-9.714 0.32613-6.8963-21.189-23.436-20.907-15.404 1.9755-16.556 20.518-24.266 31.623-9.8957 8.6268-17.329 2.2225-32.48 17.042-8.3256 14.863 16.524 19.954 20.453 30.487 8.4828 7.1895-12.193 35.593 4.8678 40.763 18.804 13.223 31.076-11.343 39.48-15.18 14.441-1.8521 21.507 9.1818 42.967 0.92739 7.5363-12.923-13.817-12.024-9.0821-23.667z"/>
            <path d="m844.17-791.68c-8.4521-9.5773-28.074-0.43496-30.864-11.868 0.52011-13.385 10.996-8.1218 13.935-20.53 0.17392-10.598-22.501-16.417-13.767-28.917 11.162-11.692 28.536 6.6081 38.698 0.26546 9.5921-1.036 3.2454-21.242 19.532-23.268 15.453-0.24658 19.67 17.345 29.088 26.907 11.152 6.8855 17.384-0.27739 34.727 11.807 10.648 13.074-12.904 21.396-15.009 32.025-7.1326 8.0602 17.894 32.383 2.0033 39.7-16.263 15.269-32.399-6.5464-41.29-9.0533-14.487 0.23116-19.589 11.775-42.034 6.8512-9.55-11.326 11.566-13.428 4.9791-23.918z"/>
            <path d="m1065.3-673.99c12.088-3.7173 9.8341-21.951 21.816-20.645 12.758 4.5059 4.1601 11.135 15.163 17.245 10.181 3.3806 23.407-12.675 32.556-1.9788 7.5539 12.358-15.953 20.425-13.233 30.359-2.2155 7.8624 19.436 9.0545 15.932 22.486-4.9435 12.231-23.354 10.164-35.751 14.646-10.392 6.6646-5.5612 13.76-23.052 23.703-16.202 4.3742-16.346-16.699-25.909-21.608-5.396-8.0776-37.288 4.1644-39.029-10.575-9.2997-17.466 17.189-23.482 22.592-29.708 4.6344-11.467-4.8083-19.013 7.4751-35.161 14.145-4.0457 9.0962 13.208 21.44 11.237z"/>
        </g>
        <g stroke-width="1.0659">
            <path d="m1072.9-725.26c7.1943-5.4034 1.4756-17.343 9.7614-19.285 9.5428 0.0637 5.3473 6.6329 14.092 8.2088 7.5657-0.0972 12.665-14.21 21.235-9.0581 7.8917 6.6664-5.9063 17.747-1.7953 23.899 0.3423 5.9027 15.044 1.5944 15.816 11.612-0.4649 9.5367-13.21 12.48-20.433 18.479-5.3828 7.0184-0.5229 10.729-9.8772 21.67-9.7838 6.8264-19.566 3.0149-27.073 1.9192-5.4637-4.2487-42.28 8.4642-46.85-1.2069-10.236-9.7468 20.753-29.341 22.914-34.878 0.436-8.9406 0.8778-10.02 5.3279-23.973 8.4893-6.115 9.1157 6.8823 16.885 2.6132z"
                  fill="#668000"/>
            <path d="m812.08-703.14c-10.063-6.5294-23.251 7.6604-29.254-2.233-3.9112-12.669 6.4181-10.756 4.8137-23.207-3.2934-9.9626-23.846-8.8895-20.709-23.091 5.3966-14.144 25.633-2.0192 31.942-10.872 7.56-3.7254-4.2164-20.801 8.5329-27.376 12.64-4.6711 21.816 10.571 32.669 16.808 11.413 3.2357 14.22-5.255 32.415 1.0646 13.004 9.1691 12.124 24.232 13.837 34.779-3.2579 9.5886 28.745 51.284 18.036 62.693-8.436 18.955-46.978-11.21-55.109-11-11.85 4.3792-13.445 4.393-33.517 6.2366-11.534-7.8496 5.166-15.884-3.6572-23.802z"
                  fill="#668000"/>
            <path d="m810.9-790.67c-7.9867-4.3682-19.284 6.4052-23.83-0.5507-2.7345-9.0459 5.6385-8.036 4.7825-17.008-2.3283-7.1056-19.166-5.5765-16.084-15.992 4.9275-10.455 21.025-2.4008 26.504-9.0517 6.3152-2.9781-2.6866-14.933 7.9751-20.167 10.502-3.8495 17.445 6.8704 26.088 10.998 9.2099 1.9302 11.815-4.3308 26.455-0.4116 10.294 6.1754 9.0248 17.133 10.04 24.719-3.0129 7.0736 21.622 36.146 12.452 44.813-7.5879 14.056-37.989-6.4154-44.642-5.9656-9.8458 3.609-11.149 3.677-27.623 5.7476-9.1405-5.2718 4.8027-11.709-2.1199-17.131z"
                  fill="#8a0"/>
            <path d="m961.94-779.1c10.317-8.7063 1.4361-29.348 13.497-32.108 13.988 0.7279 8.1148 11.608 20.996 14.852 11.084 0.32665 17.965-23.303 30.741-13.999 11.845 11.831-7.9119 29.747-1.6295 40.459 0.7492 10.043 22.116 3.6838 23.666 20.741-0.2819 16.16-18.837 20.329-29.172 30.046-7.5945 11.566-0.3169 18.181-13.568 36.148-14.053 10.954-28.548 3.8472-39.597 1.4996-8.1855-7.5682-61.61 11.624-68.711-5.092-15.41-17.213 29.185-48.465 32.12-57.726 0.26404-15.151 0.86625-16.956 6.8028-40.355 12.185-9.8304 13.648 12.277 24.856 5.5339z"
                  fill="#668000"/>
            <path d="m991.86-835.78c2.0722-8.9452 17.959-9.6828 15.722-17.916-5.0611-8.3696-9.9614-1.5008-16.238-8.437-3.8532-6.7072 8.7222-18.018-1.3262-23.072-11.329-3.7244-16.078 13.778-24.874 13.134-6.5541 2.552-9.5926-12.473-20.815-8.3092-10.057 5.0196-6.5672 17.662-9.2686 26.92-4.7641 8.1314-11.314 5.6468-18.237 19.171-2.2542 11.913 6.9796 18.681 12.091 24.761 7.4471 2.7558 12.977 41.311 25.813 40.658 15.882 4.2991 20.832-32.453 25.682-37.031 9.428-4.7056 10.364-5.6168 23.105-16.279 2.1632-10.429-12.202-4.6975-11.656-13.6z"
                  fill="#8a0"/>
        </g>
    </g>
</svg>
