<svg width="1e3mm" height="725mm" version="1.1" viewBox="0 0 1e3 725" xmlns="http://www.w3.org/2000/svg">
    <g transform="translate(-413.42 1030.3)">
        <g stroke-width="1.2791">
            <path d="m925.9-574.06c6.6554-29.914 35.151-69.538 30.877-97.82-4.8055-31.8-21.285-48.085-21.285-48.085l128.82-29.09-113.44-5.1215c-54.975-42.793-0.056-85.585-0.084-128.38l-33.369 120.5-70.005-120.76 38.515 134.53c-119.92-25.448-147.77-15.49-147.77-15.49s141.17 15.398 160.38 47.302c-6.1235 12.646 22.23 27.915 24.663 57.864 1.9913 24.507-33.809 58.25-34.818 76.621 3.0678 5.3491-2.4028 276.09 1.7949 276.31 13.434 0.69467 9.9482 0.3178 27 0.3178 6.7656 0 4.0012-263.98 8.7186-268.69z"
                  fill="#520"/>
            <path d="m762.11-761.93c-17.957-11.947-41.108 13.502-51.922-4.4648-7.1511-22.952 11.202-19.344 8.1481-41.867-6.0087-18.053-42.441-16.415-37.117-42.034 9.3331-25.479 45.428-3.2722 56.467-19.177 13.346-6.6212-7.8276-37.652 14.674-49.346 22.34-8.2553 38.869 19.424 58.223 30.856 20.294 6.0155 25.132-9.2873 57.506 2.4004 23.218 16.762-6.1347 42.813-2.9186 61.896-5.6168 17.28 45.17 45.816 26.37 66.278-14.643 34.13-51.013 5.336-65.43 5.5957-20.944 7.7396-21.547 29.895-57.116 32.932-20.588-14.354 8.8954-28.628-6.8861-43.068z"
                  fill="#abd500"/>
            <path d="m670.46-727.13c-16.366-1.4879-25.226 24.331-38.309 16.122-11.968-12.947 2.181-17.266-6.741-31.433-9.6865-10.041-35.138 4.5103-39.022-14.848-0.98722-20.743 31.366-18.979 34.462-33.851 7.519-9.4186-16.854-22.678-4.3351-38.92 13.434-13.846 33.497-1.1497 50.702-0.5271 16.253-3.4021 15.113-15.577 41.668-19.584 21.554 2.8158 8.4576 31.332 16.465 43.104 1.1776 13.805 45.89 14.446 38.634 35.274-0.20114 28.576-34.725 22.441-44.913 27.935-12.595 12.981-6.3868 28.247-30.802 43.43-18.96-2.1518-2.2424-22.719-17.806-26.704z"
                  fill="#a7d000"/>
            <path d="m674.18-746.4c-10.946-0.8655-17.114 16.534-25.8 11.131-7.8967-8.5912 1.6169-11.605-4.2292-21.039-6.3958-6.6595-23.571 3.3128-25.997-9.6472-0.47316-13.912 21.177-12.992 23.384-22.997 5.1204-6.3818-11.081-15.082-2.5502-26.083 9.1215-9.4014 22.441-1.0439 33.957-0.76596 10.915-2.4155 10.262-10.577 28.08-13.481 14.408 1.7143 19.072 14.377 24.326 22.212 0.66359 9.2548 42.997 29.061 37.95 43.098-0.39354 19.179-44.171 11.661-51.043 15.431-8.5514 8.8138-9.9086 9.5306-26.397 19.918-12.677-1.2899-1.2962-15.229-11.682-17.775z"
                  fill="#668000"/>
        </g>
        <g transform="matrix(1.2079 -.421 .421 1.2079 76.155 439.47)" fill="#b9e600">
            <path d="m973.47-755.92c15.798-5.9181 13.556-33.904 29.031-32.101 16.36 6.7096 4.9754 17.045 19.002 26.249 13.064 5.0236 30.794-19.878 42.249-3.5924 9.3266 18.867-21.427 31.663-18.272 46.886-3.1624 12.122 24.842 13.588 19.803 34.291-6.8589 18.883-30.633 16.017-46.859 23.116-13.711 10.42-7.7163 21.243-30.745 36.822-21.153 6.9973-20.555-25.389-32.762-32.773-6.6901-12.324-48.462 7.0318-50.169-15.593-11.398-26.688 23.142-36.383 30.373-46.044 6.4302-17.702-5.5222-29.142 10.991-54.169 18.475-6.4577 11.293 20.147 27.358 16.909z"/>
            <path d="m1045.7-777.48c6.7471-10.982 27.832-4.4892 28.629-16.548-2.8297-13.571-12.334-6.6956-17.4-18.922-2.0041-10.78 19.531-19.979 8.6889-31.465-13.115-10.311-27.225 10.849-38.422 5.8474-9.714 0.32613-6.8963-21.189-23.436-20.907-15.404 1.9755-16.556 20.518-24.266 31.623-9.8957 8.6268-17.329 2.2225-32.48 17.042-8.3256 14.863 16.524 19.954 20.453 30.487 8.4828 7.1895-12.193 35.593 4.8678 40.763 18.804 13.223 31.076-11.343 39.48-15.18 14.441-1.8521 21.507 9.1818 42.967 0.92739 7.5363-12.923-13.817-12.024-9.0821-23.667z"/>
            <path d="m844.17-791.68c-8.4521-9.5773-28.074-0.43496-30.864-11.868 0.52011-13.385 10.996-8.1218 13.935-20.53 0.17392-10.598-22.501-16.417-13.767-28.917 11.162-11.692 28.536 6.6081 38.698 0.26546 9.5921-1.036 3.2454-21.242 19.532-23.268 15.453-0.24658 19.67 17.345 29.088 26.907 11.152 6.8855 17.384-0.27739 34.727 11.807 10.648 13.074-12.904 21.396-15.009 32.025-7.1326 8.0602 17.894 32.383 2.0033 39.7-16.263 15.269-32.399-6.5464-41.29-9.0533-14.487 0.23116-19.589 11.775-42.034 6.8512-9.55-11.326 11.566-13.428 4.9791-23.918z"/>
            <path d="m1065.3-673.99c12.088-3.7173 9.8341-21.951 21.816-20.645 12.758 4.5059 4.1601 11.135 15.163 17.245 10.181 3.3806 23.407-12.675 32.556-1.9788 7.5539 12.358-15.953 20.425-13.233 30.359-2.2155 7.8624 19.436 9.0545 15.932 22.486-4.9435 12.231-23.354 10.164-35.751 14.646-10.392 6.6646-5.5612 13.76-23.052 23.703-16.202 4.3742-16.346-16.699-25.909-21.608-5.396-8.0776-37.288 4.1644-39.029-10.575-9.2997-17.466 17.189-23.482 22.592-29.708 4.6344-11.467-4.8083-19.013 7.4751-35.161 14.145-4.0457 9.0962 13.208 21.44 11.237z"/>
        </g>
        <g stroke-width="1.2791">
            <path d="m1089.1-809.26c8.6332-6.484 1.7707-20.812 11.714-23.142 11.451 0.0764 6.4168 7.9595 16.91 9.8505 9.0788-0.11664 15.198-17.052 25.482-10.87 9.47 7.9996-7.0876 21.297-2.1544 28.679 0.4108 7.0832 18.053 1.9133 18.98 13.934-0.5579 11.444-15.852 14.976-24.52 22.175-6.4594 8.422-0.6275 12.874-11.853 26.004-11.74 8.1917-23.479 3.6179-32.488 2.3031-6.5565-5.0984-50.736 10.157-56.22-1.4483-12.283-11.696 24.904-35.209 27.497-41.853 0.5232-10.729 1.0534-12.025 6.3935-28.768 10.187-7.3379 10.939 8.2588 20.262 3.1359z"
                  fill="#668000"/>
            <path d="m776.08-782.72c-12.076-7.8353-27.902 9.1925-35.105-2.6795-4.6935-15.203 7.7017-12.908 5.7765-27.848-3.952-11.955-28.616-10.667-24.851-27.709 6.4759-16.972 30.76-2.4231 38.33-13.046 9.072-4.4705-5.0597-24.961 10.239-32.851 15.168-5.6053 26.179 12.686 39.203 20.17 13.695 3.8828 17.065-6.3059 38.898 1.2775 15.605 11.003 14.549 29.078 16.605 41.735-3.9094 11.506 34.493 61.54 21.643 75.232-10.123 22.746-56.374-13.452-66.131-13.2-14.22 5.255-16.134 5.2715-40.22 7.4839-13.841-9.4195 6.1992-19.061-4.3886-28.563z"
                  fill="#668000"/>
            <path d="m774.66-887.75c-9.5841-5.2419-23.141 7.6863-28.596-0.66084-3.2814-10.855 6.7662-9.6431 5.739-20.409-2.794-8.5267-23-6.6918-19.3-19.19 5.913-12.546 25.23-2.881 31.805-10.862 7.5782-3.5737-3.2239-17.919 9.5702-24.201 12.602-4.6194 20.935 8.2445 31.306 13.197 11.052 2.3162 14.178-5.197 31.746-0.49392 12.353 7.4105 10.83 20.559 12.047 29.663-3.6155 8.4883 25.946 43.376 14.942 53.775-9.1055 16.867-45.586-7.6985-53.571-7.1588-11.815 4.3307-13.379 4.4123-33.148 6.8971-10.969-6.3261 5.7632-14.051-2.5439-20.557z"
                  fill="#8a0"/>
            <path d="m955.91-873.87c12.381-10.448 1.7233-35.218 16.197-38.53 16.786 0.87348 9.7378 13.93 25.195 17.822 13.301 0.39198 21.558-27.963 36.889-16.799 14.214 14.197-9.4943 35.696-1.9554 48.551 0.899 12.052 26.539 4.4205 28.4 24.889-0.3382 19.392-22.604 24.395-35.007 36.055-9.1134 13.879-0.3803 21.817-16.282 43.378-16.863 13.145-34.258 4.6166-47.517 1.7996-9.8226-9.0818-73.932 13.949-82.454-6.1104-18.493-20.656 35.022-58.158 38.544-69.271 0.31685-18.181 1.0395-20.347 8.1634-48.426 14.623-11.796 16.378 14.732 29.827 6.6407z"
                  fill="#668000"/>
            <path d="m991.82-941.89c2.4867-10.734 21.551-11.619 18.867-21.5-6.0733-10.044-11.954-1.801-19.486-10.124-4.6239-8.0486 10.467-21.621-1.5914-27.686-13.594-4.4692-19.293 16.534-29.848 15.761-7.8649 3.0625-11.511-14.967-24.978-9.971-12.068 6.0235-7.8806 21.194-11.122 32.304-5.7169 9.7576-13.576 6.7762-21.884 23.005-2.705 14.296 8.3756 22.417 14.509 29.713 8.9366 3.3069 15.573 49.573 30.976 48.79 19.058 5.1589 24.998-38.944 30.818-44.438 11.314-5.6468 12.436-6.7402 27.726-19.534 2.5958-12.515-14.643-5.637-13.987-16.32z"
                  fill="#8a0"/>
        </g>
    </g>
</svg>
