<svg width="512" height="512" version="1.1" viewBox="0 0 135.47 135.47" xmlns="http://www.w3.org/2000/svg">
    <defs>
        <linearGradient id="linearGradient890" x1="154.97" x2="154.7" y1="88.708" y2="158.62"
                        gradientTransform="matrix(1.021 0 0 1.3261 2.5431 -53.029)" gradientUnits="userSpaceOnUse">
            <stop stop-color="#fff" offset="0"/>
            <stop stop-color="#a6a6a6" offset=".20029"/>
            <stop stop-color="#a6a6a6" offset=".33982"/>
            <stop stop-color="#8ad829" offset="1"/>
        </linearGradient>
    </defs>
    <g transform="translate(-26.686 -23.173)">
        <ellipse cx="46.855" cy="70.419" rx="11.259" ry="11.592" fill="#fd5" stroke="#000" stroke-miterlimit="5.6"
                 stroke-width="1.1329" style="paint-order:fill markers stroke"/>
        <path d="m45.254 88.223c-3.1829-1.3231-4.8585-11.349 4.3559-7.5659-1.5079-9.2684 7.8695-11.667 11.388-6.7486 0.16939-8.5112 11.899-8.005 11.564 0.12784 4.5234-3.9723 11.225 0.94601 6.5338 5.8637 7.0363-1.7003 5.5286 6.431 2.8483 7.9443-12.271-0.44105-24.409 0.28764-36.69 0.37713z"
              fill="#fff" stroke="#000" stroke-width=".94193">
            <animateMotion
                    path="m0 0 h -60 h 190 z"
                    dur="120s"
                    repeatCount="indefinite"/>
        </path>
        <path d="m78.389 53.959c-3.1829-1.3231-4.8585-11.349 4.3559-7.5659-1.5079-9.2684 7.8695-11.667 11.388-6.7486 0.16939-8.5112 11.899-8.005 11.564 0.12784 4.5234-3.9723 11.225 0.94601 6.5338 5.8637 7.0364-1.7003 5.5286 6.431 2.8483 7.9443-12.271-0.44104-24.409 0.28764-36.69 0.37713z"
              fill="#fff" stroke="#000" stroke-width=".94193">
            <animateMotion
                    path="m0 0 h -90 h 190 z"
                    dur="260s"
                    repeatCount="indefinite"/>
        </path>
        <path d="m30.753 157.38s33.427-23.37 44.07-26.914c12.553-4.6076 23.159-23.431 29.981-40.089 5.5371-16.539 25.971-37.961 33.666-20.06 5.8243 11.088 6.8917 29.142 9.0749 39.066 2.8019 15.881 12.953 47.948 12.953 47.948-45.661 0.0883-89.702-0.0558-129.74 0.0502z"
              fill="url(#linearGradient890)" stroke="#000" stroke-width="2.5222"/>
        <path d="m117.58 87.355c1.1991-4.6789 9.7092-7.2606 0.97413-9.2722" fill="none" stroke="#6e4215"
              stroke-width="1.2611"/>
        <path d="m45.777 152.18s69.497-6.0848 69.497-12.351c0-7.7694-13.372-18.045-13.372-21.804 0.22691-4.2609 29.917-4.2609 30.144-9.7743 0.22692-3.7594-20.852-12.281-20.625-16.291 0-4.5115 26.064-10.025 25.838-15.288-0.22692-3.5079-9.1679-11.211-9.1679-11.211"
              fill="none" stroke="#734621" stroke-width="1.2611"/>
        <path d="m109.57 142.99s23.288 1.6268 29.181-7.1456" fill="none" stroke="#6e4215" stroke-width="1.2611"/>
        <path d="m45.663 140.2 l 63 -70" fill="none"
              stroke="#000" stroke-width="1.0244"/>
        <path d="m75.135 108.2 2.5 0 0-3 0 3 2.5 0v5h-5z" fill="#e21e1e"
              stroke="#000" stroke-linecap="square" stroke-miterlimit="5.6" stroke-width="1.1636"
              style="paint-order:fill markers stroke">
            <animateMotion
                    path="m0 0 l 34.135 -37.8 l -68.27 75.6z"
                    dur="30s"
                    repeatCount="indefinite"
                    keyPoints="0;0.2;0.3;0.7;0.8;1" keyTimes="0;0.1;0.4;0.6;0.9;1" calcMode="linear"
            />
        </path>
        <rect x="36.226" y="138.75" width="9.5511" height="13.437" rx="0" ry="0" fill="#786858" stroke="#000"
              stroke-linecap="square" stroke-miterlimit="5.6" stroke-width="1.0564"
              style="paint-order:fill markers stroke"/>
        <rect x="109.08" y="67.889" width="9.5511" height="12.842" rx="0" ry="0" fill="#76665a" stroke="#000"
              stroke-linecap="square" stroke-miterlimit="5.6" stroke-width="1.0327"
              style="paint-order:fill markers stroke"/>
        <path d="m128.01 66.527v-15.663" fill="none" stroke="#000" stroke-width="2.5222"/>
        <path d="m123.54 55.452 8.6469 0.06392" fill="none" stroke="#000" stroke-width="2.5222"/>
        <path d="m133.55 135.63 0.0575-7.1082-3.683 0.0252 9.1793-4.6661 9.1225 4.9212-3.853-0.0639-0.17259 6.9624z"
              fill="#803300" stroke="#000" stroke-width=".9619"/>
        <path d="m144.27 145.88c-5.2558 0.1598-7.5941-3.2465-4.8463-4.7093-1.3653-1.8249-0.68234-3.7201 1.6383-3.6457-0.4778-2.9627 1.1605-3.4926 3.1397-1.8249 2.3238-2.1317 4.1311 0.64559 2.7303 2.6559 2.3206 1.1378 1.9796 2.3554 0.81913 4.0257 3.2024 3.763-3.4811 3.4926-3.4811 3.4926l-0.0639 3.9959z"
              fill="#450" stroke="#000" stroke-width="1.0776"/>
        <path d="m121.98 142.44c-5.2558 0.15979-7.5942-3.2465-4.8463-4.7093-1.3653-1.8217-0.68234-3.7201 1.6383-3.6457-0.4778-2.9627 1.1605-3.4929 3.1397-1.8217 2.3238-2.1317 4.1311 0.6424 2.7303 2.6559 2.3206 1.1378 1.9796 2.3554 0.81913 4.0257 3.2024 3.763-3.4811 3.4929-3.4811 3.4929l-0.0639 3.9956z"
              fill="#450" stroke="#000" stroke-width="1.0776"/>
        <path d="m96.065 132.77c-5.2558 0.1598-7.5942-3.2465-4.8463-4.7093-1.3653-1.8249-0.68234-3.7204 1.6383-3.6457-0.4778-2.9627 1.1605-3.4929 3.1397-1.8249 2.3238-2.1317 4.1311 0.64559 2.7303 2.6559 2.3206 1.1378 1.9796 2.3554 0.81913 4.0257 3.2024 3.763-3.4811 3.4929-3.4811 3.4929l-0.06392 3.9956z"
              fill="#450" stroke="#000" stroke-width="1.0776"/>
        <path d="m70.145 141.41c-5.2558 0.1598-7.5942-3.2465-4.8463-4.7093-1.3653-1.8249-0.68234-3.7204 1.6383-3.6457-0.4778-2.9627 1.1605-3.4929 3.1397-1.8217 2.3238-2.1317 4.1311 0.64239 2.7303 2.6559 2.3206 1.1378 1.9796 2.3554 0.81913 4.0257 3.2024 3.763-3.4811 3.4929-3.4811 3.4929l-0.06392 3.9956z"
              fill="#450" stroke="#000" stroke-width="1.0776"/>
        <path d="m108.29 96.082-3.9284 6.314 2.1582-0.12784-3.2986 4.5757 4.5202-0.54971 0.4615 3.5971 0.53916-3.5597 4.2959 0.56568-3.3172-4.686 2.0512-6e-3z"
              fill="#668000" stroke="#000" stroke-width="1.2611"/>
        <path d="m128.37 107.69-3.9284 6.3137 2.1582-0.12784-3.2986 4.5757 4.5202-0.54971 0.4615 3.5974 0.53916-3.56 4.2959 0.56889-3.3171-4.6863 2.0512-6e-3z"
              fill="#668000" stroke="#000" stroke-width="1.2611"/>
        <path d="m135.05 83.568-3.9284 6.314 2.1582-0.12784-3.2986 4.5757 4.5202-0.54332 0.4615 3.5971 0.53916-3.56 4.2959 0.56888-3.3171-4.6856 2.0512-0.0067z"
              fill="#668000" stroke="#000" stroke-width="1.2611"/>
    </g>
</svg>
