<svg xmlns="http://www.w3.org/2000/svg"
     width="700.000000pt" height="700.000000pt" viewBox="0 0 700.000000 700.000000"
     preserveAspectRatio="xMidYMid meet">
    <g transform="translate(0.000000,700.000000) scale(0.100000,-0.100000)"
       fill="#000000" stroke="none">
        <path d="M3674 6472 c-92 -33 -164 -108 -192 -203 l-17 -57 -40 28 c-130 92
-328 75 -440 -37 -22 -22 -48 -51 -58 -64 -29 -38 -60 -158 -61 -231 -1 -38
-4 -68 -8 -68 -4 0 -18 4 -33 10 -40 15 -136 20 -177 9 -51 -13 -93 -51 -112
-100 -46 -115 9 -300 106 -359 26 -15 47 -17 151 -14 315 10 1520 27 1784 24
17 0 61 48 85 95 94 179 29 362 -130 368 l-49 2 19 43 c26 58 30 109 12 163
-17 54 -81 119 -140 142 -58 22 -167 18 -221 -9 -46 -23 -46 -23 -57 37 -6 38
-41 103 -77 143 -72 83 -232 119 -345 78z"/>
        <path d="M5168 5483 l-3 -88 -80 0 -80 0 0 -64 0 -64 83 -1 82 0 0 -157 0
-157 -37 -12 c-67 -22 -188 -89 -279 -155 -49 -36 -95 -65 -104 -66 -8 -1
-127 -2 -265 -3 l-250 -1 -5 -68 c-3 -37 -9 -68 -15 -70 -5 -1 -32 -27 -59
-57 -28 -30 -55 -60 -60 -66 -6 -6 -41 -44 -77 -85 -37 -41 -77 -86 -90 -100
-29 -31 -157 -174 -182 -203 -15 -16 -107 -118 -182 -200 -5 -6 -66 -74 -134
-151 -69 -77 -144 -160 -167 -185 -23 -25 -147 -162 -275 -305 -128 -143 -238
-265 -244 -271 -5 -6 -41 -46 -80 -90 -38 -43 -77 -85 -85 -94 -8 -9 -51 -56
-95 -106 -44 -49 -84 -94 -90 -100 -5 -6 -41 -46 -80 -89 -38 -43 -75 -83 -81
-89 -5 -6 -52 -58 -104 -116 -51 -58 -96 -107 -99 -110 -3 -3 -42 -45 -86 -95
-44 -49 -82 -92 -85 -95 -3 -3 -41 -45 -85 -95 -44 -49 -82 -92 -85 -95 -3 -3
-46 -50 -95 -105 -50 -55 -94 -105 -100 -111 -5 -6 -44 -49 -85 -95 -41 -46
-95 -106 -120 -134 -25 -27 -49 -54 -55 -61 -5 -6 -44 -49 -87 -95 -42 -46
-90 -100 -107 -119 -19 -21 -31 -29 -31 -20 0 13 -35 15 -268 14 -147 -1 -269
-2 -272 -3 -3 0 -5 -165 -5 -365 l1 -364 -198 -137 c-109 -76 -198 -139 -198
-140 0 -2 30 -13 67 -24 68 -20 70 -20 3466 -19 1868 0 3397 3 3397 6 0 5 -41
139 -92 302 -26 84 -98 321 -144 480 -9 30 -28 91 -41 135 -14 44 -26 87 -28
95 -3 14 -66 237 -100 355 -96 331 -239 923 -281 1159 -3 17 -10 51 -15 76 -6
25 -13 56 -15 70 -12 68 -24 139 -29 175 -4 22 -8 49 -10 60 -1 11 -6 36 -9
55 -3 19 -8 53 -11 75 -3 22 -10 65 -15 95 -9 51 -36 227 -45 295 -10 68 -69
364 -100 500 -23 98 -80 294 -117 395 -36 101 -130 305 -172 375 -108 180
-257 273 -438 275 l-38 0 0 143 0 144 75 -3 75 -3 0 68 0 67 -72 0 -73 -1 -3
88 -3 87 -64 0 -64 0 -3 -87z m-994 -1499 c-72 -128 -126 -241 -181 -383 -185
-478 -478 -1038 -711 -1358 -178 -244 -344 -424 -501 -543 -18 -14 -45 -34
-59 -45 -42 -33 -142 -89 -202 -113 -76 -32 -102 -43 -121 -52 -9 -5 -37 -8
-63 -8 -26 0 -57 -7 -69 -15 -20 -13 -26 -13 -57 4 -19 10 -51 18 -72 19 -48
0 -88 -44 -88 -99 0 -35 -3 -39 -39 -53 -24 -10 -49 -30 -63 -51 -14 -22 -51
-52 -93 -76 -111 -64 -117 -68 -370 -225 -132 -81 -271 -170 -310 -195 -38
-26 -91 -60 -116 -74 l-46 -27 1 128 c1 114 3 130 22 155 18 22 132 150 184
207 8 9 49 54 90 100 41 46 82 91 90 100 8 9 47 51 85 94 83 93 88 99 185 206
41 46 82 91 90 100 31 34 108 119 185 205 162 182 269 300 284 316 9 9 45 49
81 89 36 41 74 83 85 94 11 12 32 36 48 54 31 39 29 46 30 -110 l0 -108 26 -1
c46 -1 256 -1 274 0 15 1 17 16 17 160 l0 159 -47 0 c-86 -1 -83 -2 -79 45 1
23 -1 52 -6 65 -7 19 0 32 40 75 26 28 52 57 57 63 6 6 42 47 82 91 40 43 80
88 90 100 28 32 165 184 193 214 21 22 105 116 170 189 75 84 150 168 175 194
17 18 57 63 90 100 33 38 71 80 85 95 30 33 89 98 190 211 41 46 102 114 135
150 97 106 207 229 235 262 l25 31 3 -220 2 -220 -56 -99z m-1570 -1311 c-6
-34 -6 -34 -38 -37 -32 -4 -32 -3 -4 34 28 38 48 39 42 3z"/>
        <path d="M929 5174 c-485 -91 -665 -711 -309 -1064 46 -45 100 -87 136 -105
58 -30 59 -32 53 -63 -21 -103 37 -258 116 -309 35 -23 31 -23 525 -8 96 3
456 8 799 10 l624 4 24 23 c38 36 71 98 86 163 36 160 -30 272 -167 278 -44 2
-44 2 -31 27 89 174 -47 356 -251 337 -35 -4 -81 -15 -104 -27 l-40 -20 -1 22
c-3 94 -78 202 -171 246 -128 62 -292 33 -381 -68 -32 -35 -77 -125 -77 -152
0 -21 -23 -24 -39 -4 -6 8 -24 19 -40 25 -26 12 -28 16 -29 79 -3 173 -77 339
-201 455 -143 132 -332 187 -522 151z"/>
    </g>
</svg>
