<svg width="1e3mm" height="1884.1mm" version="1.1" viewBox="0 0 1e3 1884.1" xmlns="http://www.w3.org/2000/svg">
    <path d="m17.657 1790.3c0.0416 46.561 42.555 96.022 92.409 93.713l776.48-0.5542c57.045 1.359 100.18-37.411 100.21-94.301v-29.986l-969.1 3.2303z"
          fill="#800000"/>
    <path d="m399.06 678.28 259.51-252.75 2.0898-358.29-127.38-2.1209 1.6996 81.895-136.68 1.2246 1.0964-64.323 104.48-82.186 175.06-1.7359 53.816 51.441v405.31l-134.96 222.67z"
          fill="#808080"/>
    <path d="m161.7 781.1 85.657-103.93 487.67-1.1421 94.794 108.5z" fill="#564343"/>
    <path d="m13.322 870.15c0.0416-46.561 42.555-96.022 92.409-93.713l776.48 0.55422c57.045-1.359 100.18 37.411 100.21 94.301v29.985l-969.1-3.2302z"
          fill="#ff0808"/>
    <path d="m17.657 1762.4-1.6151-500.7h50.07l1.0573 67.245c0 23.984 14.192 42.467 48.455 43.61l317.8 2.2841c30.836-2.2842 50.07-18.01 50.07-41.994l3.7882-73.435h45.225l1.0573 71.815c1.1421 25.126 24.829 39.71 61.376 41.994l297.58-0.669c28.552-1.1421 46.005-24.486 46.84-48.455l2.1731-62.405h45.224v497.47z"
          fill="#d40000"/>
    <path d="m13.322 898.05 2.7198 363.65h50.07l3.4639-269.26c0-23.984 14.192-42.467 48.455-43.61l317.8-2.2841c30.836 2.2842 50.07 18.01 50.07 41.994l1.3816 270.88h45.225l3.4639-269.26c1.1421-25.126 24.829-39.71 61.376-41.994l297.58 0.669c28.552 1.1421 46.84 24.471 46.84 48.455l-0.2337 264.42h45.224l-4.3348-360.42z"
          fill="#d40000"/>
    <rect x="6.3795" y="1745.3" width="993.62" height="30.836" fill="#ac9d93" style="paint-order:normal"/>
    <rect x="3.2597" y="881.87" width="993.62" height="30.836" fill="#ac9d93" style="paint-order:normal"/>
    <rect x="487.42" y="1502.7" width="39.973" height="134.77" fill="#e3dbdb" style="paint-order:normal"/>
    <path d="m436.22 121.33-39.831 88.241 132.66 0.68232-25.218-88.119z" fill="#535353" stroke-width="2.0474"/>
    <path d="m136.91 1265.8 142.34-255.34 8.6925 21.731-141.25 249.91z" fill="#baf4ff"/>
    <path d="m263.49 1285.4 149.51-271.68 9.1302 23.122-148.37 265.9z" fill="#baf4ff"/>
    <path d="m595.71 1263.7 142.34-255.34 8.6925 21.731-141.25 249.91z" fill="#baf4ff"/>
    <path d="m724.47 1278 148.48-269.64 9.0677 22.948-147.35 263.9z" fill="#baf4ff"/>
</svg>
