<svg width="1e3mm" height="1884.1mm" version="1.1" viewBox="0 0 1e3 1884.1" xmlns="http://www.w3.org/2000/svg"><path d="m17.657 1790.3c0.0416 46.561 42.555 96.022 92.409 93.713l776.48-0.5542c57.045 1.359 100.18-37.411 100.21-94.301v-29.986l-969.1 3.2303z" fill="#800000"/><path d="m399.06 828.23 259.51-252.75 2.0898-508.24-127.38-2.1209 1.6996 81.895-136.68 1.2246 1.0964-64.323 104.48-82.186 175.06-1.7359 53.816 51.441v555.26l-134.96 222.67z" fill="#808080"/><path d="m161.7 931.05 85.657-103.93 487.67-1.1421 94.794 108.5z" fill="#564343"/><path d="m13.322 1020.1c0.0416-46.561 42.555-96.022 92.409-93.713l776.48 0.55422c57.045-1.359 100.18 37.411 100.21 94.301v29.985l-969.1-3.2302z" fill="#ff0808"/><path d="m17.657 1762.4-1.6151-500.7h50.07l3.2304 192.2c0 23.984 14.192 42.467 48.455 43.61l317.8 2.2841c30.836-2.2842 50.07-18.01 50.07-41.994l1.6151-198.39h45.225l3.2304 196.77c1.1421 25.126 24.829 39.71 61.376 41.994l297.58-0.669c28.552-1.1421 46.84-24.471 46.84-48.455v-187.36h45.224v497.47z" fill="#d40000"/><path d="m13.322 1048 2.7198 213.7h50.07l3.4639-119.31c0-23.984 14.192-42.467 48.455-43.61l317.8-2.2841c30.836 2.2842 50.07 18.01 50.07 41.994l1.3816 120.93h45.225l3.4639-119.31c1.1421-25.126 24.829-39.71 61.376-41.994l297.58 0.669c28.552 1.1421 46.84 24.471 46.84 48.455l-0.2337 114.47h45.224l-4.3348-210.47z" fill="#d40000"/><rect x="6.3795" y="1745.3" width="993.62" height="30.836" fill="#ac9d93" style="paint-order:normal"/><rect y="1032.9" width="993.62" height="30.836" fill="#ac9d93" style="paint-order:normal"/><rect x="491.77" y="1559.2" width="39.973" height="134.77" fill="#e3dbdb" style="paint-order:normal"/><path d="m436.22 121.33-39.831 88.241 132.66 0.68232-25.218-88.119z" fill="#535353" stroke-width="2.0474"/></svg>
