<svg width="1e3mm" height="575.14mm" version="1.1" viewBox="0 0 1e3 575.14" xmlns="http://www.w3.org/2000/svg">
    <g transform="translate(-59.334 503.57)">
        <path d="m1058-446.74-1.3835 259.42h-23.519l2.7669-260.09z" fill="#483737"/>
        <path d="m600.23-108.59-1.3835-106.29h-23.519l2.767 106.56z" fill="#483737"/>
        <path d="m832.72-332.77-1.3835 165.13h-23.519l2.767-165.56z" fill="#483737"/>
        <path d="m194.77 71.571s446.81-239.53 861.85-258.9v-29.053c-413.66 22.136-854.92 249.75-854.92 249.75z"
              fill="#483737"/>
        <path d="m59.334 70.677 1.9565-68.479 89.023 1.9566v-62.609h115.44v-61.631l113.48 0 -0.97827-65.544h113.48l-1.9566-62.609 123.26-1.9565 0 -63.588 108.59 0 -0.97824-58.696 114.46 1.9566v-65.544h115.44l0.48902-67.501 108.31 0.48914-0.489 99.228c-546.16 172.31-864.08 475.42-864.08 475.42z"
              fill="#6c5353"/>
    </g>
</svg>
