<svg width="1e3mm" height="973.91mm" version="1.1" viewBox="0 0 1e3 973.91" xmlns="http://www.w3.org/2000/svg"><path d="m59.957 240.6 852.99-2.5458v726.57l-849.27-2.0366z" fill="#483e37"/><path d="m453.68 326.7h155.16v-68.753l-155.16-1.1958z" fill="#60534a"/><path d="m45.652 452.6h83.902v-87.208l-83.902-1.5167z" fill="#ab9b91"/><path d="m49.51 571.2h83.902v-110.91l-83.902-1.9288z" fill="#b3a59c"/><path d="m50.474 764.1h83.902v-180.1l-83.902-3.1323z" fill="#b4a79e"/><path d="m48.545 875.8h83.902v-104.44l-83.902-1.8163z" fill="#a8998d"/><path d="m841.28 475.1h83.902v-88.76l-83.902-1.5437z" fill="#9f8e83"/><path d="m839.35 654.5h83.903v-167.44l-83.903-2.9119z" fill="#b9ada4"/><path d="m838.39 779.8h83.902v-116.25l-83.902-2.0217z" fill="#9e8c81"/><path d="m836.46 869h83.902v-81.653l-83.902-1.4201z" fill="#bcafa7"/><path d="m469.49 973.9h161.64v-85.674l-161.64-1.4899z" fill="#99877a"/><path d="m361.75 971.2h97.541v-85.674l-97.541-1.49z" fill="#a59589"/><path d="m153.07 971.2h198.47v-85.674l-198.47-1.49z" fill="#79685c"/><path d="m639.97 969.9h195.74v-85.674l-195.74-1.49z" fill="#857365"/><path d="m834.25 377.5h83.902v-128.57l-83.902-2.236z" fill="#61544b"/><path d="m44.688 357.1h83.902v-107.04l-83.902-1.8615z" fill="#61544b"/><path d="m3.729 971.2h137.09v-85.674l-137.09-1.49z" fill="#8d7a6c"/><path d="m845.92 965.8h116.64v-85.674l-116.64-1.4899z" fill="#988577"/><path d="m0 1.1 36.71-1.0797-1.0797 60.464h-33.471z" fill="#970000"/><path d="m31.086 6.3 36.71-1.0796-1.0797 60.464h-33.471z" fill="#b80000"/><path d="m64.679 12.4 36.71-1.0796-1.0797 60.464h-33.471z" fill="#a00000"/><path d="m98.267 20 36.71-1.0796-1.0797 60.464h-33.471z" fill="#c40000"/><path d="m131.1 26.9 36.71-1.0797-1.0797 60.464h-33.471z" fill="#9e0000"/><path d="m163.93 32.3 36.71-1.0796 6.659 64.697-41.21-4.2328z" fill="#ac0000"/><path d="m198.29 39.1 36.71-1.0796-1.0797 60.464h-33.471z" fill="#c00000"/><path d="m231.88 44.5 36.71-1.0796-1.0797 60.464h-33.471z" fill="#ac0000"/><path d="m265.48 51.4 36.71-1.0796-1.0797 60.464h-33.471z" fill="#9e0000"/><path d="m298.31 56.7 36.71-1.0797-1.0797 60.464h-33.471z" fill="#a80000"/><path d="m331.9 63.6 36.71-1.0797-0.19455 67.336-34.356-6.8713z" fill="#c00000"/><path d="m366.25 70.4 36.71-1.0796-1.0797 60.464h-33.471z" fill="#ac0000"/><path d="m398.32 77.3 36.71-1.0796-1.0797 60.464h-33.471z" fill="#8b0000"/><path d="m431.15 83.4 36.71-1.0796-1.0797 60.464h-33.471z" fill="#a00"/><path d="m464.74 90.3 36.71-1.0796-0.19455 68.099-34.356-7.6347z" fill="#c20000"/><path d="m499.1 97.9 36.71-1.0796-1.0797 60.464h-33.471z" fill="#970000"/><path d="m531.17 106.3 36.71-1.0796-0.19456 68.099-34.356-7.6347z" fill="#800"/><path d="m565.52 114 36.71-1.0796-1.0797 60.464h-33.471z" fill="#b60000"/><path d="m599.11 120.8 36.71-1.0797-1.0797 60.464h-33.471z" fill="#a00000"/><path d="m630.42 130 36.71-1.0796-1.0797 60.464h-33.471z" fill="#a00"/><path d="m664.28 136.3 36.71-1.0796-1.0797 60.464h-33.471z" fill="#900"/><path d="m696.08 146 36.71-1.0796-1.0797 60.464h-33.471z" fill="#c00"/><path d="m727.65 153.1 36.71-1.0797-0.19455 68.862-34.356-8.3983z" fill="#af0000"/><path d="m762 161.5 36.71-1.0796-1.0797 60.464h-33.471z" fill="#c00000"/><path d="m796.09 170.5 36.71-1.0797-0.19454 68.099-34.356-7.6347z" fill="#940000"/><path d="m830.45 178.1 36.71-1.0796-1.0796 60.464h-33.471z" fill="#c70000"/><path d="m863.28 191.8 36.71-1.0796-1.0797 60.464h-33.471z" fill="#a00"/><path d="m1.882 52.9 36.71-1.0796-1.0797 60.464h-33.471z" fill="#a30000"/><path d="m17.538 54.5 36.71-1.0797-1.0797 60.464h-33.471z" fill="#d00000"/><path d="m43.451 62.6 36.71-1.0797-1.0797 60.464h-33.471z" fill="#b80000"/><path d="m77.467 71.3 36.71-1.0796-1.0797 60.464h-33.471z" fill="#a30000"/><path d="m110.4 77.2 36.71-1.0796-1.0797 60.464h-33.471z" fill="#da0000"/><path d="m143.87 84.2 36.71-1.0797-1.0797 60.464h-33.471z" fill="#b60000"/><path d="m175.72 89.6 36.71-1.0797-1.0797 60.464h-33.471z" fill="#a00"/><path d="m207.3 95.9 36.71-1.0796-1.0797 60.464h-33.471z" fill="#a30000"/><path d="m239.96 101.5 36.71-1.0796-1.0797 60.464h-33.471z" fill="#d00000"/><path d="m273.97 108 36.71-1.0796v67.482l-34.551-7.0182z" fill="#b00"/><path d="m308.52 115 36.71-1.0796-1.0797 60.464h-33.471z" fill="#c00"/><path d="m342.54 121.5 36.71-1.0796 1.0797 66.942-35.631-6.4784z" fill="#9c0000"/><path d="m378.17 128 36.71-1.0797-1.0797 60.464h-33.471z" fill="#c20000"/><path d="m412.18 134.4 36.71-1.0796v67.482l-34.551-7.0182z" fill="#a30000"/><path d="m446.73 141.5 36.71-1.0797-1.0797 60.464h-33.471z" fill="#c90000"/><path d="m479.66 146.3 36.71-1.0797-1.0797 60.464h-33.471z" fill="#af0000"/><path d="m513.13 155 36.71-1.0797v66.942l-34.551-6.4783z" fill="#c90000"/><path d="m547.68 161.4 36.71-1.0796-1.0797 60.464h-33.471z" fill="#a00"/><path d="m581.15 170.1 36.71-1.0796-1.0797 60.464h-33.471z" fill="#c20000"/><path d="m613.86 178.2 36.71-1.0797-1.0797 60.464h-33.471z" fill="#b00"/><path d="m647.02 187.3 36.71-1.0797-1.0797 60.464h-33.471z" fill="#900000"/><path d="m618.76 325.9h206.54v-71.711l-206.54-1.2471z" fill="#564a41"/><path d="m345.93 324.1h97.541v-64.809l-97.541-1.127z" fill="#5a4d44"/><path d="m137.26 324.1h198.47v-68.753l-198.47-1.1958z" fill="#53473f"/><rect x="2.0634" y="249.67" width="999.7" height="31.982" fill="#483737" style="paint-order:normal"/><path d="m930.73 217.1 36.71-0.9433-1.0797 52.829h-33.471z" fill="#8b0000"/><path d="m963.29 229.6 36.71-0.6843-1.0797 38.323h-33.471z" fill="#a30000"/><path d="m896.11 205.6 36.71-1.0797-1.0797 60.464h-33.471z" fill="#ce0000"/><path d="m680.49 194.9 36.71-1.0797-1.0797 60.464h-33.471z" fill="#b40000"/><path d="m713.96 202.5 36.71-1.0796-1.0797 60.464h-33.471z" fill="#9e0000"/><path d="m746.35 208.4 36.71-1.0797-1.0797 60.464h-33.471z" fill="#b80000"/><path d="m779.82 215.8 36.71-0.8772-1.0797 49.127h-33.471z" fill="#ac0000"/><path d="m810.59 226.5 36.71-0.829-1.0797 46.428h-33.471z" fill="#b60000"/><path d="m844.6 230.6 36.71-0.6458-1.0797 36.17h-33.471z" fill="#ce0000"/><path d="m2.048 107.9 36.71-1.0797-1.0797 60.464h-33.471z" fill="#d40000"/><path d="m33.134 113.1 36.71-1.0796-1.0797 60.464h-33.471z" fill="#e60000"/><path d="m66.727 119.2 36.71-1.0796-1.0797 60.464h-33.471z" fill="#fb0000"/><path d="m100.32 126.8 36.71-1.0797-1.0797 60.464h-33.471z" fill="#e30000"/><path d="m133.15 133.7 36.71-1.0797-1.0797 60.464h-33.471z" fill="#c70000"/><path d="m165.98 139 36.71-1.0796 6.659 64.697-41.21-4.2328z" fill="#e60000"/><path d="m200.34 145.9 36.71-1.0796-1.0797 60.464h-33.471z" fill="#c20000"/><path d="m233.93 151.2 36.71-1.0796-1.0798 60.464h-33.471z" fill="#d40000"/><path d="m267.52 158.1 36.71-1.0796-1.0797 60.464h-33.471z" fill="#e60000"/><path d="m300.35 163.5 36.71-1.0797-1.0797 60.464h-33.471z" fill="#d40000"/><path d="m333.95 170.3 36.71-1.0796 10.638 57.92-45.189 2.5446z" fill="#e30000"/><path d="m368.3 177.2 36.71-1.0796-1.0797 60.464h-33.471z" fill="#d40000"/><path d="m400.37 184.1 36.71-1.0796-1.0797 60.464h-33.471z" fill="#b40000"/><path d="m433.2 190.2 36.71-1.0796-1.0797 60.464h-33.471z" fill="#d40000"/><path d="m466.79 197.1 36.71-1.0796-0.19456 68.099-34.356-7.6348z" fill="#eb0000"/><path d="m501.15 204.7 36.71-1.0797-1.0797 60.464h-33.471z" fill="#c20000"/><path d="m533.21 213.1 36.71-1.0796-1.0797 60.464h-33.471z" fill="#b10000"/><path d="m567.57 220.5 36.71-0.8206-1.0797 45.958h-33.471z" fill="#e10000"/><path d="m601.16 227.3 36.71-0.8342-1.0797 46.722h-33.471z" fill="#c70000"/><path d="m632.47 236.3 36.71-0.5753-1.0797 32.216h-33.471z" fill="#d70000"/><path d="m666.33 242.5 36.71-0.548-1.0797 30.688h-33.471z" fill="#c20000"/><path d="m19.586 161.3 36.71-1.0797-1.0797 60.464h-33.471z" fill="#eb0000"/><path d="m2.837 152.1 36.71-1.0796-1.0797 60.464h-33.471z" fill="#a80000"/><path d="m45.499 169.4 36.71-1.0797-1.0797 60.464h-33.471z" fill="#ce0000"/><path d="m79.507 178 36.71-1.0796-1.0797 60.464h-33.471z" fill="#b40000"/><path d="m112.44 184 36.71-1.0796-1.0797 60.464h-33.471z" fill="#eb0000"/><path d="m145.92 191 36.71-1.0797-1.0797 60.464h-33.471z" fill="#ce0000"/><path d="m177.77 196.4 36.71-1.0797-1.0797 60.464h-33.471z" fill="#c00000"/><path d="m209.35 202.6 36.71-1.0796-1.0797 60.464h-33.471z" fill="#da0000"/><path d="m242.01 208.3 36.71-1.0796-1.0797 60.464h-33.471z" fill="#c00000"/><path d="m276.02 214.8 36.71-1.0797-1.0797 60.464h-33.471z" fill="#ce0000"/><path d="m310.57 221.5 36.71-0.8478-1.0797 47.485h-33.471z" fill="#e10000"/><path d="m344.58 228 36.71-0.8342-1.0797 46.722h-33.471z" fill="#b10000"/><path d="m380.21 234.4 36.71-0.7796-1.0797 43.668h-33.471z" fill="#d50000"/><path d="m414.23 240.7 36.71-0.5889-1.0797 32.979h-33.471z" fill="#b80000"/><path d="m448.78 247.6 36.71-0.4116-1.0797 23.054h-33.471z" fill="#da0000"/><path d="m481.71 252.4 36.71-0.4117-1.0798 23.054h-33.471z" fill="#c40000"/><path d="m2.422 207.9 36.71-1.0796-1.0797 60.464h-33.471z" fill="#c90000"/><path d="m32.654 215.8 36.71-0.8772-1.0797 49.127h-33.471z" fill="#eb0000"/><path d="m66.125 225.8 36.71-0.6458-1.0797 36.17h-33.471z" fill="#c00"/><path d="m99.057 231.7 36.71-0.6362-1.0797 35.631h-33.471z" fill="#dc0000"/><path d="m130.91 238 36.71-0.4627-1.0797 25.913h-33.471z" fill="#eb0000"/><path d="m162.22 242.3 36.71-0.4531-1.0797 25.373h-33.471z" fill="#d30000"/><path d="m192.46 250 36.71-0.2796-1.0797 15.656h-33.471z" fill="#fe0000"/><path d="m509.42 405.4h-155.16v-68.753l155.16-1.1957z" fill="#827064"/><path d="m344.34 404.6h-206.54v-71.711l206.54-1.247z" fill="#9f8e80"/><path d="m617.17 402.9h-97.541v-64.809l97.541-1.127z" fill="#8e7c6d"/><path d="m825.84 402.9h-198.47v-68.753l198.47-1.1958z" fill="#968274"/><path d="m138.88 411.8 2.6992 341.31 686.24 2.6465 1.2548-347.45z" fill="#e3dedb"/><path d="m226.8 686.2 151.7-43.739 71.511-65.48 111.97-40.47 99.394-3.3336 50.231-47.482 70.799-13.882-56.381 78.487-81.513 47.962-124.04 33.071-220.03 107.32-139.11-36.994z" fill="#e0af8e"/><path d="m430.82 627.9s79.963-7.9821 165.53-1.1386c0 0 10.197 60.929 0 110.44 0 0-76.859 7.1887-165.09 1.1504 0 0-9.7542-58.526-0.44336-110.46z" fill="#803300" stroke-width="1.01"/><g transform="matrix(1.01 0 0 1.01 -14.401 1374.7)"><path d="m452.34-730.8-4.829 44.243 72.875-2.7901v-44.642z"/><path d="m446.63-678.19 1.756 42.25 71.119-0.79708v-44.642z"/><path d="m529.6-679.78-1.317 43.844 69.363-2.3915 1.756-44.243z"/><path d="m529.6-735.98 0.4393 45.837 70.241-0.79715-3.073-42.649z"/></g><path d="m141.58 753.1 1.0797 123.1 686.24 0.9853-1.0797-121.44z" fill="#c8beb7"/><path d="m435.95 765.2 156.19-1.1744 4.2179-26.816-165.09 1.1504z" fill="#d45500" stroke-width="1.01"/><path d="m433 729.5-11.21 25.328 14.159 10.396 5.771-18.285 6.6432-7.0583 1.2456 16.608 17.023 14.532v-24.496l13.286-4.9824 12.456 14.117 8.304 17.854 8.304-24.912 4.152-7.8888 14.117 31.97 17.854-24.496 5.3976 12.041 13.702-17.023 13.702 27.403 9.1344-27.818 5.0994 21.264 10.263-17.111-13.199-16.946-127.14-1.7381c-12.71-2.9759-29.064 1.2457-29.064 1.2457z" fill="#450" stroke-width="1.01"/><path d="m428.03 767.4-2.6673-5.8407-4.4833 4.5966 1.2752-6.293-6.3289 1.0836 4.7306-4.3416-5.757-2.8434 6.3791-0.7319-2.9862-5.6842 5.591 3.1574 0.92521-6.3539 2.6673 5.8406 4.4833-4.5966-1.2752 6.293 6.3289-1.0835-4.7306 4.3415 5.757 2.8435-6.3791 0.7319 2.9862 5.6842-5.591-3.1574z" fill="#d50000" stroke-width="1.01" style="paint-order:normal"/><path d="m499.42 778.8-2.6673-5.8407-4.4833 4.5966 1.2752-6.293-6.3289 1.0836 4.7306-4.3416-5.757-2.8434 6.3791-0.732-2.9862-5.6842 5.591 3.1574 0.92522-6.3539 2.6673 5.8407 4.4833-4.5966-1.2752 6.293 6.3289-1.0836-4.7306 4.3416 5.757 2.8434-6.3791 0.7319 2.9862 5.6843-5.591-3.1575z" fill="#a00" stroke-width="1.01" style="paint-order:normal"/><path d="m559.23 747.5-2.6673-5.8406-4.4833 4.5966 1.2752-6.293-6.3289 1.0835 4.7306-4.3415-5.757-2.8435 6.3791-0.7319-2.9862-5.6842 5.591 3.1574 0.92522-6.3539 2.6673 5.8407 4.4833-4.5966-1.2752 6.293 6.3289-1.0836-4.7306 4.3416 5.757 2.8434-6.3791 0.7319 2.9862 5.6842-5.591-3.1574z" fill="#eb0000" stroke-width="1.01" style="paint-order:normal"/><path d="m577.84 771.1-2.6673-5.8406-4.4833 4.5966 1.2752-6.2931-6.3289 1.0836 4.7306-4.3416-5.757-2.8434 6.3791-0.7319-2.9862-5.6842 5.591 3.1574 0.92521-6.3539 2.6673 5.8407 4.4833-4.5966-1.2752 6.293 6.3289-1.0835-4.7306 4.3416 5.757 2.8434-6.3791 0.7319 2.9862 5.6842-5.591-3.1574z" fill="#a00" stroke-width="1.01" style="paint-order:normal"/><path d="m453.35 749.1-2.6673-5.8407-4.4833 4.5966 1.2752-6.293-6.3289 1.0836 4.7306-4.3416-5.757-2.8434 6.3791-0.732-2.9862-5.6842 5.591 3.1574 0.92521-6.3539 2.6673 5.8407 4.4833-4.5966-1.2752 6.293 6.3289-1.0836-4.7306 4.3416 5.757 2.8434-6.3791 0.7319 2.9862 5.6843-5.591-3.1575z" fill="#b49000" stroke-width="1.01" style="paint-order:normal"/><path d="m526.01 774.9-2.6673-5.8406-4.4833 4.5966 1.2752-6.293-6.3289 1.0835 4.7306-4.3415-5.757-2.8435 6.3791-0.7319-2.9862-5.6842 5.591 3.1574 0.92522-6.3539 2.6673 5.8407 4.4833-4.5966-1.2752 6.293 6.3289-1.0836-4.7306 4.3416 5.757 2.8434-6.3791 0.7319 2.9862 5.6842-5.591-3.1574z" fill="#e3b700" stroke-width="1.01" style="paint-order:normal"/><path d="m599.5 759.1-2.6673-5.8407-4.4833 4.5966 1.2752-6.293-6.3289 1.0835 4.7306-4.3416-5.757-2.8434 6.3791-0.7319-2.9862-5.6842 5.591 3.1574 0.9252-6.3539 2.6673 5.8406 4.4833-4.5966-1.2752 6.293 6.3289-1.0835-4.7306 4.3415 5.757 2.8435-6.3791 0.7319 2.9862 5.6842-5.591-3.1574z" fill="#f9c800" stroke-width="1.01" style="paint-order:normal"/><path d="m488.01 743-2.6673-5.8406-4.4833 4.5966 1.2752-6.293-6.3289 1.0835 4.7306-4.3415-5.757-2.8435 6.3791-0.7319-2.9862-5.6842 5.591 3.1574 0.92522-6.3539 2.6673 5.8407 4.4833-4.5966-1.2752 6.293 6.3289-1.0836-4.7306 4.3416 5.757 2.8434-6.3791 0.7319 2.9862 5.6842-5.591-3.1574z" fill="#f2c200" stroke-width="1.01" style="paint-order:normal"/><path d="m462.03 772.4-2.6673-5.8407-4.4833 4.5966 1.2752-6.293-6.3289 1.0836 4.7306-4.3416-5.757-2.8434 6.3791-0.732-2.9862-5.6842 5.591 3.1574 0.9252-6.3539 2.6673 5.8407 4.4833-4.5966-1.2752 6.293 6.3289-1.0836-4.7306 4.3416 5.757 2.8434-6.3791 0.7319 2.9862 5.6843-5.591-3.1575z" fill="#ceff08" stroke-width="1.01" style="paint-order:normal"/><path d="m519.58 748.9-2.6673-5.8407-4.4833 4.5966 1.2752-6.293-6.3289 1.0836 4.7306-4.3416-5.757-2.8434 6.3791-0.7319-2.9862-5.6843 5.591 3.1575 0.92521-6.354 2.6673 5.8407 4.4833-4.5966-1.2752 6.293 6.3289-1.0836-4.7306 4.3416 5.757 2.8434-6.3791 0.732 2.9862 5.6842-5.591-3.1574z" fill="#aad400" stroke-width="1.01" style="paint-order:normal"/><path d="m551.13 768.1-2.6673-5.8407-4.4833 4.5966 1.2752-6.293-6.3289 1.0836 4.7306-4.3416-5.757-2.8434 6.3791-0.7319-2.9862-5.6843 5.591 3.1575 0.9252-6.354 2.6673 5.8407 4.4833-4.5966-1.2752 6.293 6.3289-1.0836-4.7306 4.3416 5.757 2.8434-6.3791 0.7319 2.9862 5.6843-5.591-3.1575z" fill="#aad400" stroke-width="1.01" style="paint-order:normal"/><path d="m581.23 745.4-2.6673-5.8406-4.4833 4.5966 1.2752-6.293-6.3289 1.0835 4.7306-4.3415-5.757-2.8435 6.3791-0.7319-2.9862-5.6842 5.591 3.1574 0.92521-6.3539 2.6673 5.8407 4.4833-4.5966-1.2752 6.293 6.3289-1.0836-4.7306 4.3416 5.757 2.8434-6.3791 0.7319 2.9862 5.6842-5.591-3.1574z" fill="#81a000" stroke-width="1.01" style="paint-order:normal"/><path d="m636.96 625.3s79.963-7.982 165.53-1.1386c0 0 10.197 60.929 0 110.44 0 0-76.859 7.1887-165.09 1.1504 0 0-9.7542-58.526-0.44335-110.46z" fill="#803300" stroke-width="1.01"/><g transform="matrix(1.01 0 0 1.01 191.74 1372)"><path d="m452.34-730.8-4.829 44.243 72.875-2.7901v-44.642z"/><path d="m446.63-678.19 1.756 42.25 71.119-0.79708v-44.642z"/><path d="m529.6-679.78-1.317 43.844 69.363-2.3915 1.756-44.243z"/><path d="m529.6-735.98 0.4393 45.837 70.241-0.79715-3.073-42.649z"/></g><path d="m642.09 762.6 156.19-1.1743 4.2179-26.816-165.09 1.1505z" fill="#d45500" stroke-width="1.01"/><path d="m639.14 726.9-11.21 25.328 14.159 10.396 5.771-18.285 6.6432-7.0584 1.2456 16.608 17.023 14.532v-24.496l13.286-4.9824 12.456 14.117 8.304 17.854 8.304-24.912 4.152-7.8888 14.117 31.97 17.854-24.496 5.3976 12.041 13.702-17.023 13.702 27.403 9.1344-27.818 5.0994 21.264 10.263-17.111-13.199-16.946-127.14-1.738c-12.71-2.976-29.064 1.2456-29.064 1.2456z" fill="#450" stroke-width="1.01"/><path d="m634.16 764.8-2.6673-5.8406-4.4833 4.5966 1.2752-6.2931-6.3289 1.0836 4.7306-4.3416-5.757-2.8434 6.3791-0.7319-2.9862-5.6842 5.591 3.1574 0.92521-6.3539 2.6673 5.8407 4.4833-4.5966-1.2752 6.293 6.3289-1.0836-4.7306 4.3416 5.757 2.8434-6.3791 0.7319 2.9862 5.6842-5.591-3.1574z" fill="#ffd42a" stroke-width="1.01" style="paint-order:normal"/><path d="m705.56 776.1-2.6673-5.8407-4.4833 4.5966 1.2752-6.293-6.3289 1.0836 4.7306-4.3416-5.757-2.8434 6.3791-0.7319-2.9862-5.6842 5.591 3.1574 0.92522-6.3539 2.6673 5.8406 4.4833-4.5966-1.2752 6.293 6.3289-1.0835-4.7306 4.3415 5.757 2.8435-6.3791 0.7319 2.9862 5.6842-5.591-3.1574z" fill="#a80" stroke-width="1.01" style="paint-order:normal"/><path d="m765.37 744.9-2.6673-5.8407-4.4833 4.5966 1.2752-6.293-6.3289 1.0836 4.7306-4.3416-5.757-2.8434 6.3791-0.7319-2.9862-5.6843 5.591 3.1575 0.92522-6.354 2.6673 5.8407 4.4833-4.5966-1.2752 6.293 6.3289-1.0836-4.7306 4.3416 5.757 2.8434-6.3791 0.7319 2.9862 5.6843-5.591-3.1575z" fill="#fc0" stroke-width="1.01" style="paint-order:normal"/><path d="m783.98 768.5-2.6673-5.8406-4.4833 4.5966 1.2752-6.293-6.3289 1.0836 4.7306-4.3416-5.757-2.8434 6.3791-0.732-2.9862-5.6842 5.591 3.1574 0.92522-6.3539 2.6673 5.8407 4.4833-4.5966-1.2752 6.293 6.3289-1.0835-4.7306 4.3416 5.757 2.8434-6.3791 0.7319 2.9862 5.6843-5.591-3.1575z" fill="#a00" stroke-width="1.01" style="paint-order:normal"/><path d="m659.48 746.5-2.6673-5.8407-4.4833 4.5966 1.2752-6.293-6.3289 1.0836 4.7306-4.3416-5.757-2.8434 6.3791-0.7319-2.9862-5.6842 5.591 3.1574 0.92522-6.3539 2.6673 5.8406 4.4833-4.5966-1.2752 6.293 6.3289-1.0835-4.7306 4.3415 5.757 2.8435-6.3791 0.7319 2.9862 5.6842-5.591-3.1574z" fill="#fc0" stroke-width="1.01" style="paint-order:normal"/><path d="m732.15 772.3-2.6673-5.8407-4.4833 4.5966 1.2752-6.293-6.3289 1.0836 4.7306-4.3416-5.757-2.8434 6.3791-0.7319-2.9862-5.6843 5.591 3.1575 0.92522-6.354 2.6673 5.8407 4.4833-4.5966-1.2752 6.293 6.3289-1.0836-4.7306 4.3416 5.757 2.8434-6.3791 0.732 2.9862 5.6842-5.591-3.1574z" fill="#e3b700" stroke-width="1.01" style="paint-order:normal"/><path d="m805.63 756.5-2.6673-5.8406-4.4833 4.5966 1.2752-6.2931-6.3289 1.0835 4.7306-4.3416-5.757-2.8434 6.3791-0.7319-2.9862-5.6842 5.591 3.1574 0.92521-6.3539 2.6673 5.8406 4.4833-4.5966-1.2752 6.2931 6.3289-1.0836-4.7306 4.3416 5.757 2.8434-6.3791 0.7319 2.9862 5.6842-5.591-3.1574z" fill="#d40000" stroke-width="1.01" style="paint-order:normal"/><path d="m694.14 740.4-2.6673-5.8407-4.4833 4.5966 1.2752-6.293-6.3289 1.0836 4.7306-4.3416-5.757-2.8434 6.3791-0.7319-2.9862-5.6843 5.591 3.1575 0.92522-6.354 2.6673 5.8407 4.4833-4.5966-1.2752 6.293 6.3289-1.0836-4.7306 4.3416 5.757 2.8434-6.3791 0.732 2.9862 5.6842-5.591-3.1574z" fill="#808000" stroke-width="1.01" style="paint-order:normal"/><path d="m668.17 769.8-2.6673-5.8407-4.4833 4.5966 1.2752-6.293-6.3289 1.0836 4.7306-4.3416-5.757-2.8434 6.3791-0.7319-2.9862-5.6842 5.591 3.1574 0.9252-6.3539 2.6673 5.8406 4.4833-4.5966-1.2752 6.293 6.3289-1.0835-4.7306 4.3415 5.757 2.8435-6.3791 0.7319 2.9862 5.6842-5.591-3.1574z" fill="#d40000" stroke-width="1.01" style="paint-order:normal"/><path d="m725.72 746.3-2.6673-5.8407-4.4833 4.5966 1.2752-6.293-6.3289 1.0836 4.7306-4.3416-5.757-2.8434 6.3791-0.7319-2.9862-5.6842 5.591 3.1574 0.92521-6.3539 2.6673 5.8406 4.4833-4.5966-1.2752 6.293 6.3289-1.0835-4.7306 4.3415 5.757 2.8435-6.3791 0.7319 2.9862 5.6842-5.591-3.1574z" fill="#d40000" stroke-width="1.01" style="paint-order:normal"/><path d="m757.27 765.5-2.6673-5.8407-4.4833 4.5966 1.2752-6.293-6.3289 1.0836 4.7306-4.3416-5.757-2.8434 6.3791-0.7319-2.9862-5.6842 5.591 3.1574 0.92521-6.3539 2.6673 5.8406 4.4833-4.5966-1.2752 6.293 6.3289-1.0835-4.7306 4.3415 5.757 2.8435-6.3791 0.7319 2.9862 5.6842-5.591-3.1574z" fill="#cf0" stroke-width="1.01" style="paint-order:normal"/><path d="m787.36 742.8-2.6673-5.8407-4.4833 4.5966 1.2752-6.293-6.3289 1.0836 4.7306-4.3416-5.757-2.8434 6.3791-0.732-2.9862-5.6842 5.591 3.1574 0.92521-6.3539 2.6673 5.8407 4.4833-4.5966-1.2752 6.293 6.3289-1.0836-4.7306 4.3416 5.757 2.8434-6.3791 0.7319 2.9862 5.6843-5.591-3.1575z" fill="#fc0" stroke-width="1.01" style="paint-order:normal"/><path d="m229.35 640.8s116.99-16.146 220.65-126.89l3.2546 4.5532c-104.62 108.74-227.09 130.33-227.09 130.33z" fill="#808080"/><rect x="185.98" y="640.8" width="43.377" height="54.37" fill="#b3b3b3" style="paint-order:normal"/><path d="m711.61 431.4c-107.35 85.371-254.28 82.598-254.28 82.598l-0.2379 6.8148s131.97 4.9846 261.43-83.213z" fill="#808080"/><rect x="711.61" y="431.4" width="43.377" height="54.37" fill="#b3b3b3" style="paint-order:normal"/><path d="m450.01 577v-63.058h7.3265l0.50968 63.094z" fill="#b3b3b3"/><path d="m350.92 608.3 2.1534-15.703 3.8174-1.3496 1.8593 17.062z" fill="#b3b3b3"/><rect x="337.41" y="607.4" width="35.027" height="23.259" fill="#ff7272" style="paint-order:normal"/><path d="m278.66 152.94 13.839-113.88-22.047 0.51584 33.204-22.209 27.544 33.469-22.902-9.801-13.073 111.9z" fill="#6c5353"/></svg>
