<svg width="1e3mm" height="973.91mm" version="1.1" viewBox="0 0 1e3 973.91" xmlns="http://www.w3.org/2000/svg"><path d="m256.67 308.13 13.839-113.88-22.047 0.51584 33.204-22.209 27.544 33.469-22.902-9.801-13.073 111.9z" fill="#6c5353"/><path d="m47.823 329.33-39.937-1.142-0.59196-29.627 816.03 0.31547 0.4437 32.215-121.11 0.074-0.57813 131.03-115.09-0.0127-2.0653 385.39 240.05-0.33743-2.0607 115.33-772.23 0.24352z" fill="#483e37" stroke-width=".82926"/><path d="m456.6 401.11h155.16v-68.753l-155.16-1.1958z" fill="#a7988d"/><path d="m49.51 571.2h58.11v-110.91l-58.11-1.9288z" fill="#b3a59c" stroke-width=".83222"/><path d="m50.474 764.1h57.078v-180.1l-57.078-3.1323z" fill="#b4a79e" stroke-width=".8248"/><path d="m48.545 875.8h61.205v-104.44l-61.205-1.8163z" fill="#a8998d" stroke-width=".8541"/><path d="m529.12 633.87h62.959v-161.36l-62.959-2.8061z" fill="#b9ada4" stroke-width=".85036"/><path d="m529.43 771.55h62.958v-126.39l-62.958-2.198z" fill="#9e8c81" stroke-width=".90324"/><path d="m529.02 878.29h62.958v-98.892l-62.958-1.7199z" fill="#bcafa7" stroke-width=".95331"/><path d="m469.49 973.9h161.64v-85.674l-161.64-1.4899z" fill="#99877a"/><path d="m361.75 971.2h97.541v-85.674l-97.541-1.49z" fill="#a59589"/><path d="m153.07 971.2h198.47v-85.674l-198.47-1.49z" fill="#79685c"/><path d="m639.97 969.9h195.74v-85.674l-195.74-1.49z" fill="#857365"/><path d="m47.606 451.94h61.205v-127.12l-61.205-2.2107z" fill="#927e71" stroke-width=".93076"/><path d="m3.729 971.2h137.09v-85.674l-137.09-1.49z" fill="#8d7a6c"/><path d="m621.68 400.31h160.11v-71.711l-160.11-1.2471z" fill="#937e70" stroke-width=".88047"/><path d="m319.96 395.42h129.52v-64.809l-129.52-1.127z" fill="#8c7868" stroke-width="1.1523"/><path d="m115.42 397.48h198.47v-68.753l-198.47-1.1958z" fill="#ac9d92"/><path d="m116.18 411.8 1.5856 341.31 403.13 2.6465 0.73712-347.45z" fill="#e3dedb" stroke-width=".76645"/><path d="m181.93 570.3 86.434-24.206 40.745-36.238 63.797-22.397 56.631-1.8449 28.62-26.277 40.339-7.6825-32.124 43.436-46.443 26.543-70.674 18.302-125.37 59.393-79.26-20.473z" fill="#e0af8e" stroke-width=".56153"/><path d="m240.61 637.13s79.963-7.9821 165.53-1.1386c0 0 10.197 60.929 0 110.44 0 0-76.859 7.1887-165.09 1.1504 0 0-9.7542-58.526-0.44336-110.46z" fill="#803300" stroke-width="1.01"/><g transform="matrix(1.01 0 0 1.01 -204.61 1383.9)"><path d="m452.34-730.8-4.829 44.243 72.875-2.7901v-44.642z"/><path d="m446.63-678.19 1.756 42.25 71.119-0.79708v-44.642z"/><path d="m529.6-679.78-1.317 43.844 69.363-2.3915 1.756-44.243z"/><path d="m529.6-735.98 0.4393 45.837 70.241-0.79715-3.073-42.649z"/></g><path d="m117.42 753.1 0.63468 123.1 403.4 0.9853-0.63468-121.44z" fill="#c8beb7" stroke-width=".76671"/><path d="m245.74 774.43 156.19-1.1744 4.2179-26.816-165.09 1.1504z" fill="#d45500" stroke-width="1.01"/><path d="m242.79 738.73-11.21 25.328 14.159 10.396 5.771-18.285 6.6432-7.0583 1.2456 16.608 17.023 14.532v-24.496l13.286-4.9824 12.456 14.117 8.304 17.854 8.304-24.912 4.152-7.8888 14.117 31.97 17.854-24.496 5.3976 12.041 13.702-17.023 13.702 27.403 9.1344-27.818 5.0994 21.264 10.263-17.111-13.199-16.946-127.14-1.7381c-12.71-2.9759-29.064 1.2457-29.064 1.2457z" fill="#450" stroke-width="1.01"/><path d="m237.82 776.63-2.6673-5.8407-4.4833 4.5966 1.2752-6.293-6.3289 1.0836 4.7306-4.3416-5.757-2.8434 6.3791-0.7319-2.9862-5.6842 5.591 3.1574 0.92521-6.3539 2.6673 5.8406 4.4833-4.5966-1.2752 6.293 6.3289-1.0835-4.7306 4.3415 5.757 2.8435-6.3791 0.7319 2.9862 5.6842-5.591-3.1574z" fill="#d50000" stroke-width="1.01" style="paint-order:normal"/><path d="m309.21 788.03-2.6673-5.8407-4.4833 4.5966 1.2752-6.293-6.3289 1.0836 4.7306-4.3416-5.757-2.8434 6.3791-0.732-2.9862-5.6842 5.591 3.1574 0.92522-6.3539 2.6673 5.8407 4.4833-4.5966-1.2752 6.293 6.3289-1.0836-4.7306 4.3416 5.757 2.8434-6.3791 0.7319 2.9862 5.6843-5.591-3.1575z" fill="#a00" stroke-width="1.01" style="paint-order:normal"/><path d="m369.02 756.73-2.6673-5.8406-4.4833 4.5966 1.2752-6.293-6.3289 1.0835 4.7306-4.3415-5.757-2.8435 6.3791-0.7319-2.9862-5.6842 5.591 3.1574 0.92522-6.3539 2.6673 5.8407 4.4833-4.5966-1.2752 6.293 6.3289-1.0836-4.7306 4.3416 5.757 2.8434-6.3791 0.7319 2.9862 5.6842-5.591-3.1574z" fill="#eb0000" stroke-width="1.01" style="paint-order:normal"/><path d="m387.63 780.33-2.6673-5.8406-4.4833 4.5966 1.2752-6.2931-6.3289 1.0836 4.7306-4.3416-5.757-2.8434 6.3791-0.7319-2.9862-5.6842 5.591 3.1574 0.92521-6.3539 2.6673 5.8407 4.4833-4.5966-1.2752 6.293 6.3289-1.0835-4.7306 4.3416 5.757 2.8434-6.3791 0.7319 2.9862 5.6842-5.591-3.1574z" fill="#a00" stroke-width="1.01" style="paint-order:normal"/><path d="m263.14 758.33-2.6673-5.8407-4.4833 4.5966 1.2752-6.293-6.3289 1.0836 4.7306-4.3416-5.757-2.8434 6.3791-0.732-2.9862-5.6842 5.591 3.1574 0.92521-6.3539 2.6673 5.8407 4.4833-4.5966-1.2752 6.293 6.3289-1.0836-4.7306 4.3416 5.757 2.8434-6.3791 0.7319 2.9862 5.6843-5.591-3.1575z" fill="#b49000" stroke-width="1.01" style="paint-order:normal"/><path d="m335.8 784.13-2.6673-5.8406-4.4833 4.5966 1.2752-6.293-6.3289 1.0835 4.7306-4.3415-5.757-2.8435 6.3791-0.7319-2.9862-5.6842 5.591 3.1574 0.92522-6.3539 2.6673 5.8407 4.4833-4.5966-1.2752 6.293 6.3289-1.0836-4.7306 4.3416 5.757 2.8434-6.3791 0.7319 2.9862 5.6842-5.591-3.1574z" fill="#e3b700" stroke-width="1.01" style="paint-order:normal"/><path d="m409.29 768.33-2.6673-5.8407-4.4833 4.5966 1.2752-6.293-6.3289 1.0835 4.7306-4.3416-5.757-2.8434 6.3791-0.7319-2.9862-5.6842 5.591 3.1574 0.9252-6.3539 2.6673 5.8406 4.4833-4.5966-1.2752 6.293 6.3289-1.0835-4.7306 4.3415 5.757 2.8435-6.3791 0.7319 2.9862 5.6842-5.591-3.1574z" fill="#f9c800" stroke-width="1.01" style="paint-order:normal"/><path d="m297.8 752.23-2.6673-5.8406-4.4833 4.5966 1.2752-6.293-6.3289 1.0835 4.7306-4.3415-5.757-2.8435 6.3791-0.7319-2.9862-5.6842 5.591 3.1574 0.92522-6.3539 2.6673 5.8407 4.4833-4.5966-1.2752 6.293 6.3289-1.0836-4.7306 4.3416 5.757 2.8434-6.3791 0.7319 2.9862 5.6842-5.591-3.1574z" fill="#f2c200" stroke-width="1.01" style="paint-order:normal"/><path d="m271.82 781.63-2.6673-5.8407-4.4833 4.5966 1.2752-6.293-6.3289 1.0836 4.7306-4.3416-5.757-2.8434 6.3791-0.732-2.9862-5.6842 5.591 3.1574 0.9252-6.3539 2.6673 5.8407 4.4833-4.5966-1.2752 6.293 6.3289-1.0836-4.7306 4.3416 5.757 2.8434-6.3791 0.7319 2.9862 5.6843-5.591-3.1575z" fill="#ceff08" stroke-width="1.01" style="paint-order:normal"/><path d="m329.37 758.13-2.6673-5.8407-4.4833 4.5966 1.2752-6.293-6.3289 1.0836 4.7306-4.3416-5.757-2.8434 6.3791-0.7319-2.9862-5.6843 5.591 3.1575 0.92521-6.354 2.6673 5.8407 4.4833-4.5966-1.2752 6.293 6.3289-1.0836-4.7306 4.3416 5.757 2.8434-6.3791 0.732 2.9862 5.6842-5.591-3.1574z" fill="#aad400" stroke-width="1.01" style="paint-order:normal"/><path d="m360.92 777.33-2.6673-5.8407-4.4833 4.5966 1.2752-6.293-6.3289 1.0836 4.7306-4.3416-5.757-2.8434 6.3791-0.7319-2.9862-5.6843 5.591 3.1575 0.9252-6.354 2.6673 5.8407 4.4833-4.5966-1.2752 6.293 6.3289-1.0836-4.7306 4.3416 5.757 2.8434-6.3791 0.7319 2.9862 5.6843-5.591-3.1575z" fill="#aad400" stroke-width="1.01" style="paint-order:normal"/><path d="m391.02 754.63-2.6673-5.8406-4.4833 4.5966 1.2752-6.293-6.3289 1.0835 4.7306-4.3415-5.757-2.8435 6.3791-0.7319-2.9862-5.6842 5.591 3.1574 0.92521-6.3539 2.6673 5.8407 4.4833-4.5966-1.2752 6.293 6.3289-1.0836-4.7306 4.3416 5.757 2.8434-6.3791 0.7319 2.9862 5.6842-5.591-3.1574z" fill="#81a000" stroke-width="1.01" style="paint-order:normal"/><path d="m183.38 545.17s66.657-8.9355 125.72-70.223l1.8544 2.5198c-59.609 60.179-129.39 72.127-129.39 72.127z" fill="#808080" stroke-width=".56153"/><rect x="158.67" y="545.17" width="24.715" height="30.089" fill="#b3b3b3" stroke-width=".56153" style="paint-order:normal"/><path d="m458.16 429.28c-61.165 47.246-144.88 45.711-144.88 45.711l-0.13554 3.7714s75.192 2.7586 148.95-46.052z" fill="#808080" stroke-width=".56153"/><rect x="458.16" y="429.28" width="24.715" height="30.089" fill="#b3b3b3" stroke-width=".56153" style="paint-order:normal"/><path d="m309.11 509.86v-34.897h4.1744l0.2904 34.917z" fill="#b3b3b3" stroke-width=".56153"/><path d="m251.68 532.42 2.1534-15.703 3.8174-1.3496 1.8593 17.062z" fill="#b3b3b3"/><rect x="244.95" y="526.69" width="19.957" height="12.872" fill="#ff7272" stroke-width=".56153" style="paint-order:normal"/><path d="m607.46 414.89 0.47659 78.706 9.8318-10.58 24.761 0.4396 9.2078 10.643v-79.112l-9.2078 11.808-25.034-0.6306z" fill="#ccc"/><path d="m617.49 426.19 0.27275 56.852 24.761 0.4396v-56.773z" fill="#535353"/><path d="m529.55 462.45h177.48v-53.747l-177.48-0.93473z" fill="#a39488" stroke-width=".94035"/></svg>
