<svg width="1e3mm" height="1e3mm" version="1.1" viewBox="0 0 1e3 1e3" xmlns="http://www.w3.org/2000/svg">
    <g transform="translate(398.17 377.26)">
        <path d="m70.52 149.51s-303.89-364.37-417.07-30.994c-24.19-234.35 113.18-333.37 113.18-333.37s99.345-153.21 335.2-112.39c-335.2 112.39 32.191 423.85 32.191 423.85z"
              fill="#241f1c"/>
        <path transform="matrix(.26458 0 0 .26458 -398.17 -377.26)"
              d="m1889.8 0c-498.35 0.13112-976.47 197.11-1330.3 548.05s-554.7 827.44-558.91 1325.8h194.53c4.2038-447.24 184.41-874.83 501.59-1190.2 317.18-315.34 745.82-493.04 1193.1-494.63z"
              style="paint-order:normal"/>
        <path d="m133.14 149.51s303.89-364.37 417.07-30.994c24.19-234.35-113.18-333.37-113.18-333.37s-99.345-153.21-335.2-112.39c335.2 112.39-32.191 423.85-32.191 423.85z"
              fill="#241c1c"/>
        <path d="m101.83-377.26c131.85 0.0347 258.36 52.151 351.97 145s146.76 218.93 147.88 350.78h-51.469c-1.1123-118.33-48.792-231.46-132.71-314.9-83.922-83.433-197.33-130.45-315.67-130.87z"
              style="paint-order:normal"/>
        <path d="m70.52 87.526s-303.89 364.37-417.07 30.994c-24.19 234.35 113.18 333.37 113.18 333.37s99.345 153.21 335.2 112.39c-335.2-112.39 32.191-423.85 32.191-423.85z"
              fill="#241c1c"/>
        <path d="m101.83 614.3c-131.85-0.0347-258.36-52.151-351.97-145s-146.76-218.93-147.88-350.78h51.469c1.1123 118.33 48.792 231.46 132.71 314.9 83.922 83.433 197.33 130.45 315.67 130.87z"
              style="paint-order:normal"/>
        <path d="m133.14 87.526s303.89 364.37 417.07 30.994c24.19 234.35-113.18 333.37-113.18 333.37s-99.345 153.21-335.2 112.39c335.2-112.39-32.191-423.85-32.191-423.85z"
              fill="#241c1c"/>
        <circle cx="101.83" cy="122.74" r="100" fill="#2b1100" style="paint-order:normal"/>
        <path d="m101.83 614.3c131.85-0.0347 258.36-52.151 351.97-145s146.76-218.93 147.88-350.78h-51.469c-1.1123 118.33-48.792 231.46-132.71 314.9-83.922 83.433-197.33 130.45-315.67 130.87z"
              style="paint-order:normal"/>
    </g>
</svg>
