<svg width="1e3mm" height="2771.5mm" version="1.1" viewBox="0 0 1e3 2771.5" xmlns="http://www.w3.org/2000/svg"><path d="m55.809 845.33 448.2-5.6509 1.5883-294.63 63.402-124.55 64.326-96.008 69.597-0.97921 2.2604-31.567-653.98 2.4202z" fill="#520" stroke-width=".96273"/><path d="m785.48 862.61-197.78 223.78 2.2604 24.864 218.13-248.64z" fill="#251f1c"/><path d="m14.192 841.59 796.68-6.7755-1.1302 39.102-200.01 3.3909 3.3575 1879.9-595.42 5.8814z" fill="#483e37" stroke-width=".93519"/><path d="m224.04 353.6 2.8647 121.27 76.391-1.9098-1.9098-120.32z" fill="#232323"/><path d="m302.84 451.6-28.401 0.1795v-13.607l28.192-0.1375z" fill="#808080"/><path d="m43.873 442.7h60.699v-136.34l-60.699-2.3711z" fill="#9e8c81" stroke-width="1.0741"/><path d="m47.693 560.2h56.704v-109.81l-56.704-1.9098z" fill="#a7978c" stroke-width=".82617"/><path d="m48.648 751.2h55.904v-178.33l-55.904-3.1014z" fill="#8b796b" stroke-width=".82032"/><path d="m46.738 861.8h59.101v-103.41l-59.101-1.7984z" fill="#a59589" stroke-width=".84345"/><path d="m252.69 289.95 13.839-113.88-22.047 0.51584 33.204-22.209 27.544 33.469-22.902-9.801-13.073 111.9z" fill="#6c5353"/><path d="m18.465 298.46h721.7v-19.369l-721.7-0.3369z" fill="#483e37" stroke-width="1.0303"/><path d="m171.64 641.9-2.5971-335.66h52.807l-0.86567 334.94z" fill="#993d00" stroke-width=".75687"/><path d="m305.29 687.7-2.791-380.7h56.752l-0.93033 379.88z" fill="#943b00" stroke-width=".70908"/><path d="m463.53 958.9h154.4v-84.83l-154.4-1.4753z" fill="#99877a" stroke-width=".98219"/><path d="m356.85 956.2h96.58v-84.83l-96.58-1.4753z" fill="#a59589"/><path d="m150.24 956.2h196.51v-84.83l-196.51-1.4753z" fill="#79685c"/><path d="m238.04 401.3 1.0111 69.586 43.266 0.5345v-70.025l-9.2078 11.808-25.034-0.6306z" fill="#ccc"/><path d="m248.07 412.6 0.27275 62.637 24.761 0.5345v-62.541z" fill="#5b5b5b"/><path d="m231.12 856.72-3.2211-387.9h65.495l-1.0737 387.06z" fill="#7a3000" stroke-width=".96415"/><path d="m231.12 355.6-3.2211-48.724h65.495l-1.0737 48.618z" fill="#732e00" stroke-width=".74123"/><path d="m631.61 447.1-68.507 0.1795v-13.607l68.002-0.1375z" fill="#808080"/><path d="m514.24 536.4 1.6209-229.3h61.798l-2.6102 135.39z" fill="#903900" stroke-width=".95335"/><path d="m581.54 413.5 1.5053-105.87 54.692-1.4681 0.23494 21.485z" fill="#803300" stroke-width=".85135"/><path d="m643.2 326.81 2.9852-21.06h61.782l-1.0129 21.298z" fill="#923a00" stroke-width=".58965"/><path d="m303.75 862.04-2.9022-161.69h59.013l-0.96738 161.34z" fill="#783000" stroke-width=".70827"/><path d="m172.83 851.96-2.5971-199.28h52.807l-0.86567 198.85z" fill="#973b00" stroke-width=".73246"/><path d="m2.363 956.2h135.74v-84.83l-135.74-1.4753z" fill="#8d7a6c"/><path d="m5.064 1050.8h222.17v-84.83l-222.17-1.4753z" fill="#8a7668"/><path d="m238.69 1048.1h89.828v-84.83l-89.828-1.4753z" fill="#988577"/><path d="m338.62 1050.8h178.96v-84.83l-178.96-1.4753z" fill="#7d6c5f"/><path d="m527.68 1052.1h89.855v-84.83l-89.855-1.4752z" fill="#9e8c7f" stroke-width=".6088"/><path d="m3.038 1145.3h83.076v-84.83l-83.076-1.4753z" fill="#a18f83"/><path d="m97.568 1145.3h183.01v-84.83l-183.01-1.4753z" fill="#988476"/><path d="m290.68 1143.9h206.83v-84.83l-206.83-1.4752z" fill="#756458" stroke-width=".88058"/><path d="m507.62 1145.3h110.89v-84.83l-110.89-1.4753z" fill="#8a7668" stroke-width="1.1746"/><path d="m490.91 1244.6h-160.05v-84.83l160.05-1.4752z" fill="#99877a"/><path d="m615.67 1241.9h-114.66v-84.83l114.66-1.4753z" fill="#a59589" stroke-width="1.0896"/><path d="m322.1 1240.5h-193.81v-84.83l193.81-1.4752z" fill="#857365"/><path d="m118.19 1236.5h-115.49v-84.83l115.49-1.4753z" fill="#988577"/><path d="m615.82 1336.4h-178.96v-84.83l178.96-1.4752z" fill="#7d6c5f"/><path d="m426.76 1337.7h-242.43v-84.83l242.43-1.4753z" fill="#9e8c7f"/><path d="m175.58 1335h-172.2v-84.83l172.2-1.4753z" fill="#a8988d"/><path d="m619.68 1429.6h-222.65v-84.83l222.65-1.4753z" fill="#947f71" stroke-width=".91365"/><path d="m386.92 1430.9h-80.375v-84.83l80.375-1.4753z" fill="#8a7668"/><path d="m296.44 1432.3h-160.05v-84.83l160.05-1.4753z" fill="#7a685c"/><path d="m127.64 1429.6h-127.64v-84.83l127.64-1.4753z" fill="#79695c"/><path d="m3.207 1629.9h83.076v84.83l-83.076 1.4753z" fill="#a18f83"/><path d="m97.738 1629.9h183.01v84.83l-183.01 1.4753z" fill="#8a7668"/><path d="m290.85 1631.2h239.61v84.83l-239.61 1.4753z" fill="#756458" stroke-width=".94779"/><path d="m541.69 1629.9h78.115v84.83l-78.115 1.4753z" fill="#8a7668" stroke-width=".98584"/><path d="m491.07 1530.6h-160.05v84.83l160.05 1.4753z" fill="#99877a"/><path d="m616.97 1533.3h-115.79v84.83l115.79 1.4753z" fill="#a59589" stroke-width="1.095"/><path d="m322.27 1534.7h-193.81v84.83l193.81 1.4753z" fill="#857365"/><path d="m118.36 1538.7h-115.49v84.83l115.49 1.4753z" fill="#988577"/><path d="m615.99 1438.8h-178.96v84.83l178.96 1.4753z" fill="#7d6c5f"/><path d="m426.93 1437.4h-242.43v84.83l242.43 1.4753z" fill="#9e8c7f"/><path d="m175.75 1440.2h-172.2v84.83l172.2 1.4753z" fill="#a8988d"/><path d="m621.39 1814.1h-178.96v-84.83l178.96-1.4753z" fill="#7d6c5f"/><path d="m432.33 1815.4h-242.43v-84.83l242.43-1.4753z" fill="#9e8c7f"/><path d="m181.15 1812.8h-172.2v-84.83l172.2-1.4753z" fill="#a8988d"/><path d="m621.86 1907.3h-219.26v-84.83l219.26-1.4753z" fill="#756458" stroke-width=".90666"/><path d="m392.49 1908.6h-80.375v-84.83l80.375-1.4753z" fill="#8a7668"/><path d="m302.01 1910h-160.05v-84.83l160.05-1.4753z" fill="#877366"/><path d="m133.21 1907.3h-127.64v-84.83l127.64-1.4753z" fill="#79695c"/><path d="m469.1 2007.9h153.27v-84.83l-153.27-1.4753z" fill="#99877a" stroke-width=".97859"/><path d="m362.42 2005.2h96.58v-84.83l-96.58-1.4753z" fill="#a59589"/><path d="m155.81 2005.2h196.51v-84.83l-196.51-1.4753z" fill="#79685c"/><path d="m7.934 2005.2h135.74v-84.83l-135.74-1.4753z" fill="#8d7a6c"/><path d="m621.81 2099.4h-178.96v-84.83l178.96-1.4753z" fill="#968374"/><path d="m432.75 2100.7h-242.43v-84.83l242.43-1.4753z" fill="#8a7668"/><path d="m181.57 2098h-172.2v-84.83l172.2-1.4753z" fill="#948073"/><path d="m618.89 2192.5h-215.87v-84.83l215.87-1.4753z" fill="#8e796b" stroke-width=".89963"/><path d="m392.92 2193.9h-80.375v-84.83l80.375-1.4753z" fill="#8a7668"/><path d="m302.44 2195.2h-160.05v-84.83l160.05-1.4753z" fill="#7a685c"/><path d="m133.63 2192.5h-127.64v-84.83l127.64-1.4753z" fill="#a29285"/><path d="m621.98 2201.8h-178.96v84.83l178.96 1.4753z" fill="#7d6c5f"/><path d="m432.92 2200.4h-242.43v84.83l242.43 1.4753z" fill="#9e8c7f"/><path d="m181.74 2203.1h-172.2v84.83l172.2 1.4753z" fill="#958274"/><path d="m620.02 2395.2h-217v84.83l217 1.4753z" fill="#756458" stroke-width=".90198"/><path d="m392.92 2393.9h-80.375v84.83l80.375 1.4753z" fill="#8a7668"/><path d="m302.44 2392.5h-160.05v84.83l160.05 1.4753z" fill="#847164"/><path d="m133.63 2395.2h-127.64v84.83l127.64 1.4753z" fill="#79695c"/><path d="m469.53 2294.6h149.88v84.83l-149.88 1.4753z" fill="#99877a" stroke-width=".9677"/><path d="m362.84 2297.3h96.58v84.83l-96.58 1.4753z" fill="#a59589"/><path d="m156.23 2297.3h196.51v84.83l-196.51 1.4753z" fill="#79685c"/><path d="m8.356 2297.3h135.74v84.83l-135.74 1.4753z" fill="#8d7a6c"/><path d="m5.655 2578.1h222.17v-84.83l-222.17-1.4753z" fill="#8a7668"/><path d="m239.28 2575.4h89.828v-84.83l-89.828-1.4753z" fill="#988577"/><path d="m339.21 2578.1h178.96v-84.83l-178.96-1.4753z" fill="#7d6c5f"/><path d="m528.27 2579.4h95.506v-84.83l-95.506-1.4753z" fill="#9e8c7f" stroke-width=".62766"/><path d="m2.87 2586h83.076v84.83l-83.076 1.4753z" fill="#a18f83"/><path d="m97.398 2586h183.01v84.83l-183.01 1.4753z" fill="#8a7668"/><path d="m290.51 2587.3h206.83v84.83l-206.83 1.4753z" fill="#756458" stroke-width=".88058"/><path d="m507.45 2586h114.28v84.83l-114.28 1.4753z" fill="#8a7668" stroke-width="1.1924"/><path d="m621.05 2770.2h-178.96v-84.83l178.96-1.4753z" fill="#7d6c5f"/><path d="m431.99 2771.6h-242.43v-84.83l242.43-1.4753z" fill="#9e8c7f"/><path d="m180.81 2768.8h-172.2v-84.83l172.2-1.4753z" fill="#a8988d"/><path d="m625.9 400.8 0.47659 78.706 9.8318-10.58 24.761 0.4396 9.2078 10.643v-79.112l-9.2078 11.808-25.034-0.6306z" fill="#ccc"/><path d="m635.93 412.1 0.27275 56.852 24.761 0.4396v-56.773z" fill="#535353"/><path d="m437.48 474.18h68.384v-75.239l-68.384-1.3085z" fill="#9e8c81" stroke-width=".8469"/><path d="m435.65 645.93h71.774v-162.02l-71.774-2.8178z" fill="#a7978c" stroke-width="1.129"/><path d="m435.47 767.98h74.034v-112.79l-74.034-1.9616z" fill="#8b796b" stroke-width=".75076"/><path d="m435.82 863.89h72.904v-87.858l-72.904-1.5279z" fill="#a59589" stroke-width=".86347"/><path d="m370.37 493.64-3.1801-186.55h64.664l-1.06 186.15z" fill="#883500" stroke-width=".79637"/><path d="m372.24 864.22-2.791-363.75h56.752l-0.93033 362.96z" fill="#813400" stroke-width=".69311"/><path d="m439.36 390.04h68.384v-81.905l-68.384-1.4244z" fill="#9e8c81" stroke-width=".88362"/><path d="m111.25 507.45-2.5971-201.36h52.807l-0.86567 200.92z" fill="#a84200" stroke-width=".73626"/><path d="m114.45 715.24-2.5971-201.36h52.807l-0.86567 200.92z" fill="#8d3700" stroke-width=".73626"/><path d="m114.45 853.34-2.5971-134.08h52.807l-0.86567 133.79z" fill="#a84200" stroke-width=".6008"/></svg>
