<svg width="1e3mm" height="2771.5mm" version="1.1" viewBox="0 0 1e3 2771.5" xmlns="http://www.w3.org/2000/svg"><g transform="translate(-30.142 2354.5)"><path d="m85.951-1473h846.03v-658.51l-851.76-194.22z" fill="#520"/><path d="m44.334-1478 927.74-6.6527v1898.7l-923.69-5.3223z" fill="#483e37"/><path d="m555.91-1518.2-4.0512-300.61 109.34-248.48 152.64-2.7008 1.4134 551.23z" fill="#222"/><path d="m254.18-2000.9 2.8647 121.27 76.391-1.9098-1.9098-120.32z" fill="#232323"/><path d="m332.98-1902.9-28.401 0.1795v-13.607l28.192-0.1375z" fill="#808080"/><path d="m532.3-2119.3 399.69-5.856-71.854-37.358-329.1-1.3505z" fill="#883600"/><path d="m393.41-2170 357.41 0.8961-82.769-37.358-276.1-8.1026z" fill="#752e00"/><path d="m163.4-2220.4 380.13 4.9474-128.08-37.358-254.31-12.154z" fill="#782f00"/><path d="m161.29-2271.7 175.62 4.9474-116.87-38.708-60.653-13.504z" fill="#692a00"/><path d="m71.628-2188.2h83.076v-109.81l-83.076-1.9098z" fill="#7a695e"/><path d="m854.84-1986.2h83.076v-127.3l-83.076-2.214z" fill="#8f7c6f"/><path d="m56.745-2331.1 6.2606 34.073c474.61 54.124 659.04 142.37 941.55 198.62-454.01-181.51-947.81-232.69-947.81-232.69z" fill="#500"/><path d="m73.06-2006.3h83.076v-169.88l-83.076-2.9545z" fill="#877568"/><path d="m74.015-1911.8h83.076v-86.348l-83.076-1.5017z" fill="#9e8c81"/><path d="m77.835-1794.3h83.076v-109.81l-83.076-1.9098z" fill="#a7978c"/><path d="m78.79-1603.3h83.076v-178.33l-83.076-3.1014z" fill="#8b796b"/><path d="m76.88-1492.7h83.076v-103.41l-83.076-1.7984z" fill="#a59589"/><path d="m861.8-1889.5h83.076v-87.885l-83.076-1.5285z" fill="#77675c"/><path d="m859.89-1711.9h83.076v-165.79l-83.076-2.8832z" fill="#958275"/><path d="m858.94-1587.7h83.076v-115.1l-83.076-2.0018z" fill="#917c70"/><path d="m857.03-1499.4h83.076v-80.848l-83.076-1.4061z" fill="#a59489"/><path d="m168.27-2094.4h679.88v-19.369l-679.88-0.3369z" fill="#483e37"/><path d="m171.27-1712.6-4.0513-375.62h82.376l-1.3504 374.81z" fill="#993d00"/><path d="m337.66-1666.8-5.0143-421.46h101.96l-1.6714 420.55z" fill="#943b00"/><path d="m493.67-1395.6h160.05v-84.83l-160.05-1.4753z" fill="#99877a"/><path d="m386.99-1398.3h96.58v-84.83l-96.58-1.4753z" fill="#a59589"/><path d="m449.45-1464.4-4.7154-362.25h95.88l-1.5718 361.47z" fill="#ac4500"/><path d="m180.38-1398.3h196.51v-84.83l-196.51-1.4753z" fill="#79685c"/><path d="m268.18-1953.2 1.0111 69.586 43.266 0.5345v-70.025l-9.2078 11.808-25.034-0.6306z" fill="#ccc"/><path d="m278.21-1941.9 0.27275 62.637 24.761 0.5345v-62.541z" fill="#5b5b5b"/><path d="m261.26-1468.4-3.2211-417.28h65.495l-1.0737 416.38z" fill="#672900"/><path d="m261.26-1998.9-3.2211-88.682h65.495l-1.0737 88.49z" fill="#732e00"/><path d="m661.75-1907.4-68.507 0.1795v-13.607l68.002-0.1375z" fill="#808080"/><path d="m548.9-1818.1 1.5054-271.66h57.393l-2.4241 160.4z" fill="#692a00"/><path d="m615.07-1941 1.5053-146.07 54.692-2.0256-0.39872 29.409z" fill="#803300"/><path d="m550.03-1466.4-3.3373-58.068h67.859l-1.1124 57.942z" fill="#712d00"/><path d="m662.48-1399.6h193.81v-84.83l-193.81-1.4753z" fill="#857365"/><path d="m622.69-1464-0.88362-70.259h66.508l-1.0903 70.107z" fill="#803300"/><path d="m698.33-1465.2-0.8962-59.221h57.055l-0.93536 58.484z" fill="#a40"/><path d="m761.13-1465.7 0.78523-71.433h51.991l-0.90998 71.279z" fill="#732e00"/><path d="m677.3-2053-0.97044-35.706h61.782l-1.0129 35.262z" fill="#a84300"/><path d="m743.73-2063.4-1.0605-24.785h67.521l-1.1068 24.477z" fill="#6e2c00"/><path d="m821.57-1465.9-3.2835-470.49h32.188l-0.49805 469.47z" fill="#9c3e00"/><path d="m48.713-2324.5c590.13 108.03 981.43 238.9 981.43 238.9-134.58-114.13-994.61-268.91-994.61-268.91z" fill="#a00"/><path d="m336-1467.6-5.0143-186.55h101.96l-1.6714 186.15z" fill="#783000"/><path d="m447.6-1840.9-4.7154-249.58h95.88l-1.5718 249.04z" fill="#7f3300"/><path d="m174.86-1463.7-4.0513-238.12h82.376l-1.3504 237.6z" fill="#a84200"/><path d="m820.17-1944.8-3.2835-145.04h32.188l-0.49805 144.72z" fill="#843400"/><path d="m380.98-2171.8 1.7823-41.803-222.44-1.9098 2.5038 41.719z" fill="#732e00"/><path d="m520.09-2121 2.8855-41.803-360.13-1.9098 4.0537 41.719z" fill="#813300"/><path d="m32.505-1398.3h135.74v-84.83l-135.74-1.4753z" fill="#8d7a6c"/><path d="m866.39-1403.7h115.49v-84.83l-115.49-1.4752z" fill="#988577"/><path d="m35.206-1303.7h222.17v-84.83l-222.17-1.4753z" fill="#8a7668"/><path d="m268.83-1306.4h89.828v-84.83l-89.828-1.4753z" fill="#988577"/><path d="m368.76-1303.7h178.96v-84.83l-178.96-1.4753z" fill="#7d6c5f"/><path d="m557.82-1302.4h242.43v-84.83l-242.43-1.4752z" fill="#9e8c7f"/><path d="m809-1305.1h172.2v-84.83l-172.2-1.4753z" fill="#a8988d"/><path d="m33.18-1209.2h83.076v-84.83l-83.076-1.4753z" fill="#a18f83"/><path d="m127.71-1209.2h183.01v-84.83l-183.01-1.4753z" fill="#988476"/><path d="m320.82-1210.6h266.73v-84.83l-266.73-1.4752z" fill="#756458"/><path d="m597.66-1209.2h80.375v-84.83l-80.375-1.4753z" fill="#8a7668"/><path d="m688.14-1207.8h160.05v-84.83l-160.05-1.4753z" fill="#8b7769"/><path d="m856.94-1210.6h127.64v-84.83l-127.64-1.4752z" fill="#79695c"/><path d="m521.05-1109.9h-160.05v-84.83l160.05-1.4752z" fill="#99877a"/><path d="m627.73-1112.6h-96.58v-84.83l96.58-1.4753z" fill="#a59589"/><path d="m834.34-1112.6h-196.51v-84.83l196.51-1.4753z" fill="#79685c"/><path d="m352.24-1114h-193.81v-84.83l193.81-1.4752z" fill="#857365"/><path d="m982.21-1112.6h-135.74v-84.83l135.74-1.4752z" fill="#8d7a6c"/><path d="m148.33-1118h-115.49v-84.83l115.49-1.4753z" fill="#988577"/><path d="m979.51-1018.1h-222.17v-84.83l222.17-1.4752z" fill="#8a7668"/><path d="m745.89-1020.8h-89.828v-84.83l89.828-1.4752z" fill="#988577"/><path d="m645.96-1018.1h-178.96v-84.83l178.96-1.4752z" fill="#7d6c5f"/><path d="m456.9-1016.8h-242.43v-84.83l242.43-1.4753z" fill="#9e8c7f"/><path d="m205.72-1019.5h-172.2v-84.83l172.2-1.4753z" fill="#a8988d"/><path d="m981.54-923.59h-83.076v-84.83l83.076-1.4752z" fill="#a18f83"/><path d="m887.01-923.59h-183.01v-84.83l183.01-1.4752z" fill="#8a7668"/><path d="m693.9-924.94h-266.73v-84.83l266.73-1.4753z" fill="#947f71"/><path d="m417.06-923.59h-80.375v-84.83l80.375-1.4753z" fill="#8a7668"/><path d="m326.58-922.24h-160.05v-84.83l160.05-1.4753z" fill="#7a685c"/><path d="m157.78-924.94h-127.64v-84.83l127.64-1.4753z" fill="#79695c"/><path d="m33.349-724.61h83.076v84.83l-83.076 1.4753z" fill="#a18f83"/><path d="m127.88-724.61h183.01v84.83l-183.01 1.4753z" fill="#8a7668"/><path d="m320.99-723.26h266.73v84.83l-266.73 1.4753z" fill="#756458"/><path d="m597.83-724.61h80.375v84.83l-80.375 1.4753z" fill="#8a7668"/><path d="m688.3-725.96h160.05v84.83l-160.05 1.4753z" fill="#847164"/><path d="m857.11-723.26h127.64v84.83l-127.64 1.4753z" fill="#79695c"/><path d="m521.21-823.87h-160.05v84.83l160.05 1.4753z" fill="#99877a"/><path d="m627.9-821.17h-96.58v84.83l96.58 1.4753z" fill="#a59589"/><path d="m834.51-821.17h-196.51v84.83l196.51 1.4753z" fill="#79685c"/><path d="m352.41-819.82h-193.81v84.83l193.81 1.4753z" fill="#857365"/><path d="m982.38-821.17h-135.74v84.83l135.74 1.4753z" fill="#8d7a6c"/><path d="m148.5-815.77h-115.49v84.83l115.49 1.4753z" fill="#988577"/><path d="m979.68-915.7h-222.17v84.83l222.17 1.4753z" fill="#8a7668"/><path d="m746.06-913h-89.828v84.83l89.828 1.4753z" fill="#988577"/><path d="m646.13-915.7h-178.96v84.83l178.96 1.4753z" fill="#7d6c5f"/><path d="m457.07-917.05h-242.43v84.83l242.43 1.4753z" fill="#9e8c7f"/><path d="m205.89-914.35h-172.2v84.83l172.2 1.4753z" fill="#a8988d"/><path d="m985.08-540.4h-222.17v-84.83l222.17-1.4753z" fill="#8a7668"/><path d="m751.46-543.1h-89.828v-84.83l89.828-1.4753z" fill="#988577"/><path d="m651.53-540.4h-178.96v-84.83l178.96-1.4753z" fill="#7d6c5f"/><path d="m462.47-539.05h-242.43v-84.83l242.43-1.4753z" fill="#9e8c7f"/><path d="m211.29-541.75h-172.2v-84.83l172.2-1.4753z" fill="#a8988d"/><path d="m987.11-445.87h-83.076v-84.83l83.076-1.4753z" fill="#a18f83"/><path d="m892.58-445.87h-183.01v-84.83l183.01-1.4753z" fill="#8a7668"/><path d="m699.47-447.22h-266.73v-84.83l266.73-1.4753z" fill="#756458"/><path d="m422.63-445.87h-80.375v-84.83l80.375-1.4753z" fill="#8a7668"/><path d="m332.15-444.52h-160.05v-84.83l160.05-1.4753z" fill="#877366"/><path d="m163.35-447.22h-127.64v-84.83l127.64-1.4753z" fill="#79695c"/><path d="m499.24-346.62h160.05v-84.83l-160.05-1.4753z" fill="#99877a"/><path d="m392.56-349.32h96.58v-84.83l-96.58-1.4753z" fill="#a59589"/><path d="m185.95-349.32h196.51v-84.83l-196.51-1.4753z" fill="#79685c"/><path d="m668.05-350.67h193.81v-84.83l-193.81-1.4753z" fill="#857365"/><path d="m38.076-349.32h135.74v-84.83l-135.74-1.4753z" fill="#8d7a6c"/><path d="m871.96-354.72h115.49v-84.83l-115.49-1.4753z" fill="#988577"/><path d="m985.51-255.14h-222.17v-84.83l222.17-1.4753z" fill="#736256"/><path d="m751.88-257.84h-89.828v-84.83l89.828-1.4753z" fill="#988577"/><path d="m651.95-255.14h-178.96v-84.83l178.96-1.4753z" fill="#968374"/><path d="m462.89-253.79h-242.43v-84.83l242.43-1.4753z" fill="#8a7668"/><path d="m211.71-256.49h-172.2v-84.83l172.2-1.4753z" fill="#948073"/><path d="m987.53-160.61h-83.076v-84.83l83.076-1.4753z" fill="#a18f83"/><path d="m893-160.61h-183.01v-84.83l183.01-1.4753z" fill="#8a7668"/><path d="m699.89-161.96h-266.73v-84.83l266.73-1.4753z" fill="#8e796b"/><path d="m423.06-160.61h-80.375v-84.83l80.375-1.4753z" fill="#8a7668"/><path d="m332.58-159.26h-160.05v-84.83l160.05-1.4753z" fill="#7a685c"/><path d="m163.77-161.96h-127.64v-84.83l127.64-1.4753z" fill="#a29285"/><path d="m985.68-152.73h-222.17v84.83l222.17 1.4753z" fill="#8a7668"/><path d="m752.05-150.03h-89.828v84.83l89.828 1.4753z" fill="#988577"/><path d="m652.12-152.73h-178.96v84.83l178.96 1.4753z" fill="#7d6c5f"/><path d="m463.06-154.08h-242.43v84.83l242.43 1.4753z" fill="#9e8c7f"/><path d="m211.88-151.38h-172.2v84.83l172.2 1.4753z" fill="#958274"/><path d="m987.53 39.38h-83.076v84.83l83.076 1.4753z" fill="#a18f83"/><path d="m893 39.38h-183.01v84.83l183.01 1.4753z" fill="#8a7668"/><path d="m699.89 40.73h-266.73v84.83l266.73 1.4753z" fill="#756458"/><path d="m423.06 39.38h-80.375v84.83l80.375 1.4753z" fill="#8a7668"/><path d="m332.58 38.029h-160.05v84.83l160.05 1.4753z" fill="#847164"/><path d="m163.77 40.73h-127.64v84.83l127.64 1.4753z" fill="#79695c"/><path d="m499.67-59.876h160.05v84.83l-160.05 1.4753z" fill="#99877a"/><path d="m392.98-57.175h96.58v84.83l-96.58 1.4753z" fill="#a59589"/><path d="m186.37-57.175h196.51v84.83l-196.51 1.4753z" fill="#79685c"/><path d="m668.47-55.825h193.81v84.83l-193.81 1.4753z" fill="#857365"/><path d="m38.498-57.175h135.74v84.83l-135.74 1.4753z" fill="#8d7a6c"/><path d="m872.38-51.774h115.49v84.83l-115.49 1.4753z" fill="#988577"/><path d="m35.797 223.59h222.17v-84.83l-222.17-1.4753z" fill="#8a7668"/><path d="m269.42 220.89h89.828v-84.83l-89.828-1.4753z" fill="#988577"/><path d="m369.35 223.59h178.96v-84.83l-178.96-1.4753z" fill="#7d6c5f"/><path d="m558.41 224.94h242.43v-84.83l-242.43-1.4753z" fill="#9e8c7f"/><path d="m809.59 222.24h172.2v-84.83l-172.2-1.4753z" fill="#a8988d"/><path d="m33.012 231.48h83.076v84.83l-83.076 1.4753z" fill="#a18f83"/><path d="m127.54 231.48h183.01v84.83l-183.01 1.4753z" fill="#8a7668"/><path d="m320.65 232.84h266.73v84.83l-266.73 1.4753z" fill="#756458"/><path d="m597.49 231.48h80.375v84.83l-80.375 1.4753z" fill="#8a7668"/><path d="m687.97 230.13h160.05v84.83l-160.05 1.4753z" fill="#847164"/><path d="m856.77 232.84h127.64v84.83l-127.64 1.4753z" fill="#79695c"/><path d="m984.75 415.7h-222.17v-84.83l222.17-1.4753z" fill="#8a7668"/><path d="m751.12 412.99h-89.828v-84.83l89.828-1.4753z" fill="#988577"/><path d="m651.19 415.7h-178.96v-84.83l178.96-1.4753z" fill="#7d6c5f"/><path d="m462.13 417.05h-242.43v-84.83l242.43-1.4753z" fill="#9e8c7f"/><path d="m210.95 414.35h-172.2v-84.83l172.2-1.4753z" fill="#a8988d"/><path d="m656.04-1953.7 0.47659 78.706 9.8318-10.58 24.761 0.4396 9.2078 10.643v-79.112l-9.2078 11.808-25.034-0.6306z" fill="#ccc"/><path d="m666.07-1942.4 0.27275 56.852 24.761 0.4396v-56.773z" fill="#535353"/></g></svg>
