<svg width="1e3mm" height="4704.7mm" version="1.1" viewBox="0 0 1e3 4704.7" xmlns="http://www.w3.org/2000/svg"><path d="m911.49 291.64-817.28 0.4119v-31.226l811.26-0.3156z" fill="#808080" stroke-width="5.2323"/><path d="m870.23 273.3-624.28-236.89-136.2 235.68 106.17 242.73-2.5342 33.059-119.17-255.83v-31.226l152.73-255.83 670.39 255.4 0.026 21.352-590.88 261.1-0.3326-34.239z" fill="#808080" stroke-width="5.4398"/><path d="m898.39 185.39 1.0937 180.62 22.562-24.279 56.822 1.0088 21.13 24.424v-181.55l-21.13 27.097-57.449-1.4471z" fill="#ccc" stroke-width="2.2948"/><path d="m921.41 211.32 0.6259 130.47 56.822 1.0088v-130.28z" fill="#535353" stroke-width="2.2948"/><path d="m0 185.58 1.0937 180.62 22.562-24.279 56.822 1.0088 21.13 24.424v-181.55l-21.13 27.097-57.449-1.4471z" fill="#ccc" stroke-width="2.2948"/><path d="m23.017 211.51 0.62593 130.47 56.822 1.0088v-130.28z" fill="#535353" stroke-width="2.2948"/><path d="m206.42 140.3 33.245-139.5 56.813-0.7952 39.622 140.3v1514.7h-129.68z" fill="#502d16" style="paint-order:normal"/><path d="m223.83 189.06h11.347l0.59274 35.529 72.057 0.6484-0.26873-36.826h11.671l-0.19011 87.338h-11.347l0.78267-38.192-72.705-1.2968-0.4585 38.84h-11.671z" fill="#999"/><path d="m319.04 275.75h-11.347l-0.59278 35.529-72.057 0.6484 0.26872-36.826h-11.671l1.1627 86.041h11.347l-1.7553-36.895 72.705-1.2968 1.4311 37.544h11.671z" fill="#999"/><path d="m224.8 361.14h11.347l0.59278 35.529 72.057 0.6484-0.26873-36.826h11.671l-0.19011 86.041h-11.671l1.1069-36.895-72.705-1.2968-0.7827 38.84h-11.347z" fill="#999"/><path d="m224.61 447.18h11.347l0.59278 35.529 72.057 0.64838-0.26872-36.826h11.671l-0.83845 86.041h-11.671l1.7553-36.895-72.705-1.2968-1.4311 38.84h-11.347z" fill="#999"/><path d="m223.77 533.22h11.347l0.59274 35.529 72.057 0.64818-0.26872-36.826h11.671l-0.83842 85.717-11.671 0.32504 1.7553-36.895-72.705-1.2968-2.0795 38.84h-10.05z" fill="#999"/><path d="m222.93 619.26h11.347l0.59274 35.529 72.057 0.64857-0.26873-36.826h11.671l-0.83842 86.041h-11.671l1.7553-36.895-72.705-1.2968-1.4311 38.84h-11.347z" fill="#999"/><path d="m222.1 705.3h11.347l0.59278 35.529 72.057 0.64819-0.26873-36.826h11.671l-0.83845 86.041h-11.671l1.7553-36.895-72.705-1.2968-1.4312 38.84h-11.347z" fill="#999"/><path d="m221.26 791.35h11.347l0.59278 35.529 72.057 0.64857-0.26873-36.826h11.671l-1.4868 86.041h-11.671l2.4037-36.895-72.705-1.2971-2.0795 38.84h-11.347z" fill="#999"/><path d="m219.77 877.39h11.347l0.59274 35.529 72.057 0.64856-0.26873-36.826h11.671l-0.19011 86.041h-11.671l1.1069-36.895-72.705-1.2968-0.78267 38.84h-11.347z" fill="#999"/><path d="m219.58 963.43h11.347l0.59278 35.529 72.057 0.64819-0.26873-36.826h11.671l-0.83841 87.662-11.671-0.3251 1.7553-38.192-72.705-1.2968-2.0795 38.84h-10.05z" fill="#999"/><path d="m219.58 1136.8h11.347l0.59278-36.826 72.057-0.6482-0.26873 36.826h11.671l-0.83841-85.717-11.671-0.3251 1.7553 36.895-72.705 1.2968-2.0795-38.84h-10.05z" fill="#999"/><path d="m219.58 1136.8h11.347l0.59278 35.53 72.057 0.6482-0.26873-36.826h11.671l-1.4868 86.041h-11.671l2.4037-36.895-72.705-1.2967-2.0795 38.84h-11.347z" fill="#999"/><path d="m218.09 1222.8h11.347l0.59274 35.529 72.057 0.6486-0.26873-36.826h11.671l-0.83842 86.041h-11.671l1.7553-36.895-72.705-1.2968-1.4312 38.84h-11.347z" fill="#999"/><path d="m217.26 1308.9h11.347l0.59278 35.53 72.057 0.6486-0.26873-36.826h11.671l-0.83845 86.041h-11.671l1.7553-36.895-72.705-1.2967-1.4311 38.84h-11.347z" fill="#999"/><path d="m216.42 1394.9h11.347l0.59274 35.529 72.057 0.6482-0.26873-36.826h11.671l-1.6768 87.013-11.671-0.325 2.5937-37.544-72.705-1.2971-2.9179 38.192h-10.05z" fill="#999"/><path d="m215.58 1566.4h11.347l0.59278-35.53 72.057-0.6481-0.26873 36.826h11.671l-0.83841-85.717-11.671-0.325 1.7553 36.895-72.705 1.2967-2.0795-38.84h-10.05z" fill="#999"/><circle cx="262.83" cy="1484.8" r="21.858" fill="#c83737" style="paint-order:normal"/><path d="m81.933 1627.7 3.1149 3069.7 369.05-1.9816-1.7036-3062.9z" fill="#666"/><path d="m65.307 1618.6-1.7135 110.04 234.75-1.8338v-110.04z" fill="#b3b3b3"/><path d="m313.22 1615.8-1.1244 110.04 154.05-1.8338v-110.04z" fill="#9a9a9a"/><path d="m68.132 1738.7-0.87016 110.04 119.21-1.8338v-110.04z" fill="#949494"/><path d="m201.23 1736.9-1.9276 110.04 264.09-1.8338v-110.04z" fill="#a8a8a8"/><path d="m251.31 1856.1-1.5662 110.04 214.57-1.8338v-110.04z" fill="#989898"/><path d="m69.45 1856.1-1.2717 110.04 174.23-1.8338v-110.04z" fill="#b7b7b7"/><path d="m71.987 1975.3-1.0576 110.04 144.88-1.8338v-110.04z" fill="#999"/><path d="m228.53 1975.3-1.7135 110.04 234.75-1.8338v-110.04z" fill="#858585"/><path d="m470.39 2557.6 1.7135-110.04-234.75 1.8338v110.04z" fill="#b3b3b3"/><path d="m222.48 2560.3 1.1245-110.04-154.05 1.8339v110.04z" fill="#9a9a9a"/><path d="m467.57 2437.4 0.87012-110.04-119.21 1.8339v110.04z" fill="#949494"/><path d="m334.47 2439.3 1.9277-110.04-264.09 1.8335v110.04z" fill="#a8a8a8"/><path d="m284.39 2320.1 1.5662-110.04-214.57 1.8338v110.04z" fill="#989898"/><path d="m466.25 2320.1 1.2718-110.04-174.23 1.8338v110.04z" fill="#b7b7b7"/><path d="m463.71 2200.9 1.0576-110.04-144.88 1.8338v110.04z" fill="#999"/><path d="m307.17 2200.9 1.7135-110.04-234.75 1.8338v110.04z" fill="#858585"/><path d="m255.66 2570.4-1.5662 110.04 214.57-1.8338v-110.04z" fill="#989898"/><path d="m73.806 2570.4-1.2717 110.04 174.23-1.8338v-110.04z" fill="#b7b7b7"/><path d="m76.342 2689.6-1.0576 110.04 144.88-1.8338v-110.04z" fill="#999"/><path d="m232.88 2689.6-1.7135 110.04 234.75-1.8338v-110.04z" fill="#858585"/><path d="m468.07 2915.2 1.0576-110.04-144.88 1.8339v110.04z" fill="#999"/><path d="m311.53 2915.2 1.7135-110.04-234.75 1.8339v110.04z" fill="#858585"/><path d="m73.101 3033.5-1.7135-110.04 234.75 1.8338v110.04z" fill="#b3b3b3"/><path d="m321.01 3036.2-1.1244-110.04 154.05 1.8339v110.04z" fill="#9a9a9a"/><path d="m287.83 3046.3 1.5662 110.04-214.57-1.8338v-110.04z" fill="#989898"/><path d="m469.69 3046.3 1.2718 110.04-174.23-1.8338v-110.04z" fill="#b7b7b7"/><path d="m72.991 3167.5-1.7135 110.04 234.75-1.8338v-110.04z" fill="#b3b3b3"/><path d="m320.9 3164.7-1.1244 110.04 154.05-1.8338v-110.04z" fill="#9a9a9a"/><path d="m69.599 3287-0.87016 110.04 119.21-1.8338v-110.04z" fill="#949494"/><path d="m202.7 3285.2-1.9276 110.04 264.09-1.8338v-110.04z" fill="#a8a8a8"/><path d="m252.77 3404.4-1.5662 110.04 214.57-1.8338v-110.04z" fill="#989898"/><path d="m70.918 3404.4-1.2717 110.04 174.23-1.8338v-110.04z" fill="#b7b7b7"/><path d="m73.455 3523.6-1.0576 110.04 144.88-1.8338v-110.04z" fill="#999"/><path d="m230 3523.6-1.7135 110.04 234.75-1.8338v-110.04z" fill="#858585"/><path d="m471.86 4105.9 1.7134-110.04-234.75 1.8338v110.04z" fill="#b3b3b3"/><path d="m223.95 4108.6 1.1245-110.04-154.05 1.8339v110.04z" fill="#9a9a9a"/><path d="m469.04 3985.8 0.8701-110.04-119.21 1.8339v110.04z" fill="#949494"/><path d="m335.93 3987.6 1.9277-110.04-264.09 1.8335v110.04z" fill="#a8a8a8"/><path d="m285.86 3868.4 1.5662-110.04-214.57 1.8338v110.04z" fill="#989898"/><path d="m467.72 3868.4 1.2718-110.04-174.23 1.8338v110.04z" fill="#b7b7b7"/><path d="m465.18 3749.2 1.0576-110.04-144.88 1.8338v110.04z" fill="#999"/><path d="m308.64 3749.2 1.7135-110.04-234.75 1.8338v110.04z" fill="#858585"/><path d="m257.13 4118.7-1.5662 110.04 214.57-1.8338v-110.04z" fill="#989898"/><path d="m75.273 4118.7-1.2717 110.04 174.23-1.8338v-110.04z" fill="#b7b7b7"/><path d="m77.81 4237.9-1.0576 110.04 144.88-1.8338v-110.04z" fill="#999"/><path d="m234.35 4237.9-1.7135 110.04 234.75-1.8338v-110.04z" fill="#858585"/><path d="m469.54 4463.5 1.0575-110.04-144.88 1.8339v110.04z" fill="#999"/><path d="m312.99 4463.5 1.7135-110.04-234.75 1.8339v110.04z" fill="#858585"/><path d="m74.569 4581.8-1.7135-110.04 234.75 1.8338v110.04z" fill="#b3b3b3"/><path d="m322.48 4584.6-1.1244-110.04 154.05 1.8339v110.04z" fill="#9a9a9a"/><path d="m289.3 4594.6 1.5662 110.04-214.57-1.8338v-110.04z" fill="#989898"/><path d="m471.16 4594.6 1.2718 110.04-174.23-1.8338v-110.04z" fill="#b7b7b7"/></svg>
