<svg width="1e3mm" height="927.75mm" version="1.1" viewBox="0 0 1e3 927.75" xmlns="http://www.w3.org/2000/svg">
    <path d="m240.16 850.85c201.58 43.091 469.67 51.1 589.67 5.6148-12.524-291.41 103.14-656.74-110.59-816.79-156.27 0.0829-222.82 0.90676-395.67 17.433-228.1 162.03-98.796 538.92-83.402 793.74z"
          fill="#c87137" stroke-width="1.1094"/>
    <path d="m323.56 57.11c39.349 62.2 37.732 115.66 66.739 264.95l337.17 7.6025c-10.024-132.43 50.609-205.85-8.2325-289.99-84.733-24.859-270.45-80.812-395.67 17.433z"
          fill="#d38d5f" stroke-width="1.1094"/>
    <path d="m405.03 223.3c27.582 100.55 16.091 250.43 16.091 250.43l73.094-1.9658s0.63847-142.55-11.998-250.93z"
          fill="#803300" stroke-width="1.1094"/>
    <path d="m193.33 704.9-6.9564-104.59s40.041-15.598 40.503-50.572l27.738-2.4042c8.5456 36.236 43.664 45.979 43.664 45.979l5.8084 100.47c-34.291 21.098-60.959 30.528-110.76 11.116z"
          fill="#ac9393"/>
    <path d="m174.87 689.63c70.183 9.7357 89.711 14.503 147.89-9.2596l3.1552 129.18c-66.239 25.119-73.199 19.31-133.48 3.7069z"
          fill="#d38d5f"/>
    <path d="m226.88 549.74 27.738-2.4042-0.60466-24.467-29.798 2.9782z" fill="#483737"/>
    <path d="m442.7 437.31-1.9713 62.413 27.207-2.948 3.4384-60.917z" fill="#483737" stroke-width="1.1094"/>
    <path d="m618.91 222.03c27.582 100.55 16.091 250.43 16.091 250.43l73.094-1.9658s0.63847-142.55-11.998-250.93z"
          fill="#803300" stroke-width="1.1094"/>
    <path d="m656.58 436.04-1.9714 62.413 27.207-2.948 3.4384-60.917z" fill="#483737" stroke-width="1.1094"/>
    <path d="m737.68 691.67 5.19-104.69s41.576-10.862 46.081-45.547l27.83 0.8208c4.2962 36.981 38.052 50.721 38.052 50.721l-5.8538 100.47c-36.502 16.989-64.081 23.271-111.3-1.7716z"
          fill="#ac9393"/>
    <path d="m721.11 674.36c68.586 17.789 87.431 24.783 147.97 7.9117l-20.362 128.68c-68.7 17.288-74.942 10.713-133.01-11.759z"
          fill="#038d5f"/>
    <path d="m788.95 541.43 27.83 0.8208 2.2298-24.372-29.942-0.48894z" fill="#483737"/>
</svg>
