<svg width="1e3mm" height="927.75mm" version="1.1" viewBox="0 0 1e3 927.75" xmlns="http://www.w3.org/2000/svg">
    <g transform="translate(366.61 471.71)">
        <path d="m169.45-318.49c-73.848 19.935-219.53 72.979-269.26 121.91-51.242 57.994-78.37 166.73-79.879 242.85 4.5213 108.74 117.32 205.31 216.79 227.06 108.51 12.686 239.87-18.643 239.87-18.643l25.621 65.244s-180.42 26.367-277.56 3.1768c-132.59-47.121-245.8-148.69-249.85-271.93 3.0142-112.37 36.089-227.82 96.375-282.19 52.749-67.056 229.08-134.11 281.83-137.74 8.4443 18.621 14.92 32.146 16.072 50.26z"
              fill="#520" stroke-width=".86428"/>
        <path d="m109.45-288.43c128.12 298.31 164.45 696.05 164.45 696.05 155.22 51.643 291.94-1.1904 359.5-57.366-10.175-291.41-0.79932-566.04-206.52-713.26-123.76-34.128-215.71-117.29-315.52-24.859z"
              fill="#c87137"/>
        <path d="m111.36-387.87s97.523 24.859 202.69 53.542c109 51.63 126.21 181.66 126.21 181.66l152.98-28.683c-29.31-123.35-64.234-185.43-214.17-265.8-68.84-24.859-160.63-59.279-267.71 59.279z"
              fill="#d38d5f"/>
        <path d="m329.35 233.6-26.771-101.35s36.332-22.947 30.117-57.366l26.771-7.6489c15.298 33.942 51.63 36.81 51.63 36.81l24.859 97.523c-29.639 27.249-54.02 41.591-106.61 32.03z"
              fill="#ac9393"/>
        <path d="m308.32 222.13c70.752-3.8244 90.83-2.8683 143.42-37.288l27.727 126.21c-60.235 37.288-82.225 33.464-144.37 29.639z"
              fill="#d38d5f"/>
        <path d="m446-265.49c55.55 97.347 68.511 127.05 71.872 252.56 0 0 50.606-10.353 48.694-18.002-11.009-117.4-5.8328-144.69-72.76-249.86z"
              fill="#803300"/>
        <path d="m332.7 74.885 26.771-7.6489-5.2585-23.903-28.683 8.605z" fill="#483737"/>
        <path d="m529.92-49.072 5.4085 62.198 21.634-5.4086-4.0564-60.846z" fill="#483737"/>
    </g>
</svg>
