<svg width="1e3mm" height="1748.8mm" version="1.1" viewBox="0 0 1e3 1748.8" xmlns="http://www.w3.org/2000/svg">
    <path d="m965.7 107.4c-26.183 0-231.28-244.37-567.29 4.3638-52.365 344.74-13.091 562.93-13.091 562.93-139.64 270.55-200.73 514.93-200.73 514.93 205.1 205.1 532.38 213.83 532.38 213.83 178.92-261.83 253.1-637.11 253.1-637.11 69.821-301.1-4.3638-658.93-4.3638-658.93z"
          fill="#68a4ff"/>
    <path d="m72.208 1205.5c-28.169-0.3643-50.586 9.2068-60.711 47.681-37.942 73.915 21.602 104.91 126.51 132.68-123.43 231.42-40.116 271.54 114.17 191.31-9.257 120.34 98.742 175.88 200.57 46.285 8.3293 179.4 117.25 129.6 157.37 74.055 63.071-128.66 41.582-220.2 56.938-298.22-94.339-10.723-303.43-49.334-458.01-186.7-44.641 14.206-96.605-6.5793-136.84-7.0997z"
          fill="#fbecd8"/>
</svg>
