<svg width="1222.6mm" height="1692.6mm" version="1.1" viewBox="0 0 1222.6 1692.6" xmlns="http://www.w3.org/2000/svg">
    <g transform="rotate(-42.19 2336.8 -90.928)">
        <path d="m853.59-1312.6c-26.183 0-231.28-244.37-567.29 4.3638-25.792 166.21-42.484 417.75-49.37 527.12 276.05 80.524 338.87 105.21 635.58 76.782 28.32-269.11 26.33-479.07-18.915-608.25z"
              fill="#59f"/>
        <path d="m-39.902-214.46c-28.169-0.36435-50.586 9.2068-60.711 47.681-37.942 73.915 21.602 104.91 126.51 132.68-123.43 231.42-40.116 271.54 114.17 191.31-9.257 120.34 98.742 175.88 200.57 46.285 8.3293 179.4 117.25 129.6 157.37 74.055 63.071-128.66 41.582-220.2 56.938-298.22-21.475-2.4409 216.95-404.06 280.56-590.26 3.5084-39.391 10.091-59.558 13.091-91.512-143.56 11.978-292.92 14.184-544.05-59.354 2.822 11.513 6.262 26.395 7.7825 40.536-140.8 212.55-195.09 531.93-215.39 513.89-44.641 14.206-96.605-6.5793-136.84-7.0997z"
              fill="#fbecd8"/>
    </g>
</svg>
