<svg width="1e3mm" height="1748.8mm" version="1.1" viewBox="0 0 1e3 1748.8" xmlns="http://www.w3.org/2000/svg">
    <path d="m965.7 107.4s-231.28-244.37-567.29 4.3638c-30.134 129.85-24.206 435.1-24.206 435.1 234.48 78.368 389.69 107.46 621.8 28.664 8.224-216.81-30.299-468.12-30.299-468.12z"
          fill="#59f"/>
    <path d="m72.208 1205.5c-28.169-0.3643-50.586 9.2068-60.711 47.681-37.942 73.915 21.602 104.91 126.51 132.68-123.43 231.42-40.116 271.54 114.17 191.31-9.257 120.34 98.742 175.88 200.57 46.285 8.3293 179.4 117.25 129.6 157.37 74.055 63.071-128.66 41.582-220.2 56.938-298.22-14.878-1.6911 262.51-560.92 275.42-679.48 21.362-54.83 21.544-57.188 24.236-134.8-214.09 40.81-330.48 38.626-536.07-19.919-3.3869 85.069 2.0938 120.99 2.0938 120.99s-205.99 445.49-223.69 526.51c-44.641 14.206-96.605-6.5793-136.84-7.0997z"
          fill="#fbecd8"/>
</svg>
