<svg width="517.35" height="104.83" preserveAspectRatio="xMidYMid" version="1.1" viewBox="-112.7 11 517.35 104.83"
     xmlns="http://www.w3.org/2000/svg">
    <g transform="translate(-105.51 -12.306)">
        <path transform="translate(4.0244 27.668)"
              d="m15.354 88.864-13.847-29.116c-0.26369-0.55445-0.72092-0.84758-1.3742-0.87516-0.58805-0.05875-1.1764 0.05417-1.763 0.33934-1.108 0.53861-2.1493 1.224-3.1176 2.0542-0.9033 0.79749-1.6822 1.6783-2.3331 2.6382-0.33105 0.52321-0.5846 1.0412-0.76109 1.553-0.13601 0.39452-0.2273 0.78571-0.27333 1.1733-0.20625 1.0149-0.10333 1.899 0.30424 2.6572 0.29074 0.54083 0.61935 0.92204 0.98318 1.1451 0.32048 0.1419 0.63983 0.28486 0.95817 0.42877 0.27782-0.0084 0.55493-0.01587 0.83137-0.02251 0.0072-0.0038 0.014407-0.0076 0.02161-0.01136 0.1494-0.07857 0.29886-0.15695 0.44837-0.23516 0.50157-0.26236 0.88108-0.5279 1.1392-0.79922 0.22984-0.3258 0.46063-0.65122 0.69232-0.97625 0.15102-0.2494 0.30255-0.49865 0.45457-0.74773 0.16977-0.2925 0.38183-0.50263 0.63533-0.62998 0.28107-0.07248 0.56206-0.1444 0.84297-0.21577 0.28092-0.07138 0.60283-0.05977 0.96497 0.03521 0.36217 0.09498 0.68754 0.27707 0.97635 0.54568 0.35203 0.23761 0.649 0.60491 0.89222 1.1013 0.32424 0.66169 0.45092 1.3177 0.38319 1.967-0.040621 0.70449-0.24022 1.3169-0.5985 1.8386-0.24162 0.6009-0.62815 1.1382-1.1597 1.6146-0.58717 0.36687-1.1726 0.73615-1.7562 1.108-0.40889 0.21204-0.81298 0.38884-1.2129 0.53034-0.49766 0.17609-0.98916 0.29771-1.4753 0.36513-0.87644 0.12155-1.6924 0.07793-2.4504-0.1334-0.15423-0.03339-0.30484-0.07233-0.45182-0.11687h-1e-7c-0.61014-0.18489-1.1658-0.46458-1.6568-0.84176-0.018368-0.01411-0.036671-0.02835-0.054904-0.04271-0.20279-0.15977-0.3995-0.33106-0.58698-0.51417-0.072865-0.07001-0.14598-0.14106-0.21845-0.21339-0.30239-0.33094-0.57594-0.6999-0.81645-1.1072-0.30751-0.52082-0.55715-1.0381-0.74483-1.5544-0.03689-0.1227-0.07031-0.24108-0.10412-0.36179-0.10035-0.34042-0.17449-0.67445-0.23236-1.0102-0.13471-0.7814-0.13612-1.5489-0.0261-2.3091 0.05021-0.34676 0.12712-0.69154 0.23054-1.0342 0.33634-1.3332 0.95654-2.6562 1.8375-3.9581h2e-7c0.46647-0.68931 1.0123-1.3748 1.6371-2.0546 1.8035-1.962 4.1304-3.8046 6.9568-5.4894 1.3215-0.7877 2.6994-1.5528 4.1331-2.295 1.6316-0.84458 3.342-1.6636 5.1303-2.4543 3.8196-1.6888 7.435-2.8491 10.804-3.5026 3.3942-0.59705 6.4821-0.56195 9.2408 0.07929 2.8268 0.616 5.291 1.951 7.3948 3.9832 2.0841 1.9764 3.7589 4.7267 5.0582 8.2421 1.2984 3.5129 1.8394 6.8503 1.6602 9.9974-0.24196 3.1723-0.98361 6.0794-2.2109 8.7285-1.3948 2.5833-3.2441 4.8996-5.5465 6.9722-2.2432 2.0487-4.8841 3.7291-7.9445 5.0752-2.0034 0.88113-3.6137 1.5104-4.8605 1.8781-0.25014 0.06362-0.49269 0.11928-0.72773 0.16695-1.0128 0.20549-1.8826 0.26018-2.615 0.16307-0.78642-0.17379-1.4815-0.52466-2.0861-1.0534-0.5415-0.69416-1.0777-1.5963-1.605-2.7051zm-3.3468-32.598 12.616 28.662c0.42046 0.95525 0.96873 1.5527 1.6414 1.7941 0.64862 0.18533 1.4176 0.08413 2.3119-0.3009 1.4309-0.61607 2.6267-1.4545 3.5936-2.523 0.96648-1.0681 1.5855-2.4838 1.8597-4.2527 0.27402-1.768 0.18055-3.9494-0.28276-6.5413-0.40095-2.6145-1.3222-5.7568-2.7758-9.4049-0.95496-2.3968-1.9747-4.4011-3.0697-6.0144-1.03-1.6385-2.0578-2.9787-3.0855-4.021-1.0927-1.0157-2.1519-1.745-3.1759-2.1883-0.9816-0.52689-1.9295-0.86652-2.8417-1.0193-0.95426-0.0687-1.7974-0.04792-2.527 0.06025-0.79547 0.13596-1.4897 0.33149-2.0813 0.58487-1.3149 0.56318-2.1773 1.2743-2.5852 2.1227-0.30207 0.73585-0.16649 1.749 0.40258 3.0419zm44.907-3.357c0.43504-1.3084 0.93712-2.5397 1.5056-3.6935 0.27992-0.47859 0.56078-0.95698 0.84257-1.4352 0.3665-0.44099 0.73395-0.8816 1.1023-1.3218 0.34524-0.34045 0.6911-0.68056 1.0376-1.0203 0.04202-0.0412 0.08404-0.0824 0.12608-0.12359 0.47337-0.34331 0.94228-0.5877 1.4058-0.73318 1.0596-0.33259 1.9799-0.29621 2.7568 0.10646 0.8435 0.38239 1.4167 1.0738 1.7229 2.0717 0.11422 0.60723 0.22866 1.2144 0.34333 1.8215-0.01355 0.77498-0.02614 1.5498-0.03776 2.3246-0.29443 0.09089-0.58879 0.18202-0.88307 0.27341-0.31292-0.5458-0.7534-0.92339-1.3221-1.1318-0.52128-0.28738-1.242-0.28729-2.1596 0.0031-0.14964 0.04736-0.29561 0.10034-0.43792 0.15895-0.48099 0.19809-0.92001 0.46035-1.3166 0.78647-0.50451 0.45185-1.0078 0.90442-1.5099 1.3577-0.49263 0.48252-0.93232 1.0135-1.3188 1.5927-0.35015 0.47026-0.69922 0.94086-1.0472 1.4118l5.8735 17.755c0.0339 0.31226 0.06793 0.62449 0.10207 0.93669 0.11588 0.34985 0.02518 0.7033-0.27086 1.0607-0.19505 0.45333-0.5331 0.88973-1.0134 1.3102-0.56214 0.38322-1.3378 0.74204-2.3276 1.0801-1.0515 0.35913-1.8932 0.52066-2.5296 0.48153-0.6978-0.01766-1.2618-0.14546-1.6926-0.38491-0.41037-0.18146-0.69773-0.40576-0.86163-0.67364-0.13298-0.27875-0.26602-0.55747-0.39911-0.83617l-7.3535-20.852c-0.20428-0.57926-0.49746-0.99683-0.88058-1.2523-0.46852-0.29029-1.029-0.31986-1.6797-0.0874-0.32532 0.11622-0.59731 0.27899-0.81574 0.48803-0.20805 0.23794-0.41576 0.47601-0.62315 0.71422-0.27817-0.16069-0.5566-0.32114-0.83528-0.48136 0.40449-0.50613 0.81041-1.0117 1.2177-1.5169 0.46213-0.55741 0.97932-1.068 1.5512-1.5313 0.55134-0.52117 1.1903-1.0067 1.9166-1.4554 0.72629-0.44873 1.5172-0.82023 2.3717-1.1136 0.85442-0.29332 1.6508-0.43431 2.3871-0.42392 0.73637 0.01039 1.3603 0.12508 1.8715 0.34264 0.49174 0.15935 0.93662 0.39961 1.3347 0.72038 0.33244 0.34258 0.60847 0.73635 0.82852 1.1811 0.20072 0.3864 0.40129 0.77286 0.6017 1.1594l0.31846 0.96205c0.03259-0.01079 0.06518-0.02157 0.09778-0.03236zm32.581 6.8252-1.8404-6.7521c-0.12915-0.47383-0.38902-0.7849-0.78033-0.93265-0.39123-0.14772-0.81575-0.15879-1.2728-0.03291-0.71822 0.1978-1.3625 0.53601-1.9314 1.0138-0.56894 0.47782-1.0298 1.086-1.3819 1.8238-0.28717 0.71946-0.44162 1.5294-0.46409 2.4297-0.08713 0.91884 0.02278 1.909 0.32736 2.9714 0.32141 1.1211 0.67168 1.9791 1.0492 2.5733 0.39453 0.6534 0.78658 1.18 1.1762 1.5798 0.40295 0.2045 0.80545 0.40945 1.2075 0.61484 0.41565 0.01017 0.84629-0.04724 1.2924-0.1721 0.50984-0.1427 0.95494-0.39396 1.3361-0.75431 0.445-0.37801 0.7788-0.78814 1.0011-1.2311 0.12582-0.54377 0.25239-1.0875 0.37969-1.6313 0.06313-0.52626 0.03053-1.0263-0.09863-1.5002zm-10.151-17.541c-0.66484 0.18741-1.2794 0.42576-1.8433 0.71453-0.61329 0.36673-1.0845 0.72615-1.4138 1.0769-0.34645 0.2918-0.60902 0.62374-0.78778 0.99544-0.17875 0.37169-0.23333 0.67551-0.1645 0.9112 0.06885 0.23576 0.28553 0.36431 0.64977 0.38628 0.37285 0.05145 0.74551 0.10328 1.118 0.15549 0.51295 0.04361 0.97666 0.16597 1.3909 0.36666 0.3974 0.14172 0.68002 0.50798 0.84868 1.0983 0.11806 0.4132 0.12058 0.79555 0.0081 1.1469-0.14529 0.36081-0.29016 0.72167-0.4346 1.0826-0.26819 0.30064-0.53591 0.60148-0.80316 0.90251-0.44078 0.19147-0.88123 0.38348-1.3214 0.57606-1.1106 0.32453-2.1282 0.24186-3.0578-0.25006-0.86389-0.51121-1.4656-1.3243-1.8008-2.4416-0.35294-1.1762-0.31556-2.2451 0.11723-3.207 0.41512-1.0205 1.0845-1.9232 2.0089-2.7053 0.88972-0.89989 1.9771-1.6303 3.2596-2.1877 1.2488-0.67543 2.5432-1.1989 3.88-1.5696 1.671-0.46337 3.293-0.71379 4.8609-0.75275 1.5521-0.09825 3.0249 0.05345 4.4145 0.45296 1.2405 0.37497 2.3647 1.0053 3.3716 1.8889 0.94053 0.9008 1.5966 2.0961 1.9743 3.5837l4.1699 16.422c0.10958 0.16224 0.2191 0.32451 0.32856 0.4868 0.0453 0.17852 0.17927 0.30293 0.40184 0.37344 0.22259 0.07051 0.46208 0.07355 0.71872 0.0092 0.38493-0.09651 0.66846-0.32538 0.85106-0.68711 0.26173-0.31815 0.52396-0.63612 0.78669-0.95391 0.26957 0.12315 0.53895 0.2465 0.80815 0.37004-0.21139 0.52599-0.42191 1.0521-0.63155 1.5782-0.33051 0.58771-0.77063 1.1399-1.32 1.6573-0.53439 0.577-1.1458 1.1113-1.8345 1.6036-0.68869 0.49239-1.5409 0.86978-2.5581 1.1347-1.2714 0.33116-2.4762 0.26927-3.6207-0.18732-1.144-0.4564-2.0701-1.3505-2.776-2.6855-0.4297 0.94347-0.92045 1.7776-1.473 2.5029-0.47266 0.76698-1.0472 1.4041-1.7246 1.9125-0.59751 0.54976-1.258 0.99118-1.9825 1.325-0.6446 0.37492-1.3448 0.67146-2.1016 0.89036-0.946 0.27361-1.9023 0.39332-2.8714 0.35926-0.96902-0.03406-1.8879-0.24049-2.7583-0.62022-0.8072-0.39864-1.6063-0.99093-2.3981-1.777-0.66502-0.82431-1.2143-1.9412-1.644-3.3505-0.5015-1.6448-0.59441-3.0925-0.27215-4.3454 0.43283-1.3501 1.1352-2.5233 2.1074-3.5163 1.0019-1.1298 2.1748-2.1776 3.5183-3.1399 1.4086-0.981 2.8239-1.9563 4.2457-2.926 1.0457-0.8011 1.7193-1.6858 2.0183-2.6586 0.29896-0.9727 0.32943-1.9032 0.08741-2.7917-0.37108-1.3624-1.0995-2.3415-2.1915-2.9334-1.1579-0.5734-2.5054-0.64715-4.0346-0.2164-0.04157-0.02018-0.08315-0.04035-0.12474-0.06052zm62.763-7.1512c-0.20598-1.2112-0.51578-2.2176-0.93142-3.0196-0.26982-0.76425-0.58715-1.3957-0.95244-1.8944-0.27653-0.3891-0.55347-0.77803-0.83082-1.1668-0.25643-0.2677-0.41109-0.5527-0.46354-0.85529-0.0525-0.30256 0.0419-0.56805 0.28345-0.79626 0.27567-0.23402 0.55166-0.46786 0.82796-0.70151 0.32599-0.14862 0.65219-0.29698 0.97859-0.44508 0.34178-0.05726 0.68361-0.11423 1.0255-0.17091 0.61534-0.10201 1.0702-0.11423 1.3637-0.03778 0.29361 0.07648 0.54864 0.34613 0.76494 0.80882 0.29459 0.51228 0.54511 1.1871 0.75212 2.0248 1e-5 4.8e-5 0.57792 2.8931 0.57793 2.8932 0.23797 1.4552 0.3989 3.0773 0.48566 4.868 0.15395 1.7796 0.17467 3.5806 0.0658 5.4032-0.17549 1.8334-0.42341 3.6171-0.74235 5.3509-0.38492 1.7447-0.89376 3.3247-1.5258 4.7402-0.69759 1.4267-1.5287 2.6291-2.4947 3.6089-1.0312 0.99128-2.2565 1.6148-3.6822 1.8748-1.1017 0.20085-2.1447 0.17584-3.1322-0.07604-0.98741-0.25185-1.9138-0.70041-2.7805-1.3466-0.79007-0.59838-1.6058-1.3157-2.4484-2.1517-0.66495-0.96466-1.3323-1.9283-2.002-2.8908-0.22921 1.2349-0.53918 2.3927-0.92932 3.4735-0.44302 1.1541-0.94542 2.1647-1.5082 3.0324-0.56276 0.86771-1.2507 1.6058-2.0644 2.2157-0.81372 0.60995-1.7337 1.0249-2.7628 1.2466-1.2863 0.2771-2.4696 0.25412-3.5548-0.07103-1.0717-0.26519-2.0638-0.76559-2.9779-1.5025-0.9785-0.7222-1.866-1.621-2.6616-2.6975-0.86045-1.0616-1.6343-2.1737-2.3199-3.3375-0.69963-1.2235-1.3438-2.4912-1.9314-3.8034-0.54767-1.2901-1.097-2.5797-1.6479-3.8687-0.44933-1.1554-0.89969-2.3104-1.3511-3.4651-0.33502-0.96152-0.67055-1.9229-1.0066-2.8841-0.37197-0.66869-0.74945-1.2096-1.1324-1.6229-0.35417-0.29381-0.86697-0.36023-1.5373-0.19774-0.32062 0.14088-0.64107 0.28204-0.96133 0.42348-0.19787 0.20633-0.39552 0.41275-0.59295 0.61928-0.29294-0.1809-0.58614-0.36158-0.8796-0.54203 0.45452-0.46004 0.91016-0.91954 1.3669-1.3785 0.59832-0.46189 1.198-0.92284 1.799-1.3828 0.60099-0.45998 1.285-0.87554 2.0519-1.2457 0.76681-0.37018 1.5898-0.65716 2.4678-0.86023 1.2157-0.28117 2.2782-0.30231 3.1837-0.06614 0.89208 0.17633 1.6074 0.52015 2.1458 1.0294 0.60586 0.49423 1.0756 1.0194 1.4102 1.5743 6e-5 1.32e-4 0.80073 1.7096 0.80079 1.7097 0.88481 2.4143 1.7654 4.8298 2.6416 7.2467 0.87013 2.0723 1.6904 3.7797 2.4616 5.1208 0.70573 1.3553 1.37 2.3748 1.994 3.058 0.67656 0.60932 1.3393 0.84572 1.9912 0.7092 0.39115-0.08192 0.74437-0.34365 1.0608-0.78544 0.3942-0.39519 0.69271-0.9268 0.89576-1.5952 0.26852-0.68178 0.44813-1.4704 0.53854-2.366 0.20958-0.9824 0.34308-2.0117 0.3997-3.0879-0.40613-0.98298-0.8133-1.9656-1.2215-2.948 7e-5 2.06e-4 -0.99043-2.8065-0.99036-2.8063-0.28506-0.8819-0.57058-1.7637-0.85657-2.6453-0.24272-0.67114-0.4858-1.3422-0.72923-2.0131-0.70833-1.7356-0.81487-3.0919-0.30952-4.0729 0.49228-1.0396 1.7598-1.7684 3.8006-2.1695 0.95218-0.1871 1.7868-0.25486 2.5022-0.20476 0.63575 0.0029 1.1925 0.14699 1.6696 0.43159 0.48865 0.34495 0.93145 0.82393 1.3284 1.4368 0.39701 0.6129 0.75936 1.4196 1.0876 2.4204 0.84863 2.4654 1.6926 4.932 2.5319 7.4 0.81644 2.1599 1.5609 3.9589 2.2357 5.3966 0.67471 1.4375 1.3515 2.5322 2.0311 3.2835 0.60299 0.70285 1.2314 0.99611 1.8878 0.88019 0.65657-0.11594 1.2431-0.62372 1.7636-1.5241 0.4546-0.88881 0.76561-2.0328 0.93304-3.4319 0.24406-1.3497 0.31723-2.9199 0.2174-4.7091-0.0227-1.7401-0.18702-3.5188-0.49625-5.3352 0.0285-0.03594 0.057-0.07188 0.0856-0.10781zm10.728 7.7077-1.068-6.921c5.3837-0.81853 10.78-1.5648 16.186-2.2399l0.88622 6.9483c-5.3459 0.66696-10.681 1.4041-16.004 2.2126zm47.452 2.0677c-1.0391-2.6034-2.0885-5.2043-3.1481-7.8027-3.9354 0.3099-7.8673 0.65623-11.795 1.0395-0.62024 2.5919-1.3646 4.8589-2.2338 6.8006-0.80285 1.9351-1.7285 3.5767-2.7788 4.9256-1.1162 1.3561-2.3242 2.417-3.6283 3.1841-1.4353 0.7822-3.0316 1.2791-4.7954 1.4948-0.97988 0.11986-1.9382 0.14667-2.8762 0.08015-0.93011-0.0056-1.7417-0.11704-2.4358-0.33581-0.75954-0.21022-1.3563-0.44036-1.7905-0.69216-0.51611-0.3647-0.80848-0.78996-0.87576-1.2769-0.0505-0.36517-0.0312-0.70876 0.0582-1.0308 0.12217-0.32647 0.24459-0.6529 0.36727-0.9793 0.14723-0.39169 0.34021-0.69643 0.57883-0.91411 0.30446-0.22643 0.62167-0.36132 0.95118-0.40458 0.39545-0.05193 0.75352 0.11833 1.0734 0.51055 0.25407 0.4008 0.61048 0.81926 1.0687 1.2562 0.46615 0.49778 1.0179 0.8921 1.6552 1.1836 0.64531 0.35253 1.4913 0.46377 2.5404 0.33644 1.0491-0.12733 2.0067-0.4574 2.8754-0.99156 0.92703-0.60279 1.7913-1.4743 2.596-2.6153 0.80462-1.1409 1.517-2.5479 2.1388-4.2216 0.68816-1.6807 1.2833-3.6593 1.7866-5.9354-2.4486 0.25371-4.8955 0.52184-7.3402 0.80452l-0.30373-2.5629c2.7575-0.31895 5.5175-0.61947 8.2797-0.90171 0.44868-2.2079 0.90432-4.4155 1.3669-6.6228 0.3976-2.1699 0.80133-4.3396 1.2112-6.5091 0.36532-1.9182 0.73544-3.8362 1.1104-5.7539 0.23394-1.5651 0.47059-3.13 0.70992-4.6949-0.51782-1.0016-1.1804-1.65-1.9872-1.9441-0.73638-0.30057-1.7369-0.39015-2.9988-0.26488-1.1918 0.11831-2.4029 0.39625-3.6305 0.8341-1.2276 0.43787-2.3315 1.0209-3.3101 1.7472-0.97865 0.72632-1.7342 1.5232-2.2677 2.3883-0.59606 0.93416-0.83037 1.9204-0.70743 2.9577 0.0723 0.61017 0.23405 1.0864 0.48458 1.4285 0.23976 0.25067 0.47926 0.50148 0.71852 0.75242 0.25591 0.09441 0.5117 0.18898 0.76737 0.2837 0.20702-0.02345 0.41405-0.0468 0.62109-0.07005 0.4831-0.05425 0.89022-0.16125 1.2217-0.32147 0.32455-0.22127 0.64942-0.4423 0.97461-0.66308 0.22492-0.17898 0.45002-0.35783 0.67531-0.53657 0.25651-0.213 0.52337-0.33422 0.80023-0.36363 0.28352 0.03169 0.56697 0.06356 0.85037 0.09562s0.5766 0.15597 0.87925 0.37175c0.23998 0.28406 0.47969 0.56824 0.71911 0.85257 0.1768 0.35256 0.29389 0.80384 0.35167 1.3539 0.077 0.73338 7e-3 1.3893-0.21013 1.9675-0.27901 0.64647-0.67624 1.1509-1.1918 1.514-0.50238 0.48527-1.051 0.85252-1.6467 1.1021-0.67766 0.13483-1.355 0.27074-2.032 0.40775-1.0259 0.11392-1.9664 0.06631-2.8234-0.14399-0.85691-0.21028-1.5962-0.58721-2.2185-1.132-0.69082-0.53666-1.2195-1.1536-1.5848-1.8521-0.43405-0.69013-0.70508-1.4618-0.81129-2.3154-0.15172-1.2195-0.0544-2.4075 0.29582-3.564 0.35772-1.0954 0.93727-2.1243 1.7408-3.085 0.65678-1.0052 1.5445-1.8817 2.6636-2.6265 1.112-0.80583 2.3086-1.5251 3.5888-2.1566 1.2869-0.57033 2.6604-1.0222 4.1186-1.3539 1.3815-0.38582 2.848-0.65206 4.3971-0.79703 2.1117-0.19763 3.8859-0.23004 5.3151-0.10559 1.5762 0.1737 2.8826 0.53013 3.9173 1.0642 1.0349 0.53415 1.8663 1.2099 2.495 2.025 0.69881 0.80985 1.302 1.7817 1.8103 2.9153 2.8819 6.9057 5.6906 13.83 8.4269 20.77 2.2995-0.1447 4.5999-0.27716 6.9011-0.39749l0.14412 2.5773c-2.0226 0.10575-4.0445 0.22091-6.0657 0.34554 0.9724 2.4647 1.9356 4.9316 2.8896 7.4005 0.0817 0.24153 0.16333 0.48307 0.24488 0.72462 0.11483 0.23964 0.22954 0.47931 0.34414 0.71901 0.17362 0.11321 0.34716 0.22648 0.5206 0.33983 0.14023 0.11522 0.34313 0.16538 0.60881 0.15066 0.59781-0.03311 1.157-0.15559 1.6784-0.36772 0.42164-0.20688 0.84368-0.41334 1.2661-0.61939 0.18635 0.35978 0.37243 0.71963 0.55823 1.0796-0.45016 0.2994-0.89968 0.59928-1.3486 0.89962-0.64616 0.3414-1.2913 0.68378-1.9354 1.0271-0.78015 0.2893-1.5593 0.58003-2.3374 0.87218-0.91418 0.23861-1.8992 0.39104-2.9562 0.45832-1.3213 0.08409-2.4233-0.02645-3.3092-0.33518-0.88129-0.24738-1.5721-0.59856-2.0725-1.0555-0.56653-0.4522-0.96869-0.91553-1.2056-1.3911-0.23683-0.47556-0.47412-0.95099-0.71185-1.4263zm-4.0684-10.319c-2.2558-5.4613-4.5575-10.911-6.9053-16.349-0.59088 3.0756-1.1698 6.1518-1.7367 9.2285-0.57074 2.6759-1.1315 5.3524-1.6821 8.0294 3.4383-0.33116 6.8798-0.63417 10.324-0.90932zm22.678 1.8188-0.34087-6.9979c5.4476-0.24504 10.898-0.4227 16.35-0.53418l0.17155 7.0025c-5.3961 0.11088-10.791 0.28701-16.181 0.5296zm55.04 0.86037c-1.0401-0.03368-2.0804-0.0646-3.1206-0.09275-3.5772-6.9784-7.2868-13.923-11.128-20.831-0.16683 2.3018-0.33211 4.6036-0.49584 6.9054-0.12586 1.9951-0.25072 3.9901-0.37456 5.9853-0.0902 2.0258-0.28032 3.9289-0.5677 5.7079-0.28801 1.8405-0.70645 3.4969-1.2527 4.9685-0.49857 1.398-1.1867 2.6175-2.0621 3.6598-0.085 0.10004-0.17182 0.19842-0.26038 0.29513-1.005 1.1586-2.3368 2.0403-3.9958 2.6507-1.5933 0.61082-3.5794 0.91866-5.9668 0.9346-1.061 0.0071-2.0562-0.04519-2.9866-0.15771-0.99763-0.17322-1.8642-0.4071-2.6003-0.70332-0.80131-0.23377-1.4054-0.53054-1.8122-0.8921-0.47455-0.42175-0.71805-0.87793-0.72913-1.3694 0.059-0.33909 0.11808-0.67818 0.17727-1.0173 0.0585-0.3698 0.18521-0.67937 0.38031-0.92865 0.19243-0.37213 0.454-0.65321 0.78469-0.84305 0.26378-0.18871 0.59659-0.28625 0.99811-0.29229 0.20075-3e-3 0.40384 0.1169 0.60893 0.35977 0.20509 0.24287 0.40996 0.48583 0.61462 0.72888 0.20677 0.36591 0.41321 0.7319 0.61932 1.098 0.33852 0.303 0.67658 0.60626 1.0142 0.90976 0.33853 0.36494 0.77549 0.66757 1.3108 0.90848 0.53463 0.17951 1.2005 0.26623 1.9986 0.26141 1.6626-0.01004 3.0234-0.28862 4.0868-0.84144 1.0634-0.49126 1.9621-1.2258 2.6971-2.2054 0.66807-0.91836 1.2056-2.0516 1.6118-3.3999 0.40628-1.4097 0.7148-2.9429 0.92384-4.5992 0.0711-0.9206 0.14244-1.8412 0.21406-2.7618 0.10555-0.92028 0.21151-1.8405 0.31787-2.7607 0.0213-0.26247 0.0426-0.52494 0.0639-0.78741 0.0509-0.62777 0.10201-1.2555 0.15324-1.8833 0.0729-0.95181 0.14623-1.9036 0.21984-2.8554 0.11032-1.4123 0.22136-2.8246 0.33312-4.2369 0.0761-1.2281 0.15269-2.4562 0.22966-3.6843 0.0759-1.0438 0.15206-2.0877 0.22862-3.1315l0.0159-2.4871c-0.34741-0.55328-0.69576-1.1063-1.045-1.6589-0.0141-0.02905-0.0284-0.057539-0.0429-0.085466-0.19889-0.38728-0.4291-0.66798-0.69047-0.84204-0.35031-0.2487-0.70134-0.40502-1.0527-0.46897-0.45683-0.034-0.91374-0.067555-1.3707-0.10066-0.52732 0.058646-1.0545 0.11789-1.5816 0.17774-0.70271 0.12074-1.4049 0.33468-2.1058 0.64182-0.70089 0.30715-1.4009 0.61537-2.1 0.92467-0.69817 0.43214-1.2896 0.89576-1.7747 1.3899-0.48509 0.49422-0.89846 1.05-1.2403 1.6669-0.34189 0.61696-0.50737 1.2941-0.49788 2.0313 8e-3 0.61424 0.11869 1.1048 0.33179 1.4717 0.14361 0.36746 0.35536 0.64227 0.6352 0.82459 0.21042 0.18282 0.45468 0.30405 0.73291 0.36381 0.17348-1e-3 0.34697-2e-3 0.52045-0.0029 0.55518-0.0029 1.0056-0.06604 1.3517-0.19003 0.34561-0.18541 0.69148-0.37055 1.0376-0.55543 0.24214-0.15398 0.48444-0.30784 0.72689-0.46156 0.20754-0.18441 0.48525-0.27665 0.83292-0.27646 0.27837 0.06157 0.55668 0.1233 0.8349 0.1852 0.27822 0.0619 0.55664 0.2161 0.83493 0.46258 0.20894 0.3077 0.4176 0.61549 0.62599 0.92337 0.13909 0.36907 0.20862 0.82992 0.20895 1.3827 4.5e-4 0.73697-0.1376 1.3813-0.41309 1.9331-0.34449 0.61299-0.79182 1.0724-1.3421 1.3787-0.54996 0.42915-1.1338 0.7361-1.7522 0.92108-0.68792 0.06221-1.3757 0.12546-2.0633 0.18975-1.0322 0.0043-1.9625-0.14309-2.7927-0.44345-0.83015-0.30034-1.5253-0.72322-2.0858-1.2699-0.62946-0.54586-1.0895-1.1851-1.3791-1.9186-0.35877-0.73254-0.54684-1.5287-0.56252-2.3887-0.0369-2.0273 0.45212-3.7852 1.4779-5.272 1.0255-1.4863 2.4114-2.7288 4.1591-3.7211 1.6765-1.0532 3.6098-1.7946 5.7944-2.2179 1.5166-0.3479 3.0898-0.56421 4.7174-0.64789 0.64364-0.039293 1.2958-0.057969 1.9563-0.055948 1.7705 0.00542 3.2572 0.17101 4.4555 0.49032 1.2694 0.32012 2.3233 0.73409 3.161 1.2383 0.62352 0.62386 1.2452 1.2487 1.8649 1.8744 0.54652 0.74727 1.0199 1.5247 1.4207 2.3317 2.747 5.1871 5.4226 10.393 8.0264 15.617 2.1539-3.3969 4.342-6.7825 6.5643-10.156 1.9587-2.9851 3.8231-5.5998 5.5765-7.8425 1.687-2.3084 3.2985-4.2158 4.823-5.7229 1.5285-1.5685 2.9774-2.8295 4.3385-3.7843 1.3613-0.95486 2.709-1.6295 4.0382-2.0243 1.3292-0.39481 2.678-0.53775 4.0421-0.42844 1.2204 0.097798 2.1713 0.39323 2.8504 0.88233 0.67934 0.48932 0.9791 1.163 0.90215 2.0196-0.0715 0.79538-0.2693 1.395-0.59246 1.7988-0.33414 0.52626-0.7142 0.77129-1.1412 0.73537-0.49821-0.041906-0.84088-0.22428-1.0284-0.54796-0.18748-0.32366-0.37527-0.64723-0.56339-0.97071-0.22379-0.32639-0.44795-0.65265-0.67249-0.9788-0.33683-0.2735-0.79159-0.43293-1.3637-0.47748-0.35753-0.027842-0.79417 0.030888-1.3092 0.17668-0.5556 0.20433-1.1106 0.40939-1.6651 0.6152-0.59958 0.3257-1.1672 0.71612-1.7025 1.171-0.61122 0.51113-1.1185 1.0919-1.5225 1.7416-0.47508 0.64492-0.8864 1.4176-1.2343 2.318-0.20195 0.8486-0.30342 1.796-0.3059 2.8425 7e-3 1.4165 0.0133 2.833 0.0189 4.2495 0 4e-6 0.15102 5.2745 0.15102 5.2745 0.0726 1.9137 0.14333 3.8273 0.21209 5.741 0.0643 1.9749 0.12664 3.9498 0.18696 5.9246 0.0693 1.8523 0.13677 3.7046 0.20235 5.5568 0.0838 1.6072 0.16603 3.2144 0.24661 4.8215 0.0414 1.2348 0.0819 2.4696 0.12165 3.7044 0 1.2e-5 0.25084 1.9586 0.25084 1.9586 0.0855 0.62222 0.21556 1.0938 0.39018 1.4148 0.17465 0.32099 0.49309 0.49864 0.95567 0.53375 0.66087 0.05016 1.2298 0.0021 1.7077-0.14516 0.44479-0.14981 0.88994-0.2991 1.3355-0.44789 1e-5 2.6e-5 0.40203 1.1422 0.40204 1.1423-0.48569 0.23758-0.97077 0.47577-1.4552 0.71457-0.68484 0.25368-1.3687 0.50857-2.0517 0.76467-0.8098 0.18484-1.6187 0.37139-2.4268 0.55963-0.86928 0.12226-1.8294 0.14746-2.8821 0.07701-1.3816-0.09248-2.4873-0.34628-3.3201-0.76651-0.77064-0.35479-1.372-0.78998-1.804-1.3072-0.43195-0.51722-0.69819-1.0551-0.79747-1.6145-0.10296-0.498-0.20625-0.99598-0.30988-1.4939-0.095-1.205-0.19093-2.41-0.28791-3.6149-0.14762-1.4846-0.297-2.9691-0.44812-4.4536 0 1.3e-5 -0.22929-4.9026-0.22929-4.9026 1e-5 1.4e-5 -0.23755-4.9026-0.23755-4.9026 0 1.6e-5 -0.26095-4.6266-0.26095-4.6266 0 3e-6 -0.11038-3.696-0.11038-3.696-0.74319 0.8851-1.3794 1.7769-1.9099 2.6741-0.59792 0.86331-1.1935 1.7275-1.7866 2.5925-0.5603 0.89726-1.1183 1.7953-1.674 2.6941-0.59839 1.0814-1.1938 2.1637-1.7863 3.2469-0.7366 1.2619-1.4689 2.5251-2.1968 3.7897-0.77162 1.5088-1.5378 3.0191-2.2986 4.5308zm30.747-2.6354c0.22031-2.5097 0.81836-4.6779 1.8067-6.5047 0.91444-1.771 2.1175-3.2378 3.6126-4.3962 1.4948-1.1582 3.1719-1.9557 5.0265-2.3879 1.9233-0.42532 3.8542-0.5324 5.7844-0.3211 2.0681 0.22639 3.9316 0.7193 5.5837 1.4728 1.7825 0.83103 3.2799 1.946 4.4891 3.3386 1.2175 1.332 2.0741 2.9625 2.5729 4.8881 0.56688 1.9353 0.6727 4.1493 0.3295 6.6453-0.34306 2.4949-1.0508 4.663-2.1103 6.5049-1.0515 1.7815-2.2908 3.2615-3.7158 4.4425-1.491 1.1728-3.1602 1.987-5.012 2.4472-1.7791 0.40711-3.6146 0.50584-5.5151 0.29804-1.835-0.20064-3.6039-0.69413-5.315-1.4823-1.6452-0.78152-3.0687-1.8421-4.2737-3.1866-1.1989-1.4053-2.0816-3.0866-2.6442-5.0466-0.62904-1.9652-0.83965-4.2034-0.61943-6.712zm19.413 1.6839c0.18409-1.5249 0.29727-3.0271 0.33807-4.5069 0.0335-1.419-0.054-2.697-0.26392-3.8349-0.20988-1.1378-0.58343-2.0776-1.1213-2.8191-0.61338-0.68811-1.436-1.0898-2.4651-1.2025-1.0292-0.11265-1.8866 0.10515-2.5695 0.65096-0.76482 0.6609-1.3754 1.5242-1.8329 2.589-0.47046 1.187-0.81192 2.4798-1.0269 3.8784-0.28919 1.4527-0.51275 2.9429-0.67221 4.4705-0.15945 1.5276-0.24844 3.0315-0.26846 4.5115-0.0868 1.473-0.0214 2.7769 0.19396 3.9104 0.20245 1.2558 0.60089 2.2236 1.1947 2.9036 0.58072 0.80241 1.3304 1.253 2.2522 1.3538 1.0535 0.11521 1.9181-0.15819 2.5972-0.82303 0.74482-0.65714 1.3196-1.5494 1.7228-2.6776 0.47658-1.1815 0.87059-2.4964 1.1802-3.9445 0.30959-1.4481 0.5609-2.9653 0.75233-4.551zm45.064-3.7968-4.0742 20.798c-0.0472 0.24113-0.0233 0.46477 0.0715 0.67091-0.0355 0.18085 0.0326 0.3505 0.2042 0.50908 0.22188 0.07452 0.4437 0.14917 0.66545 0.22395 0.39038 0.07655 0.77203 0.02661 1.1456-0.14987 0.34105-0.18293 0.68242-0.36556 1.0241-0.54788 0.19157 0.22619 0.3829 0.45247 0.57397 0.67884-0.44944 0.37959-0.89809 0.7597-1.346 1.1403-0.55134 0.39137-1.1929 0.73398-1.9246 1.0288-0.73166 0.29487-1.5473 0.5118-2.4474 0.65198-0.90019 0.14018-1.8994 0.1069-3.0004-0.09821-0.8419-0.15684-1.5643-0.41444-2.1683-0.77425-0.6151-0.29936-1.1116-0.70088-1.4898-1.2055-0.38918-0.44415-0.63845-0.92514-0.74708-1.4435-0.17377-0.5299-0.20713-1.0972-0.099-1.702l0.2271-1.2699c-1.2318 0.84291-2.4697 1.5631-3.7152 2.1606-0.57966 0.24382-1.1585 0.48852-1.7366 0.7341-0.63811 0.20436-1.2754 0.4098-1.912 0.61631-0.61632 0.08532-1.2322 0.17165-1.8478 0.25899-0.6806 0.07683-1.3459 0.06395-1.9967-0.03879-1.1715-0.18493-2.1796-0.55802-3.0269-1.122-0.78203-0.55399-1.3846-1.2031-1.8072-1.9491-0.43171-0.68512-0.71613-1.4721-0.85223-2.3612-0.13611-0.88918-0.14197-1.7591-0.0158-2.61l2.6088-17.593 0.0811-0.54694c0.036-0.24309-4.9e-4 -0.46571-0.10982-0.66787 0.027-0.18231-0.0573-0.31876-0.25291-0.4092-0.18665-0.1512-0.45064-0.25144-0.79178-0.3004-0.34114-0.04896-0.70008 0.02396-1.0762 0.21885-0.34201 0.19972-0.68369 0.39974-1.025 0.60004-0.21243-0.21588-0.42511-0.43165-0.63802-0.64731 0.43971-0.40411 0.88022-0.80774 1.3215-1.2109 0.54818-0.4191 1.1957-0.79266 1.9427-1.1197 0.74699-0.32698 1.5892-0.57705 2.5261-0.74894 0.93686-0.17188 1.9893-0.16944 3.1548 0.0092 0.89122 0.1366 1.6604 0.38085 2.3063 0.73124 0.64598 0.35041 1.1785 0.74637 1.5977 1.1869 0.4192 0.44056 0.69084 0.9202 0.81563 1.4383 0.19299 0.52922 0.23891 1.0969 0.13884 1.703l-3.122 18.911c0.0158 0.31378 0.0315 0.62755 0.0471 0.94131 0.0913 0.26387 0.18246 0.52776 0.27344 0.79167 0.16667 0.21405 0.33313 0.42817 0.49939 0.64236 0.24195 0.16441 0.55934 0.27916 0.9524 0.34465 0.65508 0.10914 1.2701 0.05708 1.8464-0.15661 0.69694-0.13089 1.3066-0.33774 1.8294-0.62144 0.49524-0.31962 0.99128-0.6386 1.4881-0.95694 0.31647-0.25639 0.63332-0.51252 0.95055-0.7684l2.9524-16.509 0.0973-0.54425c0.0433-0.24189 0.0134-0.46553-0.0899-0.67089-0.0354-0.19339-0.14954-0.33829-0.34239-0.43455-0.11421-0.1448-0.34111-0.24704-0.68061-0.30627-0.40741-0.07108-0.76828-0.0089-1.0821 0.18628-0.3817 0.18346-0.76303 0.36728-1.144 0.55147-0.20594-0.22216-0.41212-0.44422-0.61854-0.66616 0.48535-0.385 0.97157-0.7694 1.4586-1.1532 0.56033-0.40238 1.2186-0.75625 1.9749-1.0605 0.7563-0.30429 1.6055-0.52882 2.547-0.67234 0.9415-0.14351 1.9591-0.11536 3.0505 0.08567 0.88671 0.16334 1.6823 0.43689 2.3856 0.81952 0.63518 0.3698 1.1556 0.7817 1.5614 1.2347 0.40583 0.45305 0.66302 0.9407 0.77228 1.4624 0.17709 0.53483 0.20605 1.1036 0.088 1.7065zm24.156 16.871c0.58277-2.3876 0.90963-4.2974 0.97845-5.7352 0.0688-1.437-3e-3 -2.5915-0.21624-3.464-0.16054-0.79664-0.48017-1.3785-0.95841-1.7449-0.41126-0.3504-0.8518-0.58088-1.3208-0.69124-0.66996-0.15767-1.2414-0.13319-1.7132 0.07246-0.51226 0.22779-1.0239 0.45625-1.5349 0.68538-0.35066 0.29752-0.70088 0.59534-1.0506 0.89346-0.2692 0.25352-0.53811 0.50723-0.80674 0.76111l-4.2931 18.771c-0.13302 0.28472-0.26595 0.56948-0.39877 0.85427-0.13284 0.28482-0.39444 0.54033-0.78435 0.76718-0.40353 0.28676-0.92154 0.48492-1.5541 0.59553-0.68362 0.03634-1.5389-0.05905-2.5685-0.28382-1.0939-0.23882-1.9044-0.53819-2.433-0.90239-0.59277-0.37783-1.0126-0.78038-1.2589-1.209-0.25909-0.3685-0.38955-0.70961-0.39071-1.0237 0.0312-0.30727 0.0623-0.61455 0.0934-0.92184l4.572-21.636c0.127-0.60101 0.0603-1.1171-0.20123-1.5483-0.18135-0.47708-0.61018-0.78624-1.2861-0.92567-0.33792-0.06971-0.6546-0.07201-0.94975-7e-3 -0.30137 0.09508-0.60256 0.19039-0.90359 0.28593-0.18713-0.28875-0.37457-0.57742-0.56234-0.866 0.64245-0.21495 1.2857-0.42885 1.9297-0.64169 0.61635-0.24985 1.3228-0.41779 2.1189-0.5028 0.74094-0.15925 1.5379-0.24286 2.3902-0.25013 0.85228-0.0073 1.7196 0.08464 2.6007 0.27594 1.3555 0.29428 2.3591 0.73701 3.0087 1.3221 0.71743 0.60034 1.1826 1.2092 1.3972 1.8243 0.20095 0.67511 0.26598 1.3198 0.19644 1.9338-0.049 0.52425-0.0982 1.0485-0.14763 1.5727 0.9699-0.85034 2.05-1.5481 3.2403-2.0915 0.48727-0.2652 0.99484-0.46216 1.5225-0.59074 0.55579-0.24814 1.1656-0.41992 1.829-0.51482 0.61032-0.17065 1.2336-0.24272 1.8691-0.21607 0.71731-0.01682 1.4133 0.05724 2.087 0.22196 1.3475 0.32946 2.534 0.8775 3.5558 1.641 0.93978 0.80633 1.6322 1.87 2.0763 3.1887 0.51102 1.3361 0.72394 2.9769 0.641 4.9228-0.0985 2.0061-0.50826 4.3726-1.2242 7.1066-0.69989 2.6728-1.6089 4.9444-2.7158 6.8137-1.0272 1.8272-2.1091 3.3565-3.2441 4.5876-1.2482 1.1391-2.4935 2.0281-3.7382 2.6668-1.3086 0.62283-2.5605 1.0417-3.7593 1.2558-1.2134 0.2737-2.317 0.38788-3.3141 0.34064-0.88735-0.08433-1.7746-0.16649-2.6619-0.24648-5e-3 -0.41094-9e-3 -0.8219-0.0144-1.2329 0.60203 0.01343 1.1933-0.06927 1.7745-0.2482 0.58116-0.17893 1.1275-0.49151 1.6395-0.93805 0.57588-0.43132 1.1249-1.0264 1.6471-1.7854 0.52215-0.75895 1.0642-1.7342 1.6264-2.9253 0.52344-1.4532 1.0482-2.9061 1.5742-4.3586 0.53693-1.6387 1.0834-3.5932 1.6367-5.8599zm34.089-4.274c-1.6201-0.48933-3.2423-0.97157-4.8665-1.4467l-6.0083 20.509c-0.29348 1.0018-0.26863 1.745 0.0726 2.2291 0.26045 0.52461 0.73954 0.8897 1.438 1.0972 0.50801 0.15092 1.0279 0.14598 1.5607-0.01474 0.4376-0.1893 0.87567-0.37808 1.3142-0.56634 0.50586-0.29621 0.96675-0.66977 1.3825-1.121 0.28271 0.21435 0.56513 0.42892 0.84725 0.64372-0.57961 0.52906-1.158 1.0589-1.7351 1.5896-0.59501 0.58948-1.3293 1.0728-2.2021 1.4519-0.80964 0.39808-1.7805 0.65254-2.9134 0.76624-1.1331 0.11372-2.4556-0.04985-3.9736-0.48636-0.94869-0.2728-1.7692-0.63383-2.4629-1.085-0.75695-0.46898-1.3788-1.0573-1.8662-1.7665-0.48742-0.70911-0.78525-1.492-0.89223-2.3494-0.1708-0.87487-0.11107-1.8457 0.18179-2.9115l5.687-20.697c-1.1658-0.31953-2.3325-0.63544-3.5002-0.94773l0.52501-1.9575c0.53609 0.14338 1.3781 0.21035 2.5301 0.20539 1.1355 0.05429 2.328-0.0954 3.5811-0.44808 1.2365-0.2935 2.4747-0.83834 3.7175-1.6346 1.3097-0.77706 2.3567-1.8821 3.1366-3.3191 0.8445 0.24301 1.6885 0.48791 2.5319 0.73468l-2.3826 8.1331c1.6964 0.49625 3.3905 1.0002 5.0823 1.5119 1.6581 0.50147 2.5673 0.4948 2.73-0.0344 0.0541-0.17608-9e-3 -0.3241-0.19048-0.44392-0.20538-0.15935-0.41091-0.31859-0.61659-0.47771-0.24788-0.1399-0.43578-0.3576-0.56388-0.65329-0.14595-0.2369-0.15667-0.56105-0.0318-0.97236 0.1606-0.52884 0.48554-0.87956 0.97579-1.0513 0.42336-0.192 0.93609-0.19607 1.5371-0.01136 0.33387 0.10261 0.64058 0.29357 0.91965 0.57272 0.23052 0.19986 0.4093 0.4482 0.53625 0.74486 0.0512 0.30528 0.10223 0.61056 0.15305 0.91583-0.0581 0.30351-0.11623 0.607-0.17443 0.91048-0.36557 1.1725-1.023 1.9967-1.968 2.4754-1.0118 0.45861-2.3731 0.42394-4.0923-0.09532zm13.98 25.021 2.2718-6.6226c0.15942-0.46475 0.11922-0.86816-0.12154-1.2102-0.24071-0.34196-0.58581-0.5895-1.0348-0.74196-0.70558-0.23958-1.429-0.32146-2.1684-0.2455-0.73949 0.07596-1.4307 0.33126-2.0728 0.76523-0.70627 0.41274-1.3213 0.98573-1.8459 1.7181-0.58858 0.71144-1.0541 1.5926-1.399 2.6429-0.36396 1.1084-0.55614 2.0153-0.57744 2.7193-0.0405 0.7625-0.0118 1.4187 0.0862 1.9685 0.21878 0.39576 0.4369 0.79161 0.65436 1.1876 0.38924 0.1942 0.77811 0.38879 1.1666 0.5838 0.50217 0.16833 1.0116 0.21037 1.5295 0.12617 0.58053-0.06298 1.087-0.21506 1.5197-0.45688 0.40955-0.37949 0.81971-0.75856 1.2305-1.1372 0.34786-0.4002 0.60186-0.83246 0.76129-1.2972zm1.456-20.22c-0.65572-0.21817-1.2984-0.36596-1.9274-0.44353-0.59212 0.03152-1.1839 0.06398-1.7753 0.09737-0.31314 0.03262-0.60367 0.104-0.87151 0.21402-0.11766 0.04833-0.23094 0.10411-0.33984 0.16734-0.35681 0.20718-0.57274 0.42793-0.64825 0.66164-0.0755 0.23377 0.0315 0.46186 0.32064 0.68464 0.0462 0.03886 0.0924 0.07773 0.13865 0.1166 0.26603 0.22381 0.53177 0.4478 0.79723 0.67198 0.3347 0.30297 0.58452 0.6433 0.74951 1.0206 0.31459 0.36184 0.37523 0.83448 0.18312 1.4178-0.13448 0.4083-0.34726 0.72617-0.63784 0.95383-0.32305 0.21701-0.64579 0.43427-0.96821 0.6518-0.391 0.09814-0.78173 0.19667-1.1722 0.2956-0.18189-0.03252-0.36378-0.06495-0.54568-0.0973-0.25828-0.04589-0.51656-0.0916-0.77485-0.13713-1.1666-0.37664-1.995-1.0272-2.4878-1.9566-0.42757-0.90846-0.46824-1.9192-0.11741-3.032 0.36933-1.1714 1.0012-2.0347 1.9-2.5874 0.91708-0.61108 1.9783-0.98201 3.1826-1.1101 0.39662-0.07824 0.80019-0.13086 1.2106-0.15782 0.87462-0.05754 1.7804 0.0014 2.7161 0.17752 1.4131 0.14203 2.7789 0.43537 4.0943 0.87914 1.6442 0.55472 3.1284 1.2584 4.449 2.1071 1.3408 0.7907 2.4755 1.7441 3.4015 2.8559 0.81628 1.0077 1.3921 2.1614 1.7278 3.4586 0.27106 1.2741 0.14037 2.6316-0.38508 4.0744l-5.8004 15.927c0-8.2e-5 -3e-3 0.58718-3e-3 0.5871-0.0631 0.17311-0.0228 0.3512 0.1208 0.53437 0.14355 0.18319 0.36985 0.33131 0.67898 0.44474 0.30912 0.11344 0.67101 0.08304 1.0865-0.09087 0.36332-0.12771 0.72693-0.25503 1.0908-0.38194 0.15234 0.2531 0.30435 0.50625 0.45603 0.75945-0.46973 0.3164-0.93874 0.63344-1.407 0.9511-0.60223 0.30077-1.2745 0.51076-2.0172 0.63089-0.76384 0.17778-1.5671 0.2771-2.4106 0.29852-0.84351 0.02143-1.7572-0.14394-2.7444-0.49498-1.2339-0.43877-2.193-1.1656-2.8814-2.1857-0.68816-1.0197-0.95122-2.2796-0.7847-3.781-0.88521 0.53986-1.7282 0.96562-2.5303 1.2768-0.94675 0.32692-1.811 0.52145-2.595 0.58251-0.80343 0.11929-1.5983 0.1134-2.3861-0.0178-0.74466-0.05223-1.4916-0.20079-2.242-0.44567-0.23243-0.07585-0.46009-0.15989-0.68302-0.25215-0.67667-0.27964-1.3095-0.63485-1.8994-1.0661-0.78414-0.57334-1.4297-1.2611-1.9375-2.065-0.44478-0.78396-0.77379-1.7235-0.98756-2.8192-0.0872-1.056 0.0863-2.2887 0.52339-3.6959 0.51017-1.6424 1.2479-2.8919 2.2196-3.7468 1.118-0.8732 2.3594-1.4486 3.723-1.7236 1.0947-0.27759 2.2425-0.46374 3.4428-0.55738 0.40603-0.0316 0.81803-0.05264 1.236-0.06306 1.7178-0.02017 3.4376-0.0325 5.1596-0.03662 1.3158-0.07585 2.3705-0.42995 3.1648-1.0673 0.79413-0.63729 1.3424-1.3904 1.6415-2.2618 0.45861-1.3361 0.40593-2.5556-0.1656-3.6589-0.6365-1.1249-1.7108-1.9426-3.2189-2.4447-0.0231-0.04005-0.0462-0.08009-0.0693-0.12014zm31.01 13.985-8.5285 20.893c-0.14634 0.27189-0.29262 0.54381-0.43884 0.81576-0.23698 0.23496-0.56443 0.43301-0.98208 0.59484-0.4408 0.21874-1.0088 0.3198-1.7045 0.30482-0.67306-0.07198-1.4922-0.30067-2.4613-0.68387-0.9691-0.38319-1.7129-0.80554-2.2319-1.271-0.51891-0.46539-0.83477-0.91625-0.94624-1.3542-0.0725-0.35704-0.1455-0.71412-0.21889-1.0712l8.2615-21.496c0.22032-0.57325 0.236-1.0935 0.0457-1.5611-0.10386-0.50007-0.47878-0.87385-1.1246-1.1191-0.34466-0.06521-0.68933-0.13003-1.034-0.19447-0.2803 0.05831-0.56045 0.11687-0.84046 0.17567-0.1396-0.31488-0.2796-0.62971-0.41998-0.94451 0.63595-0.12272 1.2726-0.24418 1.9101-0.36438 0.75608-0.04254 1.5129-0.08326 2.2704-0.12215 0.75747-0.03889 1.5586 0.0062 2.4024 0.13602 0.84381 0.12982 1.6869 0.36044 2.5276 0.69189 1.2934 0.50989 2.2263 1.082 2.7975 1.7086 0.59431 0.56987 0.99107 1.1615 1.1912 1.7731 0.13597 0.58555 0.13085 1.1472-0.014 1.685-0.15358 0.46789-0.30727 0.93575-0.46106 1.4036zm-6.0403-14.566c0.19719-0.51632 0.515-0.95374 0.95454-1.3115 0.37354-0.383 0.85767-0.65782 1.4528-0.82333 0.66112-0.04133 1.3229-0.08126 1.9852-0.11977 0.66197 0.06021 1.357 0.23346 2.0839 0.52025 0.66077 0.26072 1.2873 0.60861 1.8785 1.0432 0.50244 0.46529 0.91485 0.96206 1.2372 1.4895 0.34538 0.47055 0.52357 0.97364 0.53535 1.5087 0.14286 0.5883 0.10916 1.1383-0.0994 1.6501-0.23168 0.56864-0.55919 0.99883-0.98137 1.2912-0.44537 0.34926-0.96452 0.60248-1.5573 0.76054-0.62328 0.04642-1.246 0.09414-1.8681 0.14315-0.71787-0.08843-1.4013-0.26065-2.0515-0.51714-0.71518-0.28214-1.3321-0.62259-1.8516-1.0227-0.56236-0.48269-0.97358-0.97082-1.2331-1.4659-0.41229-0.48806-0.62946-0.99872-0.65046-1.5329-0.0865-0.5592-0.0319-1.0971 0.16534-1.6134zm26.106 35.293c1.0814-2.2076 1.8113-3.9999 2.1878-5.3899 0.43707-1.3588 0.61435-2.5012 0.53028-3.4292 0.0126-0.8126-0.14608-1.4344-0.47468-1.8642-0.39062-0.45946-0.80498-0.79255-1.241-0.99888-0.62299-0.29478-1.1877-0.38984-1.6917-0.28649-0.5664 0.07423-1.0828 0.20684-1.549 0.39697-0.46621 0.19014-0.9317 0.38113-1.3965 0.57293-0.28373 0.20749-0.56714 0.41525-0.85024 0.62327l-8.0208 17.502c-0.18695 0.25208-0.37377 0.50422-0.56047 0.75644-0.12778 0.27921-0.43223 0.47743-0.91295 0.59554-0.25451 0.14923-0.5738 0.24005-0.95822 0.27271-0.20227 0.01722-0.4225 0.0184-0.66073 0.0036-0.66587-0.09882-1.4699-0.35977-2.4166-0.78051-1.0059-0.44706-1.7271-0.89713-2.1639-1.3561-0.49597-0.48473-0.82065-0.95995-0.97283-1.4273-0.17653-0.4109-0.23453-0.7701-0.17291-1.0779 0.0915-0.29487 0.18302-0.58976 0.27443-0.88468l8.7413-20.304c0.24284-0.56404 0.31067-1.0696 0.20239-1.5171-0.14742-0.53104-0.53938-0.93296-1.1754-1.2034-0.31796-0.13522-0.62829-0.20004-0.93059-0.19453-0.31426 0.03379-0.62835 0.06792-0.94229 0.1024-0.0956-0.30667-0.1915-0.61333-0.28779-0.92 0.64046-0.09779 1.2817-0.19416 1.9237-0.2891 0.71775-0.09621 1.4444-0.12056 2.1792-0.07286 0.759-0.0087 1.5584 0.06838 2.3972 0.23212s1.6729 0.42844 2.5006 0.79405c1.2733 0.56247 2.2026 1.215 2.7861 1.9496 0.20544 0.30464 0.37964 0.60919 0.5227 0.91349 0.17515 0.37258 0.30367 0.74481 0.38576 1.1165 0.12365 0.73125 0.0878 1.3904-0.10518 1.9774l-0.61368 1.34c1.1846-0.60568 2.417-1.0518 3.6964-1.3355 0.53254-0.15799 1.0714-0.24444 1.6162-0.25908 0.63381-0.04054 1.2686-0.07913 1.9043-0.11565 0.63574-0.03652 1.2643 0.02719 1.8843 0.19126 0.70971 0.13932 1.3797 0.36439 2.0082 0.67454 1.2571 0.62033 2.3079 1.4241 3.1446 2.4034 0.0207 0.02782 0.0412 0.05581 0.0615 0.08397 0.71117 0.98629 1.1678 2.1754 1.3557 3.5591 0.0422 0.81764-0.0169 1.7339-0.17919 2.7484-0.10729 0.6706-0.25946 1.3825-0.45919 2.1369-0.22448 0.72945-0.5076 1.495-0.84976 2.3021-0.56075 1.3227-1.2744 2.7225-2.1328 4.2582-0.69885 1.2503-1.4741 2.5225-2.1815 3.5457-0.63216 0.91441-1.2774 1.7586-1.9226 2.502-0.30492 0.32869-0.61001 0.64387-0.91555 0.94372-1.1182 1.0975-2.2161 2.0216-3.2968 2.7604-0.94206 0.61966-1.8836 1.1096-2.833 1.4619-0.40989 0.15216-0.81921 0.28022-1.2282 0.38414-1.3015 0.37283-2.5305 0.54881-3.6955 0.52411-1.1922 0.0304-2.2491-0.071-3.1758-0.30917-0.81519-0.2531-1.6345-0.50412-2.4578-0.75346 0.0834-0.40165 0.16643-0.80344 0.24908-1.2054 0.6261 0.15656 1.2033 0.19055 1.7342 0.10179 0.58794-0.06177 1.1996-0.24688 1.8368-0.55477 0.58016-0.33508 1.1994-0.82111 1.8587-1.4574 0.65918-0.63619 1.3858-1.4786 2.1803-2.526 0.81581-1.3104 1.6338-2.6195 2.4542-3.9273 0.87128-1.4862 1.8237-3.2797 2.8496-5.3739z"
              fill="#fff"/>
    </g>
    <style/>
</svg>
