<svg width="657mm" height="337.11mm" version="1.1" viewBox="0 0 657 337.11" xmlns="http://www.w3.org/2000/svg">
    <rect x="384.89" y="39.043" width="7.6083" height="191.55" fill="#747474" style="paint-order:normal"/>
    <path d="m108.45 25.063 19.812-24.038 112.79-0.26416 21.925 25.095z" fill="#564343" stroke-width=".23129"/>
    <path d="m74.133 45.66c0.01-10.769 9.8426-22.209 21.373-21.675l179.59 0.12819c13.194-0.31433 23.171 8.6529 23.178 21.811v6.9353l-224.15-0.74713z"
          fill="#ff0808" stroke-width=".23129"/>
    <path d="m75.136 252.03-0.37356-115.81h11.581l0.24455 15.553c0 5.5473 3.2825 9.8223 11.207 10.087l73.505 0.52832c7.1321-0.52832 11.581-4.1656 11.581-9.7129l0.87619-16.985h10.46l0.24455 16.61c0.26416 5.8115 5.7428 9.1846 14.196 9.7129l68.828-0.15473c6.6039-0.26416 10.641-5.6634 10.834-11.207l0.50262-14.434h10.46v115.06z"
          fill="#d40000" stroke-width=".23129"/>
    <path d="m74.133 52.113 0.62907 84.109h11.581l0.80117-62.278c0-5.5473 3.2825-9.8223 11.207-10.087l73.505-0.5283c7.1321 0.52832 11.581 4.1656 11.581 9.7129l0.31956 62.652h10.46l0.80117-62.278c0.26416-5.8114 5.7428-9.1846 14.196-9.7129l68.828 0.15474c6.6039 0.26416 10.834 5.66 10.834 11.207l-0.054 61.158h10.46l-1.0026-83.362z"
          fill="#d40000" stroke-width=".23129"/>
    <rect x="71.806" y="48.37" width="229.82" height="7.1321" fill="#ac9d93" stroke-width=".23129"
          style="paint-order:normal"/>
    <path d="m365.2 229.7 1.3427-204.98 18.349-0.44755 0 206.32z" fill="#c87137"/>
    <rect x="392.5" y="39.043" width="7.6083" height="191.55" fill="#454545" style="paint-order:normal"/>
    <rect x="400.11" y="39.043" width="7.6083" height="191.55" fill="#747474" style="paint-order:normal"/>
    <rect x="407.72" y="39.043" width="7.6083" height="191.55" fill="#8d8d8d" style="paint-order:normal"/>
    <rect x="415.32" y="39.043" width="7.6083" height="191.55" fill="#6b6b6b" style="paint-order:normal"/>
    <rect x="422.93" y="39.043" width="7.6083" height="191.55" fill="#8e8e8e" style="paint-order:normal"/>
    <rect x="430.54" y="39.043" width="7.6083" height="191.55" fill="#616161" style="paint-order:normal"/>
    <rect x="438.15" y="39.043" width="7.6083" height="191.55" fill="#8c8c8c" style="paint-order:normal"/>
    <rect x="445.76" y="39.043" width="7.6083" height="191.55" fill="#747474" style="paint-order:normal"/>
    <rect x="453.37" y="39.043" width="7.6083" height="191.55" fill="#4f4f4f" style="paint-order:normal"/>
    <rect x="460.97" y="39.043" width="7.6083" height="191.55" fill="#919191" style="paint-order:normal"/>
    <rect x="468.58" y="39.043" width="7.6083" height="191.55" fill="#7b7b7b" style="paint-order:normal"/>
    <rect x="476.19" y="39.043" width="7.6083" height="191.55" fill="#8d8d8d" style="paint-order:normal"/>
    <rect x="483.8" y="39.043" width="7.6083" height="191.55" fill="#747474" style="paint-order:normal"/>
    <rect x="491.41" y="39.043" width="7.6083" height="191.55" fill="#606060" style="paint-order:normal"/>
    <rect x="499.02" y="39.043" width="7.6083" height="191.55" fill="#4e4e4e" style="paint-order:normal"/>
    <rect x="506.62" y="39.043" width="7.6083" height="191.55" fill="#747474" style="paint-order:normal"/>
    <rect x="514.23" y="39.043" width="7.6083" height="191.55" fill="#919191" style="paint-order:normal"/>
    <rect x="521.84" y="39.043" width="7.6083" height="191.55" fill="#9e9e9e" style="paint-order:normal"/>
    <rect x="529.45" y="39.043" width="7.6083" height="191.55" fill="#666" style="paint-order:normal"/>
    <rect x="537.06" y="39.043" width="7.6083" height="191.55" fill="#929292" style="paint-order:normal"/>
    <rect x="544.67" y="39.043" width="7.6083" height="191.55" fill="#747474" style="paint-order:normal"/>
    <rect x="552.27" y="39.043" width="7.6083" height="191.55" fill="#949494" style="paint-order:normal"/>
    <path d="m557.21 229.57 1.3427-204.08 19.245-0 -0.89508 204.98z" fill="#c87137"/>
</svg>
