<svg width="657mm" height="337.11mm" version="1.1" viewBox="0 0 657 337.11" xmlns="http://www.w3.org/2000/svg">
    <g transform="matrix(-.1902 0 0 .1902 247.44 294.38)">
        <path d="m214.83-1126.2c148.48-31.853 132.27-13.164 290.2 2.8699 127.02-26.248 256.64-9.2271 307.24-0.8344 0 0-86.511 92.618-302.28 100.76-187.27-4.0711-295.16-102.8-295.16-102.8z"
              fill="#788d27"/>
        <path d="m98.297-851.65c198.31-32.124 201.09-32.614 412.02-16.443 169.65-26.471 351.93-43.91 419.51-35.446 0 0-124.71 128.01-412.89 136.22-250.12-4.1058-418.64-84.334-418.64-84.334z"
              fill="#788d27"/>
        <g transform="matrix(9.6839,0,0,5.4313,-423.53,-1128.8)">
            <path d="m44.14 84.268c27.571-5.9146 23.51 5.6134 52.835 8.5907 23.586-4.8738 41.034-9.7711 50.429-8.2127 0 0-9.4427 25.256-49.508 26.768-34.774-0.75595-53.756-27.146-53.756-27.146z"
                  fill="#788d27"/>
            <path d="m100.92 22.778s-20.762 51.364-56.779 61.49c0 0 39.618 11.705 53.115 30.548 20.337-25.919 31.763-23.767 50.149-30.17-28.971-6.8075-46.106-41.835-46.484-61.868z"
                  fill="#8a0"/>
        </g>
        <path d="m538.69-1248.7s-181.32 342.08-440.39 397.07c0 0 316.95-17.848 414.03 84.492 146.28-140.77 285.25-101.61 417.5-136.38-208.38-36.974-388.42-236.38-391.14-345.19z"
              fill="#9bc200"/>
        <path d="m534.42-1535.4s-125.61 354.62-319.58 409.15c0 0 219.02 1.4772 291.71 102.95 109.53-139.58 206.72-66.438 305.73-100.92-156.02-36.661-275.82-303.3-277.85-411.18z"
              fill="#a6d000"/>
    </g>
    <g transform="matrix(-.16439 0 0 .16439 592.49 274.35)">
        <path d="m214.83-1126.2c148.48-31.853 132.27-13.164 290.2 2.8699 127.02-26.248 256.64-9.2271 307.24-0.8344 0 0-86.511 92.618-302.28 100.76-187.27-4.0711-295.16-102.8-295.16-102.8z"
              fill="#788d27"/>
        <path d="m98.297-851.65c198.31-32.124 201.09-32.614 412.02-16.443 169.65-26.471 351.93-43.91 419.51-35.446 0 0-124.71 128.01-412.89 136.22-250.12-4.1058-418.64-84.334-418.64-84.334z"
              fill="#788d27"/>
        <g transform="matrix(9.6839,0,0,5.4313,-423.53,-1128.8)">
            <path d="m44.14 84.268c27.571-5.9146 23.51 5.6134 52.835 8.5907 23.586-4.8738 41.034-9.7711 50.429-8.2127 0 0-9.4427 25.256-49.508 26.768-34.774-0.75595-53.756-27.146-53.756-27.146z"
                  fill="#788d27"/>
            <path d="m100.92 22.778s-20.762 51.364-56.779 61.49c0 0 39.618 11.705 53.115 30.548 20.337-25.919 31.763-23.767 50.149-30.17-28.971-6.8075-46.106-41.835-46.484-61.868z"
                  fill="#8a0"/>
        </g>
        <path d="m538.69-1248.7s-181.32 342.08-440.39 397.07c0 0 316.95-17.848 414.03 84.492 146.28-140.77 285.25-101.61 417.5-136.38-208.38-36.974-388.42-236.38-391.14-345.19z"
              fill="#9bc200"/>
        <path d="m534.42-1535.4s-125.61 354.62-319.58 409.15c0 0 219.02 1.4772 291.71 102.95 109.53-139.58 206.72-66.438 305.73-100.92-156.02-36.661-275.82-303.3-277.85-411.18z"
              fill="#a6d000"/>
    </g>
    <g transform="matrix(-.1492 0 0 .1492 334.69 275.64)">
        <path d="m214.83-1126.2c148.48-31.853 132.27-13.164 290.2 2.8699 127.02-26.248 256.64-9.2271 307.24-0.8344 0 0-86.511 92.618-302.28 100.76-187.27-4.0711-295.16-102.8-295.16-102.8z"
              fill="#788d27"/>
        <path d="m98.297-851.65c198.31-32.124 201.09-32.614 412.02-16.443 169.65-26.471 351.93-43.91 419.51-35.446 0 0-124.71 128.01-412.89 136.22-250.12-4.1058-418.64-84.334-418.64-84.334z"
              fill="#788d27"/>
        <g transform="matrix(9.6839,0,0,5.4313,-423.53,-1128.8)">
            <path d="m44.14 84.268c27.571-5.9146 23.51 5.6134 52.835 8.5907 23.586-4.8738 41.034-9.7711 50.429-8.2127 0 0-9.4427 25.256-49.508 26.768-34.774-0.75595-53.756-27.146-53.756-27.146z"
                  fill="#788d27"/>
            <path d="m100.92 22.778s-20.762 51.364-56.779 61.49c0 0 39.618 11.705 53.115 30.548 20.337-25.919 31.763-23.767 50.149-30.17-28.971-6.8075-46.106-41.835-46.484-61.868z"
                  fill="#8a0"/>
        </g>
        <path d="m538.69-1248.7s-181.32 342.08-440.39 397.07c0 0 316.95-17.848 414.03 84.492 146.28-140.77 285.25-101.61 417.5-136.38-208.38-36.974-388.42-236.38-391.14-345.19z"
              fill="#9bc200"/>
        <path d="m534.42-1535.4s-125.61 354.62-319.58 409.15c0 0 219.02 1.4772 291.71 102.95 109.53-139.58 206.72-66.438 305.73-100.92-156.02-36.661-275.82-303.3-277.85-411.18z"
              fill="#a6d000"/>
    </g>
    <g transform="matrix(-.19228 0 0 .19228 476.33 298.52)">
        <path d="m214.83-1126.2c148.48-31.853 132.27-13.164 290.2 2.8699 127.02-26.248 256.64-9.2271 307.24-0.8344 0 0-86.511 92.618-302.28 100.76-187.27-4.0711-295.16-102.8-295.16-102.8z"
              fill="#788d27"/>
        <path d="m98.297-851.65c198.31-32.124 201.09-32.614 412.02-16.443 169.65-26.471 351.93-43.91 419.51-35.446 0 0-124.71 128.01-412.89 136.22-250.12-4.1058-418.64-84.334-418.64-84.334z"
              fill="#788d27"/>
        <g transform="matrix(9.6839,0,0,5.4313,-423.53,-1128.8)">
            <path d="m44.14 84.268c27.571-5.9146 23.51 5.6134 52.835 8.5907 23.586-4.8738 41.034-9.7711 50.429-8.2127 0 0-9.4427 25.256-49.508 26.768-34.774-0.75595-53.756-27.146-53.756-27.146z"
                  fill="#788d27"/>
            <path d="m100.92 22.778s-20.762 51.364-56.779 61.49c0 0 39.618 11.705 53.115 30.548 20.337-25.919 31.763-23.767 50.149-30.17-28.971-6.8075-46.106-41.835-46.484-61.868z"
                  fill="#8a0"/>
        </g>
        <path d="m538.69-1248.7s-181.32 342.08-440.39 397.07c0 0 316.95-17.848 414.03 84.492 146.28-140.77 285.25-101.61 417.5-136.38-208.38-36.974-388.42-236.38-391.14-345.19z"
              fill="#9bc200"/>
        <path d="m534.42-1535.4s-125.61 354.62-319.58 409.15c0 0 219.02 1.4772 291.71 102.95 109.53-139.58 206.72-66.438 305.73-100.92-156.02-36.661-275.82-303.3-277.85-411.18z"
              fill="#a6d000"/>
    </g>
</svg>
