<svg width="657mm" height="337.11mm" version="1.1" viewBox="0 0 657 337.11" xmlns="http://www.w3.org/2000/svg">
    <path d="m597.15 173.77c-18.38-32.553-27.069-77.253-82.011-62.191-13.792-51.385-44.36-45.192-66.064-32.804-43.739 20.047-35.994-10.935-74.266 4.1006-51.152 14.567-56.147-36.513-86.112-36.905-43.284 1.3669-48.751 58.319-73.81 39.639-58.083-36.205-75.197-3.6708-93.857 29.615-34.855-33.262-52.459 36.241-64.529 58.438l0.74228 55.922h539.91z"
          fill="#99b331"/>
    <path d="m83.264 174s4.2145-34.628 18.339-33.717c52.396 8.6567 46.929-0.91122 74.721-25.97 10.935-10.479 47.384 40.094 101.15-13.669 38.272-28.704 63.786 40.55 116.18 10.479 43.739-16.402 60.597 5.4674 85.2 29.615 12.757 13.213 46.473-8.6567 72.443-2.7337 15.947 4.1006 29.615 40.55 29.615 40.55l0.91125 50.118-498.9 0.91123z"
          fill="#849a2a"/>
</svg>
