<svg width="657mm" height="337.11mm" version="1.1" viewBox="0 0 657 337.11" xmlns="http://www.w3.org/2000/svg">
    <path d="m550.39 131.63c-0.91125-2.7337-37.361-72.899-37.361-72.899l-112.99-14.58-11.846 82.467 44.195 51.029z"
          fill="#808080"/>
    <path d="m378.9 130.04s34.477-17.239 13.647-45.251c-20.831-28.013-43.097-86.913-43.097-86.913s23.213 26.929 33.042 45.972l22.985 44.533s9.3376-9.3376 16.521-32.323c7.1828-22.985-2.1549-48.126-2.1549-48.126s16.85 13.707 10.774 46.69c-5.0279 27.295-10.774 35.198-10.774 35.198l-20.112 43.097 42.38-5.7464s-0.71828-0.71828 7.1828-26.577c7.9013-25.858-4.3097-75.42-4.3097-75.42s10.681 8.1228 12.929 28.732l4.3097 39.505s33.76-33.76 49.561-43.815c15.803-10.056 33.76-8.6195 33.76-8.6195s-33.076 23.387-43.097 28.732c-21.549 11.493-40.944 51.718-40.944 51.718s41.662-16.521 60.336-22.267c19.671-6.0526 33.042-25.858 33.042-25.858s-3.5916 27.295-17.239 30.887c-13.647 3.5916-68.239 32.323-68.239 32.323s54.998 8.8474 70.392 31.605l16.521 24.422s-22.985-20.831-34.477-28.013c-11.493-7.1828-34.477-12.211-36.633-8.6195-2.1549 3.5916 23.704 28.013 23.704 28.013l-40.941-28.014-20.112 5.7464-15.801 3.5926-16.943 7.1447-22.564 2.9122s-9.9628 14.096-26.576 5.0262l-298.3 15.526-14.547-189.67c2.4396 0.53172 14.782 55.704 24.799 58.523 6.2526 1.7597 20.227-46.476 22.508-38.137 3.5012 12.795-13.606 44.173-16.812 61.162-2.2604 11.978 6.2928 18.391 8.1027 18.709 114.37 20.086 287.18 23.611 287.18 23.611z"
          fill="#803300" stroke-width=".34021"/>
    <path d="m67.67 195.84-5.4276-69.148s134.21 18.427 201.74 22.737 68.239 3.5916 68.239 3.5916v28.911z" fill="#a40"
          stroke-width=".34021"/>
    <path d="m393.29 108.69c44.703-3.1131 17.068-44.363 17.068-44.363s21.132-24.126-2.4383-37.358c-23.984-13.463-37.389 6.2261-37.389 6.2261s-8.7909-20.283-40.638-10.117c-17.068 5.4477-7.3151 42.026-7.3151 42.026-21.973 27.23-1.6283 68.82 28.447 52.143 0 0 27.634 49.031 42.264-8.561z"
          fill="#677821" stroke-width=".34021"/>
    <path d="m571.19 147.63c-0.20219-12.261-10.581-25.209-10.581-25.209s18.997-25.842-5.6161-37.014c-5.7658-2.617-10.822-3.5283-15.191-3.3851-1.5818-11.284-10.34-22.211-10.34-22.211s18.996-25.842-5.6172-37.014c-25.045-11.367-36.718 9.3931-36.718 9.3931s-10.489-19.458-41.352-6.6129c-16.541 6.8844-3.7032 42.499-3.7032 42.499-18.51 27.436 1.8004 64.432 28.208 52.123 1.3423 6.0424 2.9392 10.485 2.9392 10.485-19.569 29.005 4.2502 68.708 32.793 49.527 0 0 31.716 46.496 41.379-12.135 18.678-2.9176 23.95-11.5 23.803-20.447zm-178.62 27.663c8.6868-43.962-38.355-28.077-38.355-28.077s-17.759-26.706-36.695-7.4165c-19.267 19.628-3.7692 37.715-3.7692 37.715 32.347 52.283 72.233-1.7939 78.819-2.2222z"
          fill="#677821" stroke-width=".34021"/>
    <path d="m403.86 113.29c44.71-3.0174 17.163-44.326 17.163-44.326s21.184-24.081-2.3584-37.361c-23.955-13.514-37.402 6.1462-37.402 6.1462s-8.7474-20.301-40.617-10.204c-17.08 5.4113-7.4049 42.012-7.4049 42.012-22.031 27.183-1.7756 68.817 28.335 52.205 0 0 27.53 49.088 42.281-8.4705z"
          fill="#97bd00" stroke-width=".34021"/>
    <path d="m519.92 113.45c44.703-3.1131 17.068-44.363 17.068-44.363s21.132-24.126-2.4384-37.358c-23.984-13.463-37.389 6.2261-37.389 6.2261s-8.7909-20.283-40.638-10.117c-17.068 5.4477-7.3151 42.026-7.3151 42.026-21.973 27.23-1.6284 68.82 28.447 52.143 0 0 27.634 49.031 42.264-8.561z"
          fill="#9fc700" stroke-width=".34021"/>
    <path d="m551.19 175.35c44.703-3.1131 17.068-44.363 17.068-44.363s21.132-24.126-2.4383-37.358c-23.984-13.463-37.389 6.2261-37.389 6.2261s-8.7909-20.283-40.638-10.117c-17.068 5.4481-7.3151 42.026-7.3151 42.026-21.973 27.23-1.6284 68.82 28.447 52.143 0 0 27.634 49.031 42.264-8.561z"
          fill="#aad400" stroke-width=".34021"/>
    <path d="m393.94 159.42c8.1238 55.348 36.834 12.323 36.834 12.323s21.541 21.542 28.877-10.677c7.4648-32.785-9.6244-45.554-9.6244-45.554s14.728-15.149 2.7308-52.96c-6.4296-20.264-33.767-0.5843-33.767-0.5843-24.073-21.961-53.977 12.006-37.12 46.268 0 0-34.79 44.615 12.07 51.184z"
          fill="#aad400" stroke-width=".34021"/>
</svg>
