<svg width="657mm" height="337.11mm" version="1.1" viewBox="0 0 657 337.11" xmlns="http://www.w3.org/2000/svg">
    <path d="m583.27 280.43-48.997-93.394-10.705-86.374 4.6859-2.5189 11.705 84.772 50.428 96.712z" fill="#483737"
          stroke-width=".93271"/>
    <path d="m534.64 153.66c24.874-19.017 59.179-22.017 59.179-22.017l-75.292-72.349z" fill="#fc0"
          stroke-width=".93271"/>
    <path d="m476.92 150.26c34.928-10.835 57.728 3.404 57.728 3.404l-16.114-94.368z" fill="#a00" stroke-width=".93271"/>
    <path d="m434.24 135.4c49.283-33.377 84.289-76.104 84.289-76.104s-15.577 53.798-41.613 90.964c0 0-18.158-15.576-42.674-14.86z"
          fill="#d4aa00" stroke-width=".93271"/>
    <path d="m593.83 131.64c7.4506-19.847 27.728-28.53 27.728-28.53-41.53-10.111-103.02-43.82-103.02-43.82s51.406 58.888 75.293 72.349z"
          fill="#f00" stroke-width=".93271"/>
    <path d="m108.43 278.25 1.0211-105.46 31.434-81.16 5.32-0.0021-29.796 80.222-1.33 109.06z" fill="#483737"
          stroke-width=".93271"/>
    <path d="m125.57 143.56c30.911-4.9857 62.553 8.6019 62.553 8.6019l-32.102-99.362z" fill="#fc0"
          stroke-width=".93271"/>
    <path d="m76.322 113.25c35.897 6.98 49.247 30.311 49.247 30.311l30.451-90.761z" fill="#a00" stroke-width=".93271"/>
    <path d="m45.757 79.966c59.21-6.0878 110.27-27.168 110.27-27.168s-39.177 40.026-79.698 60.45c0 0-8.6277-22.313-30.565-33.282z"
          fill="#d4aa00" stroke-width=".93271"/>
    <path d="m188.13 152.16c15.954-13.96 37.927-12.016 37.927-12.016-31.804-28.557-70.028-87.347-70.028-87.347s17.427 76.202 32.102 99.362z"
          fill="#f00" stroke-width=".93271"/>
    <path d="m322.6 276.89-36.926-98.791 0.18635-87.035 4.9643-1.9128 1.006 85.57 37.931 102.26z" fill="#483737"
          stroke-width=".93271"/>
    <path d="m290.22 145.03c27.058-15.755 61.469-14.439 61.469-14.439l-65.648-81.201z" fill="#fc0"
          stroke-width=".93271"/>
    <path d="m233.38 134.43c36.009-6.3791 56.848 10.6 56.848 10.6l-4.1796-95.642z" fill="#a00" stroke-width=".93271"/>
    <path d="m192.9 114.35c53.072-26.948 93.15-64.959 93.15-64.959s-22.187 51.426-52.668 85.042c0 0-16.066-17.726-40.479-20.083z"
          fill="#d4aa00" stroke-width=".93271"/>
    <path d="m351.7 130.59c9.8755-18.759 31.08-24.837 31.08-24.837-39.938-15.228-96.728-56.366-96.728-56.366s43.633 64.858 65.648 81.201z"
          fill="#f00" stroke-width=".93271"/>
    <path d="m397.22 276.35 1.0211-105.46 31.434-81.16 5.32-0.0021-29.796 80.222-1.33 109.06z" fill="#483737"
          stroke-width=".93271"/>
    <path d="m414.36 141.66c30.911-4.9857 62.553 8.6019 62.553 8.6019l-32.102-99.362z" fill="#fc0"
          stroke-width=".93271"/>
    <path d="m365.11 111.35c35.897 6.98 49.247 30.311 49.247 30.311l30.451-90.761z" fill="#a00" stroke-width=".93271"/>
    <path d="m334.55 78.068c59.21-6.0878 110.27-27.168 110.27-27.168s-39.177 40.026-79.698 60.45c0 0-8.6277-22.313-30.565-33.282z"
          fill="#d4aa00" stroke-width=".93271"/>
    <path d="m476.92 150.26c15.954-13.96 37.927-12.016 37.927-12.016-31.804-28.557-70.028-87.347-70.028-87.347s17.427 76.202 32.102 99.362z"
          fill="#f00" stroke-width=".93271"/>
</svg>
