<svg width="657mm" height="337.11mm" version="1.1" viewBox="0 0 657 337.11" xmlns="http://www.w3.org/2000/svg">
    <path d="m97.046 173.09 69.709-128.94 35.994 34.171 20.503 128.48-128.94-17.769z" fill="#e6e6e6"/>
    <path d="m57.408 224.12 42.828-169.49 39.183 22.781 0.45561 52.396-5.923 97.502z" fill="#b3b3b3"/>
    <path d="m550.39 131.63c-0.91125-2.7337-37.361-72.899-37.361-72.899l-112.99-14.58-11.846 82.467 44.195 51.029z"
          fill="#808080"/>
    <path d="m581.82 228.67-11.39-116.18-25.059-35.994-33.716 17.313-0.91123 135.32z" fill="#b3b3b3"/>
    <path d="m103.43 223.66 51.94-126.66 44.195 12.302-15.947 46.929 17.313 72.899z" fill="#ccc"/>
    <path d="m509.84 127.53-27.337-102.06-42.828-8.6567-19.592 63.331-36.905 145.8 138.05 3.1893z" fill="#999"/>
    <path d="m272.46 121.6c1.3669-4.1006 50.118-56.497 50.118-56.497l8.2011-28.248 42.372 28.704 7.7455 98.413z"
          fill="#999"/>
    <path d="m434.66 225.94c-0.45562-15.947-44.195-145.8-47.384-145.34s-85.656 23.692-85.656 23.692l-6.3786 121.65z"
          fill="#ccc"/>
    <path d="m180.88 228.22c4.1006-5.0118 41.917-179.97 41.917-179.97l54.674-10.935 68.343 197.74z" fill="#b3b3b3"/>
    <path d="m306.17 225.03-78.822-130.76-44.195-17.313-37.816 147.62z" fill="#999"/>
    <path d="m470.2 225.94-56.952-143.98-51.94 51.485 10.935 92.946z" fill="#b3b3b3"/>
</svg>
