<svg width="657mm" height="337.11mm" version="1.1" viewBox="0 0 657 337.11" xmlns="http://www.w3.org/2000/svg">
    <rect x="89.243" y="72.546" width="10.127" height="212.03" fill="#777" style="paint-order:normal"/>
    <rect x="77.85" y="123.18" width="31.646" height="22.152" fill="#ccc" style="paint-order:normal"/>
    <path d="m55.698 83.939v26.583l73.42-1.2658 17.089-13.924-17.089-12.026z" fill="#01174d"/>
    <rect transform="scale(-1,1)" x="-224" y="61.218" width="10.623" height="222.41" fill="#777"
          style="paint-order:normal"/>
    <rect transform="scale(-1,1)" x="-235.95" y="114.33" width="33.196" height="23.237" fill="#ccc"
          style="paint-order:normal"/>
    <path d="m259.18 73.168v27.884l-77.014-1.3278-17.926-14.606 17.926-12.614z" fill="#b8221e"/>
    <rect x="299.06" y="72.23" width="10.127" height="212.03" fill="#777" style="paint-order:normal"/>
    <rect x="287.67" y="122.86" width="31.646" height="22.152" fill="#ccc" style="paint-order:normal"/>
    <rect x="389.68" y="90.239" width="9.2062" height="192.76" fill="#777" style="paint-order:normal"/>
    <rect x="379.33" y="136.27" width="28.769" height="20.139" fill="#ccc" style="paint-order:normal"/>
    <rect transform="scale(-1,1)" x="-569.65" y="57.672" width="10.792" height="225.96" fill="#777"
          style="paint-order:normal"/>
    <rect transform="scale(-1,1)" x="-581.79" y="111.63" width="33.725" height="23.607" fill="#ccc"
          style="paint-order:normal"/>
    <path d="m605.4 69.813v28.329l-78.241-1.349-18.211-14.839 18.211-12.815z" fill="#be7b10"/>
    <rect x="473.11" y="69.698" width="10.127" height="212.03" fill="#777" style="paint-order:normal"/>
    <path d="m439.57 81.091v26.583l73.42-1.2659 17.089-13.924-17.089-12.026z" fill="#b8221e"/>
    <path d="m359.19 100.6v24.166l66.745-1.1508 15.536-12.659-15.536-10.932z" fill="#01174d"/>
    <rect x="461.72" y="120.33" width="31.646" height="22.152" fill="#ccc" style="paint-order:normal"/>
    <rect x="174.89" y="108.31" width="8.3735" height="175.32" fill="#777" style="paint-order:normal"/>
    <rect x="165.47" y="150.17" width="26.167" height="18.317" fill="#ccc" style="paint-order:normal"/>
    <path d="m147.16 117.73v21.981l60.708-1.0467 14.13-11.514-14.13-9.9436z" fill="#be7b10"/>
    <rect x="349.91" y="58.885" width="10.764" height="225.38" fill="#777" style="paint-order:normal"/>
    <rect x="337.8" y="112.71" width="33.638" height="23.547" fill="#ccc" style="paint-order:normal"/>
    <path d="m265.51 83.622v26.583l73.42-1.2659 17.089-13.924-17.089-12.026z" fill="#be7b10"/>
    <path d="m314.25 70.995v28.256l78.04-1.3455 18.165-14.801-18.165-12.782z" fill="#b8221e"/>
</svg>
