<svg width="657mm" height="337.11mm" version="1.1" viewBox="0 0 657 337.11" xmlns="http://www.w3.org/2000/svg">
    <path d="m63.104 193.45 35.172-59.143 39.444-54.354 107.98-40.459 225.56-4.923 34.071 42.618 51.771 51.916 39.376 55.511 0.0949 14.653-534.82 6.2657z"
          fill="#483737" stroke="#000" stroke-width=".26458px"/>
    <path d="m61.507 139.31-2.111 50.446 102.38-1.8684 1.0555-49.511z" fill="#867467" stroke-width=".80339"/>
    <path d="m170.88 137.91-1.5061 50.446 73.047-1.8684 0.75306-49.511z" fill="#a49488" stroke-width=".80339"/>
    <path d="m525.85 136.04-1.4871 50.446 72.122-1.8684 0.74347-49.511z" fill="#8f7c6c" stroke-width=".80339"/>
    <path d="m429.08 136.04-1.8684 50.446 90.614-1.8684 0.93411-49.511z" fill="#ae9e93" stroke-width=".80339"/>
    <path d="m362.14 136.97-1.2583 50.446 61.026-1.8684 0.62914-49.511z" fill="#a6978c" stroke-width=".80339"/>
    <path d="m251.86 136.04-2.1352 50.446 103.56-1.8684 1.0676-49.511z" fill="#928173" stroke-width=".80339"/>
    <path d="m100.14 83.858-1.8684 50.446 90.614-1.8684 0.93411-49.511z" fill="#ae9e93" stroke-width=".80339"/>
    <path d="m196.54 83.21-2.111 50.446 102.38-1.8684 1.0555-49.511z" fill="#867467" stroke-width=".80339"/>
    <path d="m303.41 82.315-1.2583 50.446 61.026-1.8684 0.62915-49.511z" fill="#a6978c" stroke-width=".80339"/>
    <path d="m368.29 81.42-1.5061 50.446 73.047-1.8684 0.75306-49.511z" fill="#a49488" stroke-width=".80339"/>
    <path d="m446.56 80.524-2.3274 50.446 112.88-1.8684 1.1636-49.511z" fill="#8f7c6c" stroke-width="1.0051"/>
    <path d="m323.08 30.399-2.1352 50.446 103.56-1.8684 1.0676-49.511z" fill="#928173" stroke-width=".80339"/>
    <path d="m430.82 28.609-1.5688 50.446 76.088-1.8684 0.78442-49.511z" fill="#a6978c" stroke-width=".89707"/>
    <path d="m259.47 31.294-1.1853 50.446 57.487-1.8684 0.59266-49.511z" fill="#928173" stroke-width=".59858"/>
    <path d="m140.12 29.504-2.3981 50.446 116.31-1.8684 1.199-49.511z" fill="#ae9e93" stroke-width=".91019"/>
</svg>
