<svg width="1e3mm" height="846.73mm" version="1.1" viewBox="0 0 1e3 846.73" xmlns="http://www.w3.org/2000/svg">
    <g transform="translate(-39.524 724.43)">
        <path d="m131.96-305.23c-57.17-238.21 47.075-274.17 223.92-281.09 165.18-125.05 223.92-123.87 357.32 28.585 206.5-67.668 218.31 67.423 204.86 176.28 171.51 228.68 61.935 228.68-71.463 309.67-47.642 214.39-138.16 219.15-333.49 142.93-209.62 114.34-347.79 19.057-347.79-109.58-166.75-47.642-157.07-182.69-33.349-266.8z"
              fill="#a6a6a6"/>
        <path d="m165.46-353.27c-57.17-238.21 47.075-274.17 223.92-281.09 165.18-125.05 223.92-123.87 357.32 28.585 206.5-67.668 218.31 67.423 204.86 176.28 171.51 228.68 61.935 228.68-71.463 309.67-47.642 214.39-138.16 219.15-333.49 142.93-209.62 114.34-347.79 19.057-347.79-109.58-166.75-47.642-157.07-182.69-33.349-266.8z"
              fill="#ececec"/>
    </g>
</svg>
