<svg width="1e3mm" height="245.43mm" version="1.1" viewBox="0 0 1e3 245.43" xmlns="http://www.w3.org/2000/svg">
    <g transform="translate(407.21 98.444)">
        <g fill="#c87137">
            <path d="m-403.64 54.194c-6.3571 34.169 0.2859 64.272 0.2859 64.272l5.0778-0.10537s6.7544-29.799 0.19864-64.366z"/>
            <path d="m-278.53 53.545c-6.3571 34.169 0.28591 64.272 0.28591 64.272l5.0778-0.10538s6.7544-29.799 0.19865-64.365z"/>
            <path d="m-144.24 53.545c-6.3571 34.169 0.28592 64.272 0.28592 64.272l5.0778-0.10538s6.7544-29.799 0.19866-64.365z"/>
            <path d="m-9.1487 52.75c-6.3571 34.169 0.2859 64.272 0.2859 64.272l5.0778-0.10537s6.7544-29.799 0.19865-64.366z"/>
            <path d="m120.38 53.545c-6.3571 34.169 0.28591 64.272 0.28591 64.272l5.0778-0.10538s6.7544-29.799 0.19865-64.365z"/>
            <path d="m266.59 54.34c-6.3571 34.169 0.2859 64.272 0.2859 64.272l5.0778-0.10549s6.7544-29.799 0.19867-64.365z"/>
            <path d="m405.65 54.34c-6.3571 34.169 0.2859 64.272 0.2859 64.272l5.0778-0.10549s6.7544-29.799 0.19865-64.365z"/>
            <path d="m522.46 53.545c-6.3571 34.169 0.28589 64.272 0.28589 64.272l5.0778-0.10538s6.7544-29.799 0.19866-64.365z"/>
        </g>
        <path d="m470.73 141-1.0948-113.07 68.115-97.974-5.7038-4.2779-69.872 101.24 1.426 116.93z" fill="#483737"/>
        <path d="m-217.65 144.13 1.0948-113.07 33.702-87.015 5.7038-0.0016-31.945 86.009-1.426 116.93z" fill="#483737"/>
        <rect x="-407.12" y="116.08" width="940.31" height="29.944" fill="#784421" style="paint-order:normal"/>
        <rect x="-407.21" y="49.571" width="943.15" height="7.0071" fill="#a85f2e" style="paint-order:normal"/>
        <path d="m489.71-6.1733s34.779 4.8412 60.437 30.499l2.0379-111.93z" fill="#d40000"/>
        <path d="m450.33-54.054c29.934 18.174 39.387 47.881 39.387 47.881l62.475-81.435z" fill="#ebbb00"/>
        <path d="m430.92-98.444c62.161 14.439 121.27 10.835 121.27 10.835s-53.661 26.95-101.86 33.554c0-22.451-19.408-44.39-19.408-44.39z"
              fill="#a00000"/>
        <path d="m550.15 24.326s21.261-5.3964 42.643 1.0181c-22.309-40.03-40.605-112.95-40.605-112.95s-8.8564 83.339-2.0379 111.93z"
              fill="#ffd42a"/>
        <path d="m-199.27-0.27493c33.141-5.3454 67.066 9.2225 67.066 9.2225l-34.418-106.53z" fill="#fc0"/>
        <path d="m-252.07-32.772c38.487 7.4835 52.8 32.498 52.8 32.498l32.648-97.309z" fill="#a00"/>
        <path d="m-284.84-68.455c63.481-6.527 118.22-29.128 118.22-29.128s-42.003 42.913-85.448 64.811c0 0-9.2501-23.923-32.77-35.683z"
              fill="#d4aa00"/>
        <path d="m-132.2 8.9475c17.105-14.967 40.663-12.883 40.663-12.883-34.098-30.617-75.08-93.648-75.08-93.648s18.684 81.699 34.418 106.53z"
              fill="#f00"/>
    </g>
</svg>
