<svg width="1e3mm" height="1775.1mm" version="1.1" viewBox="0 0 1e3 1775.1" xmlns="http://www.w3.org/2000/svg">
    <path d="m211.96 270.67-3.7551-140.23 9.2255-0.83047 0.16282 12.324 51.706-0.4148 0.18857-12.926 10.337-0.36819-1.8458 98.396z"
          fill="#6c5d53"/>
    <path d="m208.58 248.43-0.41072 14.538 19.92-0.53843 0.20534-14.268z" fill="#ae9e93" stroke-width=".20221"/>
    <path d="m80.238 393.03-9.0212 1382.1 869.62-6.8687-29.202-1369.3z" fill="#483e37"/>
    <path d="m76.174 608.78-2.5742 68.784 124.85-2.5476 1.2871-67.511z" fill="#ab9d93"/>
    <path d="m643.74 605.03-1.1846 68.442 57.45-2.5348 0.5925-67.174z" fill="#a99a91"/>
    <path d="m76.198 403.49-2.6276 62.791 127.44-2.3256 1.3138-61.628z" fill="#867467"/>
    <path d="m212.34 401.75-1.8747 62.791 90.923-2.3256 0.93735-61.628z" fill="#a49488"/>
    <path d="m863.01 399.42-1.1784 62.791 57.151-2.3256 0.58881-61.628z" fill="#a18d81"/>
    <path d="m753.37 398.26-2.2069 62.791 107.04-2.3256 1.1034-61.628z" fill="#857266"/>
    <path d="m654.18 399.42-1.851 62.791 89.772-2.3256 0.92543-61.628z" fill="#8f7c6c"/>
    <path d="m533.72 399.42-2.3256 62.791 112.79-2.3256 1.1627-61.628z" fill="#ae9e93"/>
    <path d="m450.41 400.58-1.5662 62.791 75.961-2.3256 0.78312-61.628z" fill="#a6978c"/>
    <path d="m313.13 399.42-2.6578 62.791 128.9-2.3256 1.3289-61.628z" fill="#928173"/>
    <path d="m53.372 405.5 881.4-4.6512-432.56-332.56z" fill="#240e00"/>
    <path d="m194.2 121.52-2.1082 10.959 102.25-0.40589 1.0541-10.756z" fill="#a49488" stroke-width=".44303"/>
    <path d="m205.5 142.51-0.9506 22.739 46.104-0.84219 0.47526-22.318z" fill="#947d6f" stroke-width=".38474"/>
    <path d="m238.22 169.65-0.9506 22.739 46.104-0.84219 0.47526-22.318z" fill="#958172" stroke-width=".38474"/>
    <g fill="#ae9e93">
        <path d="m207.79 196.67-0.88667 22.739 43.003-0.84219 0.4433-22.318z" stroke-width=".37158"/>
        <path d="m239.98 223.3-0.45334 22.739 21.987-0.84219 0.22665-22.318z" stroke-width=".26569"/>
        <path d="m255.01 141.86-0.60431 22.739 29.309-0.84219 0.30213-22.318z" stroke-width=".30676"/>
        <path d="m205.69 168.74-0.61497 22.739 29.826-0.84219 0.30746-22.318z" stroke-width=".30945"/>
    </g>
    <path d="m253.74 196.67-0.63095 22.739 30.601-0.84219 0.31545-22.318z" fill="#857366" stroke-width=".31345"/>
    <path d="m207.52 223.56-0.62029 22.739 30.084-0.84219 0.31012-22.318z" fill="#978275" stroke-width=".31079"/>
    <path d="m128.36 391.41 739.89-2.5251-41.685-41.977-652.46-0.42331z" fill="#a40"/>
    <g transform="translate(-23.812,928.45)">
        <path d="m207.91-589.6 637.8 1.9263-49.202-43.481-544.5 0.1169z" fill="#8d3900"/>
        <path d="m260.7-639.97 527.72 0.90451-58.234-45.325-420.74 1.1386z" fill="#6c2b00"/>
        <path d="m318.75-691.9 404.78 0.90439-56.86-45.665-298.64 8.9376z" fill="#542100"/>
        <path d="m380.07-736.78 279.86-4.5104-58.903-38.066-160.25 0.79807z" fill="#3e1800"/>
        <path d="m452.25-787.96 139.33 1.2451-61.864-40.192-13.936 0.5279z" fill="#2d1200"/>
    </g>
    <path d="m0 425.58c9.3023-4.6511 500-395.35 500-395.35l74.419-30.233-30.233 69.767c-255.81 125.58-434.88 327.91-434.88 327.91z"
          fill="#520"/>
    <path d="m999.99 425.58c-9.3024-4.6511-500-395.35-500-395.35l-74.419-30.233 30.233 69.767c255.81 125.58 434.88 327.91 434.88 327.91z"
          fill="#803300"/>
    <path d="m417.02 189.06s79.175-7.9034 163.9-1.1274c0 0 10.097 60.329 0 109.35 0 0-76.102 7.1179-163.46 1.1391 0 0-9.6581-57.949-0.43899-109.37z"
          fill="#803300"/>
    <g transform="translate(-23.812,928.45)">
        <path d="m452.34-730.8-4.829 44.243 72.875-2.7901v-44.642z"/>
        <path d="m446.63-678.19 1.756 42.25 71.119-0.79708v-44.642z"/>
        <path d="m529.6-679.78-1.317 43.844 69.363-2.3915 1.756-44.243z"/>
        <path d="m529.6-735.98 0.4393 45.837 70.241-0.79715-3.073-42.649z"/>
    </g>
    <path d="m422.1 325 154.65-1.1628 4.1763-26.552-163.46 1.1391z" fill="#d45500"/>
    <path d="m419.18 289.63-11.1 25.078 14.019 10.294 5.7141-18.105 6.5777-6.9888 1.2333 16.444 16.855 14.389v-24.255l13.155-4.9333 12.333 13.978 8.2222 17.678 8.2222-24.667 4.1111-7.8111 13.978 31.655 17.678-24.255 5.3444 11.922 13.567-16.855 13.567 27.133 9.0444-27.544 5.0491 21.054 10.162-16.942-13.069-16.779-125.89-1.7209c-12.585-2.9466-28.778 1.2334-28.778 1.2334z"
          fill="#450"/>
    <g transform="translate(-23.812,928.45)">
        <path d="m438.88-606.75-2.641-5.7831-4.4391 4.5513 1.2626-6.231-6.2665 1.0729 4.684-4.2988-5.7003-2.8154 6.3162-0.72466-2.9568-5.6282 5.5359 3.1263 0.91609-6.2913 2.641 5.7831 4.4391-4.5513-1.2626 6.231 6.2665-1.0729-4.684 4.2988 5.7003 2.8154-6.3162 0.72466 2.9568 5.6282-5.5359-3.1263z"
              fill="#d50000" style="paint-order:normal"/>
        <path d="m509.57-595.51-2.641-5.7831-4.4391 4.5513 1.2626-6.231-6.2665 1.0729 4.684-4.2988-5.7003-2.8154 6.3162-0.72466-2.9568-5.6282 5.5359 3.1263 0.9161-6.2913 2.641 5.7831 4.4391-4.5513-1.2626 6.231 6.2665-1.0729-4.684 4.2988 5.7003 2.8154-6.3162 0.72466 2.9568 5.6282-5.5359-3.1263z"
              fill="#a00" style="paint-order:normal"/>
        <path d="m568.79-626.49-2.641-5.7831-4.4391 4.5513 1.2626-6.231-6.2665 1.0729 4.684-4.2988-5.7003-2.8154 6.3162-0.72466-2.9568-5.6282 5.5359 3.1263 0.9161-6.2913 2.641 5.7831 4.4391-4.5513-1.2626 6.231 6.2665-1.0729-4.684 4.2988 5.7003 2.8154-6.3162 0.72466 2.9568 5.6282-5.5359-3.1263z"
              fill="#eb0000" style="paint-order:normal"/>
        <path d="m587.22-603.12-2.641-5.7831-4.4391 4.5513 1.2626-6.231-6.2665 1.0729 4.684-4.2988-5.7003-2.8154 6.3162-0.72466-2.9568-5.6282 5.5359 3.1263 0.9161-6.2913 2.641 5.7831 4.4391-4.5513-1.2626 6.231 6.2665-1.0728-4.684 4.2988 5.7003 2.8154-6.3162 0.72466 2.9568 5.6282-5.5359-3.1263z"
              fill="#a00" style="paint-order:normal"/>
        <path d="m463.95-624.84-2.641-5.7831-4.4391 4.5513 1.2626-6.231-6.2665 1.0729 4.684-4.2988-5.7003-2.8154 6.3162-0.72466-2.9568-5.6282 5.5359 3.1263 0.9161-6.2913 2.641 5.7831 4.4391-4.5513-1.2626 6.231 6.2665-1.0729-4.684 4.2988 5.7003 2.8154-6.3162 0.72466 2.9568 5.6282-5.5359-3.1263z"
              fill="#b49000" style="paint-order:normal"/>
        <path d="m535.9-599.35-2.641-5.7831-4.4391 4.5513 1.2626-6.231-6.2665 1.0729 4.684-4.2988-5.7003-2.8154 6.3162-0.72466-2.9568-5.6282 5.5359 3.1263 0.9161-6.2913 2.641 5.7831 4.4391-4.5513-1.2626 6.231 6.2665-1.0729-4.684 4.2988 5.7003 2.8154-6.3162 0.72466 2.9568 5.6282-5.5359-3.1263z"
              fill="#e3b700" style="paint-order:normal"/>
        <path d="m608.66-614.97-2.641-5.7831-4.4391 4.5513 1.2626-6.231-6.2665 1.0728 4.684-4.2988-5.7003-2.8154 6.3162-0.72466-2.9568-5.6282 5.5359 3.1263 0.91609-6.2913 2.641 5.7831 4.4391-4.5513-1.2626 6.231 6.2665-1.0729-4.684 4.2988 5.7003 2.8154-6.3162 0.72467 2.9568 5.6282-5.5359-3.1263z"
              fill="#f9c800" style="paint-order:normal"/>
        <path d="m498.27-630.9-2.641-5.7831-4.4391 4.5513 1.2626-6.231-6.2665 1.0729 4.684-4.2988-5.7003-2.8154 6.3162-0.72467-2.9568-5.6282 5.5359 3.1263 0.9161-6.2913 2.641 5.7831 4.4391-4.5513-1.2626 6.231 6.2665-1.0729-4.684 4.2988 5.7003 2.8154-6.3162 0.72467 2.9568 5.6282-5.5359-3.1263z"
              fill="#f2c200" style="paint-order:normal"/>
        <path d="m472.55-601.82-2.641-5.7831-4.4391 4.5513 1.2626-6.231-6.2665 1.0729 4.684-4.2988-5.7003-2.8154 6.3162-0.72467-2.9568-5.6282 5.5359 3.1263 0.91609-6.2913 2.641 5.7831 4.4391-4.5513-1.2626 6.231 6.2665-1.0729-4.684 4.2988 5.7003 2.8154-6.3162 0.72467 2.9568 5.6282-5.5359-3.1263z"
              fill="#ceff08" style="paint-order:normal"/>
        <path d="m529.53-625.08-2.641-5.7831-4.4391 4.5513 1.2626-6.231-6.2665 1.0729 4.684-4.2988-5.7003-2.8154 6.3162-0.72467-2.9568-5.6282 5.5359 3.1263 0.91609-6.2913 2.641 5.7831 4.4391-4.5513-1.2626 6.231 6.2665-1.0729-4.684 4.2988 5.7003 2.8154-6.3162 0.72467 2.9568 5.6282-5.5359-3.1263z"
              fill="#aad400" style="paint-order:normal"/>
        <path d="m560.77-606.09-2.641-5.7831-4.4391 4.5513 1.2626-6.231-6.2665 1.0729 4.684-4.2988-5.7003-2.8154 6.3162-0.72466-2.9568-5.6282 5.5359 3.1263 0.91609-6.2913 2.641 5.7831 4.4391-4.5513-1.2626 6.231 6.2665-1.0729-4.684 4.2988 5.7003 2.8154-6.3162 0.72466 2.9568 5.6282-5.5359-3.1263z"
              fill="#aad400" style="paint-order:normal"/>
        <path d="m590.57-628.56-2.641-5.7831-4.4391 4.5513 1.2626-6.231-6.2665 1.0729 4.684-4.2988-5.7003-2.8154 6.3162-0.72467-2.9568-5.6282 5.5359 3.1263 0.9161-6.2913 2.641 5.7831 4.4391-4.5513-1.2626 6.231 6.2665-1.0729-4.684 4.2988 5.7003 2.8154-6.3162 0.72467 2.9568 5.6282-5.5359-3.1263z"
              fill="#81a000" style="paint-order:normal"/>
        <path d="m99.133-454.62-1.7215 62.791 83.493-2.3256 0.86074-61.628z" fill="#c4b9b2"/>
        <path d="m345.81-460.38-2.141 62.791 103.84-2.3256 1.0705-61.628z" fill="#c1b6ae"/>
        <path d="m97.983-386.38-1.8054 62.791 87.562-2.3256 0.9027-61.628z" fill="#ae9f95"/>
        <path d="m192.91-358.17-2.9968 32.114 145.34-1.1894 1.4984-31.52z" fill="#927e70"/>
        <path d="m341.81-390.49-0.61404 62.791 29.78-2.3256 0.30702-61.628z" fill="#c1b6ae"/>
    </g>
    <path d="m157.34 463.5s79.175-7.9034 163.9-1.1274c0 0 10.097 60.329 0 109.35 0 0-76.102 7.1179-163.46 1.1391 0 0-9.6581-57.949-0.4393-109.37z"
          fill="#803300"/>
    <g transform="translate(-23.812,928.45)">
        <path d="m192.65-456.36-4.829 44.243 72.875-2.7901v-44.642z"/>
        <path d="m186.95-403.75 1.756 42.25 71.119-0.79708v-44.642z"/>
        <path d="m269.92-405.34-1.317 43.844 69.363-2.3915 1.756-44.243z"/>
        <path d="m269.92-461.54 0.4393 45.837 70.241-0.79715-3.073-42.649z"/>
    </g>
    <g transform="translate(-23.812,928.45)">
        <path d="m612.52-459.56-0.81536 62.791 39.546-2.3256 0.40793-61.628z" fill="#b1a399"/>
        <path d="m377.63-390.49-1.4866 62.791 72.099-2.3256 0.74331-61.628z" fill="#b1a499"/>
        <path d="m458.2-359.07-3.0438 28.078 147.62-1.0399 1.5218-27.558z" fill="#b8aca3"/>
        <path d="m613.19-393.78-2.3088 62.791 111.98-2.3256 1.1543-61.628z" fill="#beb1a9"/>
    </g>
    <path d="m422.45 462.34s79.175-7.9034 163.9-1.1274c0 0 10.097 60.329 0 109.35 0 0-76.102 7.1179-163.46 1.1391 0 0-9.6581-57.949-0.43899-109.37z"
          fill="#803300"/>
    <g transform="translate(-23.812,928.45)">
        <path d="m457.77-457.52-4.829 44.243 72.875-2.7901v-44.642z"/>
        <path d="m452.06-404.91 1.756 42.25 71.119-0.79709v-44.642z"/>
        <path d="m535.04-406.51-1.317 43.844 69.363-2.3915 1.756-44.243z"/>
        <path d="m535.04-462.71 0.4393 45.837 70.241-0.79715-3.073-42.649z"/>
    </g>
    <g transform="translate(-23.812,928.45)">
        <path d="m659.98-460.38-1.4027 62.791 68.03-2.3256 0.70134-61.628z" fill="#c0b5ac"/>
        <path d="m847.27-462.02-2.0572 62.791 99.769-2.3256 1.0286-61.628z" fill="#9c897d"/>
        <path d="m850.4-394.6-1.0671 62.791 51.754-2.3256 0.53344-61.628z" fill="#b0a298"/>
        <path d="m849.59-327.16-2.0151 68.442 97.733-2.5349 1.0079-67.174z" fill="#cfc6c1"/>
    </g>
    <path d="m700 670.93h124.42c13.954-119.77 1.1627-211.63 1.1627-211.63-62.791-12.791-122.09 2.3256-122.09 2.3256s-12.791 94.186-3.4884 209.3z"
          fill="#803300"/>
    <g transform="translate(-23.812,928.45)" fill="#520">
        <path d="m729.05-257.52 1.7442-202.91 25.581-2.907 0.58143 205.81z"/>
        <path d="m759.86-257.52 1.6351-205.81 23.437-2.3257 1.0901 208.14z"/>
        <path d="m788.35-257.52 1.7442-208.14 26.744 1.1627-0.58143 206.98z"/>
        <path d="m819.74-258.1 0.36363-207.56 23.547 1.7441 0.50883 205.81z"/>
    </g>
    <path d="m817.44 575.58-30.814 0.58143 0.58143-6.9768 30.814-0.58143z" fill="#241c1c"/>
    <g transform="translate(-23.812,928.45)">
        <path d="m909.24-395.42-0.7147 62.791 34.663-2.3256 0.35747-61.628z" fill="#b1a399"/>
        <path d="m518.06-324.17-2.9633 70.056 143.72-2.5947 1.4822-68.759z" fill="#c4b9b2"/>
        <path d="m462.65-322.52-0.99999 70.056 48.498-2.5947 0.50022-68.759z" fill="#a59489"/>
        <path d="m354.44-322.52-2.141 70.056 103.84-2.5947 1.0709-68.759z" fill="#b2a49b"/>
        <path d="m229.78-321.7-2.4599 70.056 119.3-2.5947 1.2304-68.759z" fill="#c4b9b2"/>
        <path d="m100.15-245.58-2.6276 62.791 127.44-2.3256 1.3138-61.628z" fill="#5c4f47"/>
        <path d="m236.29-247.33-1.8747 62.791 90.923-2.3256 0.93737-61.628z" fill="#78685b"/>
        <path d="m886.96-249.65-1.1784 62.791 57.152-2.3256 0.58882-61.628z" fill="#6c5b51"/>
        <path d="m777.32-250.81-2.2068 62.791 107.04-2.3256 1.1034-61.628z" fill="#51453f"/>
        <path d="m678.13-249.65-1.851 62.791 89.772-2.3256 0.92543-61.628z" fill="#564b41"/>
        <path d="m557.67-249.65-2.3256 62.791 112.79-2.3256 1.1627-61.628z" fill="#7d6b5f"/>
        <path d="m474.36-248.49-1.5662 62.791 75.961-2.3256 0.78312-61.628z" fill="#73665b"/>
        <path d="m337.08-249.65-2.6578 62.791 128.9-2.3256 1.3289-61.628z" fill="#564c43"/>
        <path d="m98.444-175.67-1.8054 62.791 87.562-2.3256 0.90273-61.628z" fill="#7d6c5f"/>
        <path d="m193.37-178.28-2.9968 62.939 145.34-2.3311 1.4984-61.773z" fill="#544940"/>
        <path d="m342.27-179.78-0.61404 62.791 29.78-2.3256 0.30702-61.628z" fill="#917d6f"/>
        <path d="m378.09-179.78-1.4866 62.791 72.099-2.3256 0.74331-61.628z" fill="#7d6d60"/>
        <path d="m458.66-180.32-3.0438 60.044 147.62-2.2238 1.5218-58.932z" fill="#887769"/>
        <path d="m614.89-183.07-3.5428 62.791 171.82-2.3256 1.7714-61.628z" fill="#937d70"/>
        <path d="m793.9-183.89-2.2534 62.791 109.3-2.3256 1.1266-61.628z" fill="#7c6b60"/>
        <path d="m909.7-184.71-0.7147 62.791 34.663-2.3256 0.35747-61.628z" fill="#816f63"/>
        <path d="m101.45-107.89-3.0979 62.791 150.25-2.3256 1.5488-61.628z" fill="#927e71"/>
        <path d="m259.58-113.64-3.3513 62.791 162.54-2.3256 1.6756-61.628z" fill="#948074"/>
        <path d="m546.26-112.82-2.2154 62.791 107.45-2.3256 1.1084-61.628z" fill="#79685c"/>
        <path d="m662.62-113.64-3.1113 62.791 150.9-2.3256 1.5556-61.628z" fill="#716256"/>
        <path d="m822.01-115.29-2.603 62.791 126.24-2.3256 1.3014-61.628z" fill="#917d6f"/>
        <path d="m429.89-113.91-2.2154 62.791 107.45-2.3256 1.1084-61.628z" fill="#695a50"/>
        <path d="m948.4-48.488 3.7124 62.738-128.94-0.20919-2.3639-61.598z" fill="#5c4f47"/>
        <path d="m810.67-47.972 2.9508 62.751-92.005-0.81573-1.9832-61.604z" fill="#78685b"/>
        <path d="m152.51-39.494 2.2465 62.763-57.846-1.3764-1.6306-61.61z" fill="#6c5b51"/>
        <path d="m263.38-42.477 3.2868 62.745-108.3-0.54821-2.1512-61.601z" fill="#51453f"/>
        <path d="m363.73-42.961 2.9268 62.751-90.841-0.8348-1.9711-61.604z" fill="#564b41"/>
        <path d="m485.57-44.961 3.4069 62.743-114.12-0.45284-2.2112-61.6z" fill="#7d6b5f"/>
        <path d="m569.86-45.182 2.6387 62.756-76.871-1.0641-1.8272-61.606z" fill="#73665b"/>
        <path d="m708.7-48.624 3.743 62.738-130.42-0.1852-2.3791-61.597z" fill="#564c43"/>
        <path d="m951.31 21.386 2.8807 62.752-88.605-0.87147-1.9481-61.604z" fill="#7d6c5f"/>
        <path d="m855.25 20.347 4.0882 62.881-147.05 0.08245-2.5531-61.74z" fill="#544940"/>
        <path d="m704.61 21.324 1.6756 62.772-30.161-1.8309-1.3456-61.614z" fill="#917d6f"/>
        <path d="m668.39 21.918 2.5583 62.757-72.965-1.1282-1.7869-61.607z" fill="#7d6d60"/>
        <path d="m586.88 22.714 4.0871 59.986-149.35 0.22765-2.5291-58.899z" fill="#887769"/>
        <path d="m428.82 22.561 4.638 62.723-173.83 0.52729-2.8268-61.59z" fill="#937d70"/>
        <path d="m247.74 24.711 3.3339 62.745-110.59-0.51068-2.1746-61.601z" fill="#7c6b60"/>
        <path d="m130.59 25.812 1.7775 62.77-35.1-1.7498-1.3966-61.613z" fill="#816f63"/>
        <path d="m949.41 89.209 4.188 62.731-152.01 0.1692-2.6017-61.594z" fill="#927e71"/>
        <path d="m789.36 86.079 4.4443 62.726-164.44 0.37347-2.73-61.592z" fill="#948074"/>
        <path d="m499.42 91.661 3.2954 62.745-108.72-0.54144-2.1561-61.601z" fill="#79685c"/>
        <path d="m381.7 92.771 4.2016 62.73-152.67 0.18028-2.6086-61.594z" fill="#716256"/>
        <path d="m220.46 93.773 3.6875 62.739-127.73-0.22949-2.3514-61.598z" fill="#917d6f"/>
        <path d="m617.1 88.637 3.2954 62.745-108.72-0.54144-2.1561-61.601z" fill="#695a50"/>
        <path d="m102.76 292.54-4.2289-62.727 151.49-0.30025 2.647 61.591z" fill="#927e71"/>
        <path d="m262.26 288.05-4.4843-55.3 163.88-0.45404 2.7748 54.301z" fill="#948074"/>
        <path d="m551.21 289.7-3.3393-62.742 108.35 0.4473 2.2029 61.599z" fill="#79685c"/>
        <path d="m668.52 288.49-4.2424-62.727 152.14-0.31133 2.6538 61.591z" fill="#716256"/>
        <path d="m829.22 287.35-3.73-62.736 127.29 0.11936 2.3975 61.596z" fill="#917d6f"/>
        <path d="m433.93 292.83-3.3393-62.742 108.35 0.44791 2.2029 61.599z" fill="#695a50"/>
        <path d="m955.44 218.35 2.6368-62.794-129.97 2.4623-1.2977 61.629z" fill="#685a50"/>
        <path d="m816.6 220.25 1.869-62.793-92.726 2.4234-0.9138 61.629z" fill="#78675b"/>
        <path d="m153.02 223.27 1.1588-62.792-58.284 2.3871-0.5583 61.629z" fill="#6c5b51"/>
        <path d="m264.84 224.31 2.2077-62.793-109.16 2.4407-1.0831 61.629z" fill="#6f5e56"/>
        <path d="m366 223.05 1.8447-62.793-91.552 2.4221-0.90159 61.629z" fill="#564b41"/>
        <path d="m488.84 222.92 2.3287-62.793-115.03 2.4471-1.1436 61.629z" fill="#76655a"/>
        <path d="m573.81 221.66 1.5542-62.793-77.467 2.4072-0.75642 61.629z" fill="#5b5148"/>
        <path d="m713.82 222.68 2.6676-62.794-131.46 2.4642-1.313 61.629z" fill="#564c43"/>
        <path d="m93.751 299.79-2.6862 62.791 130.28-2.3256 1.343-61.628z" fill="#5c4f47"/>
        <path d="m232.92 298.05-1.9164 62.791 92.948-2.3256 0.95825-61.628z" fill="#78685b"/>
        <path d="m898.08 295.72-1.2046 62.791 58.424-2.3256 0.60191-61.628z" fill="#6c5b51"/>
        <path d="m786 294.56-2.256 62.791 109.42-2.3256 1.1281-61.628z" fill="#51453f"/>
        <path d="m684.6 295.72-1.8922 62.791 91.772-2.3256 0.94602-61.628z" fill="#564b41"/>
        <path d="m561.46 295.72-2.3774 62.791 115.3-2.3256 1.1886-61.628z" fill="#7d6b5f"/>
        <path d="m476.29 296.88-1.6011 62.791 77.653-2.3256 0.80058-61.628z" fill="#73665b"/>
        <path d="m335.95 295.72-2.717 62.791 131.77-2.3256 1.3585-61.628z" fill="#564c43"/>
        <path d="m92.003 369.7-1.8456 62.791 89.512-2.3256 0.92284-61.628z" fill="#7d6c5f"/>
        <path d="m189.04 367.09-3.0635 62.939 148.58-2.3311 1.5317-61.773z" fill="#544940"/>
        <path d="m341.26 365.59-0.62772 62.791 30.444-2.3256 0.31386-61.628z" fill="#917d6f"/>
        <path d="m377.88 365.59-1.5197 62.791 73.705-2.3256 0.75986-61.628z" fill="#7d6d60"/>
        <path d="m460.24 365.05-3.1115 60.044 150.91-2.2238 1.5557-58.932z" fill="#887769"/>
        <path d="m619.95 362.3-3.6217 62.791 175.65-2.3256 1.8108-61.628z" fill="#937d70"/>
        <path d="m802.95 361.48-2.3036 62.791 111.73-2.3256 1.1517-61.628z" fill="#7c6b60"/>
        <path d="m921.33 360.66-0.73052 62.791 35.435-2.3256 0.36547-61.628z" fill="#816f63"/>
        <path d="m95.071 437.49-3.1669 62.791 153.59-2.3256 1.5833-61.628z" fill="#927e71"/>
        <path d="m256.73 431.73-3.4259 62.791 166.16-2.3256 1.713-61.628z" fill="#948074"/>
        <path d="m549.79 432.55-2.2648 62.791 109.84-2.3256 1.133-61.628z" fill="#79685c"/>
        <path d="m668.75 431.73-3.1806 62.791 154.26-2.3256 1.5902-61.628z" fill="#716256"/>
        <path d="m831.69 430.09-2.661 62.791 129.05-2.3256 1.3304-61.628z" fill="#917d6f"/>
        <path d="m430.83 431.46-2.2648 62.791 109.84-2.3256 1.1331-61.628z" fill="#695a50"/>
        <path d="m960.89 496.88 3.7951 62.738-131.81-0.20921-2.4167-61.598z" fill="#5c4f47"/>
        <path d="m820.09 497.4 3.0166 62.751-94.054-0.81574-2.0274-61.604z" fill="#78685b"/>
        <path d="m147.27 505.88 2.2965 62.763-59.134-1.3764-1.667-61.61z" fill="#6c5b51"/>
        <path d="m260.61 502.9 3.36 62.745-110.71-0.54822-2.1991-61.601z" fill="#51453f"/>
        <path d="m363.2 502.41 2.992 62.751-92.864-0.83479-2.015-61.604z" fill="#564b41"/>
        <path d="m487.75 500.41 3.4828 62.743-116.66-0.45284-2.2604-61.6z" fill="#7d6b5f"/>
        <path d="m573.92 500.19 2.6975 62.756-78.583-1.0641-1.8678-61.606z" fill="#73665b"/>
        <path d="m715.85 496.75 3.8263 62.738-133.33-0.18521-2.4321-61.597z" fill="#564c43"/>
        <path d="m963.86 566.76 2.9449 62.752-90.578-0.87146-1.9916-61.604z" fill="#7d6c5f"/>
        <path d="m865.66 565.72 4.1792 62.881-150.32 0.0824-2.6099-61.74z" fill="#544940"/>
        <path d="m711.67 566.7 1.7129 62.772-30.833-1.8309-1.3756-61.614z" fill="#917d6f"/>
        <path d="m674.64 567.29 2.6152 62.757-74.59-1.1282-1.8267-61.607z" fill="#7d6d60"/>
        <path d="m591.32 568.09 4.1782 59.986-152.68 0.22765-2.5854-58.899z" fill="#887769"/>
        <path d="m429.73 567.93 4.7413 62.723-177.71 0.52729-2.8897-61.59z" fill="#937d70"/>
        <path d="m244.62 570.08 3.4081 62.745-113.06-0.51067-2.223-61.601z" fill="#7c6b60"/>
        <path d="m124.87 571.18 1.8171 62.77-35.881-1.7498-1.4278-61.613z" fill="#816f63"/>
        <path d="m961.92 634.58 4.2813 62.731-155.39 0.1692-2.6598-61.594z" fill="#927e71"/>
        <path d="m798.31 631.45 4.5432 62.726-168.1 0.37346-2.7908-61.592z" fill="#948074"/>
        <path d="m501.91 637.03 3.3688 62.745-111.14-0.54144-2.2042-61.601z" fill="#79685c"/>
        <path d="m381.57 638.14 4.2952 62.73-156.07 0.18028-2.6667-61.594z" fill="#716256"/>
        <path d="m216.73 639.15 3.7696 62.739-130.57-0.2295-2.4038-61.598z" fill="#917d6f"/>
        <path d="m622.21 634.01 3.3688 62.745-111.14-0.54144-2.2041-61.601z" fill="#695a50"/>
        <path d="m96.412 837.92-4.323-62.727 154.86-0.30024 2.7059 61.591z" fill="#927e71"/>
        <path d="m259.47 840.91-4.5842-62.723 167.53-0.51499 2.8366 61.589z" fill="#948074"/>
        <path d="m554.85 835.08-3.4137-62.742 110.76 0.44731 2.252 61.599z" fill="#79685c"/>
        <path d="m674.78 833.86-4.3369-62.727 155.53-0.31134 2.7129 61.591z" fill="#716256"/>
        <path d="m839.05 832.72-3.8131-62.736 130.13 0.11935 2.4509 61.596z" fill="#917d6f"/>
        <path d="m434.96 838.2-3.4137-62.742 110.76 0.44791 2.252 61.599z" fill="#695a50"/>
        <path d="m968.09 763.73 2.6955-62.794-132.86 2.4623-1.3266 61.629z" fill="#685a50"/>
        <path d="m826.16 765.62 1.9106-62.793-94.791 2.4234-0.93415 61.629z" fill="#78675b"/>
        <path d="m147.8 768.64 1.1846-62.792-59.582 2.3871-0.57074 61.629z" fill="#6c5b51"/>
        <path d="m262.1 769.69 2.2568-62.793-111.59 2.4407-1.1072 61.629z" fill="#6f5e56"/>
        <path d="m365.52 768.42 1.8858-62.793-93.591 2.4221-0.92167 61.629z" fill="#564b41"/>
        <path d="m491.1 768.29 2.3806-62.793-117.59 2.4471-1.1691 61.629z" fill="#76655a"/>
        <path d="m577.96 767.04 1.5888-62.793-79.192 2.4073-0.77327 61.629z" fill="#5b5148"/>
        <path d="m721.08 768.05 2.727-62.794-134.39 2.4642-1.3422 61.629z" fill="#564c43"/>
    </g>
</svg>
