<svg width="1e3mm" height="1935.5mm" version="1.1" viewBox="0 0 1e3 1935.5" xmlns="http://www.w3.org/2000/svg">
    <g transform="translate(-52.488 1823.2)">
        <path d="m154.13-5.266-70.16-1067.8 22.737-290.17 111.52-215.46 195.97-157 198.14-62.798 146.17 25.986 139.67 95.28 80.122 180.82 36.813 184.06 10.827 334.56-21.655 352.97 2.1656 360.55-2.9085 294.39c-462.43 159.25-674.86 53.452-849.42-35.359z"
              fill="#c8b7b7"/>
        <path d="m633.47-1823.2c-155.55 1.8869-311.04 96.243-429.01 232.52-117.97 136.28-150.36 322.13-151.97 502.59v0.7608l0.04583 0.7609c35.409 885.52 69.667 1060.3 69.667 1060.3 3.65 33.452 50.019 47.087 56.793 10.027 0 0-12.804-186.68-69.974-1071.3 1.4545-163.62 27.961-338.79 138.18-466.11 110.22-127.32 254.22-211.4 386.94-213.01 134.15-1.6273 221.46 67.7 280.32 181.59 58.824 113.81 84.25 272.15 81.282 435.19l-21.378 1163.2c-2.8106 37.572 53.541 41.78 56.351 4.2072 0 0-3.0346 78.5 21.468-1164.9l0.046-0.6265v-0.5818c3.1233-169.55-22.04-335.74-87.55-462.49-65.51-126.75-176.35-213.99-331.21-212.11z"
              color="#000000"
              style="font-feature-settings:normal;font-variant-alternates:normal;font-variant-caps:normal;font-variant-ligatures:normal;font-variant-numeric:normal;font-variant-position:normal;isolation:auto;mix-blend-mode:normal;shape-padding:0;text-decoration-color:#000000;text-decoration-line:none;text-decoration-style:solid;text-indent:0;text-orientation:mixed;text-transform:none;white-space:normal"/>
        <path d="m316.56-1017.4c-36.749-208.25 52.061-719.67 382.8-689.05 281.74 12.25 284.81 486.93 272.56 676.8-321.19-1.1316-363.92 3.3177-655.36 12.25z"
              fill="#e9e3e3"/>
        <path d="m908.03-498.3a29.357 29.357 0 0 0-7.788 1.3876c-191.22 58.199-454.61 23.498-454.61 23.498a29.357 29.357 0 1 0-8.0118 58.142s268.47 38.831 479.72-25.468a29.357 29.357 0 0 0-9.3098-57.56z"
              color="#000000"
              style="font-feature-settings:normal;font-variant-alternates:normal;font-variant-caps:normal;font-variant-ligatures:normal;font-variant-numeric:normal;font-variant-position:normal;isolation:auto;mix-blend-mode:normal;shape-padding:0;text-decoration-color:#000000;text-decoration-line:none;text-decoration-style:solid;text-indent:0;text-orientation:mixed;text-transform:none;white-space:normal"/>
        <path d="m897.11-368.99a26.902 26.902 0 0 0-9.8021 1.477c-167.26 55.252-398.49 22.335-398.49 22.335a26.906 26.906 0 1 0-7.967 53.218s236.58 37.208 423.33-24.483a26.902 26.902 0 0 0-7.0719-52.547z"
              color="#000000"
              style="font-feature-settings:normal;font-variant-alternates:normal;font-variant-caps:normal;font-variant-ligatures:normal;font-variant-numeric:normal;font-variant-position:normal;isolation:auto;mix-blend-mode:normal;shape-padding:0;text-decoration-color:#000000;text-decoration-line:none;text-decoration-style:solid;text-indent:0;text-orientation:mixed;text-transform:none;white-space:normal"/>
        <path d="m316.56-1017.4c429.51-102.59 655.36-12.25 655.36-12.25s-144.7 78.092-302.42 80.389c-178.39-12.25-352.95-68.139-352.95-68.139z"
              fill="#f5f4f4"/>
    </g>
</svg>
