<svg width="2834.6pt" height="1528.6pt" version="1.1" viewBox="0 0 1e3 539.25" xmlns="http://www.w3.org/2000/svg">
    <g transform="translate(14.069 -218.45)">
        <g transform="matrix(.96453 0 0 .96453 -.49906 26.877)">
            <path d="m508.8 757.7s-444.35-14.09-483.28-64.004c-58.417-74.895-63.83-241.62 64.341-225.87l103.37 12.703s30.011-259.13 140.13-181.81l107.33 75.261s122.84-282.15 228.08-108.32l53.665 88.837s121.59-100.94 199.75-5.9028c62.064 75.261-22.358 143.73-25.343 186.53 89.151 17.708 135.65 72.31 98.387 124.84l-37.268 52.535z"
                  fill="#bacbd3"/>
            <path d="m534.21 730.78s-434.69-13.668-472.78-62.083c-57.147-72.648-62.443-234.37 62.942-219.09l101.12 12.322s29.358-251.36 137.08-176.35l105 73.002s120.17-273.69 223.12-105.07l52.499 86.171s118.94-97.909 195.41-5.7257c60.715 73.002-21.872 139.42-24.792 180.93 87.213 17.177 132.7 70.14 96.249 121.1l-36.458 50.959z"
                  fill="#e2eef4"/>
        </g>
    </g>
</svg>
