<svg width="1e3mm" height="1350.8mm" version="1.1" viewBox="0 0 1e3 1350.8" xmlns="http://www.w3.org/2000/svg">
    <path transform="scale(.26458)"
          d="m2947.7 139.55c-68.814 0.15372-126.67 2.0855-158.89 2.3047-0.4855 0.01915-0.9696 0.03753-1.4551 0.05664-239.38 263.19-297.39 243.12-828.09 275.29-641-0.01202-735.58-110.31-946.25-269.36-2.2127-0.06537-4.4067-0.12554-6.6211-0.19141-440.93-0.35077-599.34 58.606-685.74 171.42-335.19 1269.5-316.4 2270.8-320.37 3229.7 1979.1 231.07 2111.5 278.86 3779.2-42.621-86.414-1253.5 195.69-2431-334.73-3274.7-73.752-81.071-321.14-92.289-497-91.896z"
          fill="#59f" stroke-width="3.7795"/>
    <path d="m738.08 36.9c-124.37-4.3255-306.05 1.4944-472.12 0.64454 57.237 42.928 80.727 72.833 252.44 72.836 140.85-8.5374 155.85-3.1605 219.68-73.476z"
          fill="#fbecd8"/>
    <path d="m977.76 931.92c-412.16 78.77-462.48 67.446-950.21 10.248 19.621 332.62 48.342 400.85 490.52 404.28 461.95 3.5847 440.96-73.57 459.69-414.53z"
          fill="#a05a2c"/>
</svg>
