<svg width="1e3mm" height="1350.8mm" version="1.1" viewBox="0 0 1e3 1350.8" xmlns="http://www.w3.org/2000/svg">
    <g transform="translate(86.415 1088.2)">
        <path d="m91.441-912.2-46.21 281.78s-135.33 187.96-131.57 481.17c523.64 61.136 558.68 73.782 999.92-11.277-22.555-319.52-78.941-439.82-78.941-439.82s-92.877-315.61-235.72-450.94h-270.66c-63.88 36.732-112.28 112.28-236.82 139.09z"
              fill="#59f"/>
        <path d="m328.27-1051.3-206.3-36.892-19.106 173.33c116.15-28.832 163.51-100.85 225.4-136.44z" fill="#fbecd8"/>
        <path d="m891.35-156.28c-412.16 78.77-462.48 67.446-950.21 10.248 105.93 523.72 879.14 569.17 950.21-10.248z"
              fill="#a05a2c"/>
    </g>
</svg>
