<svg width="1e3mm" height="1350.8mm" version="1.1" viewBox="0 0 1e3 1350.8" xmlns="http://www.w3.org/2000/svg">
    <path transform="scale(.26458)"
          d="m3444.8 231.45c-102.61-112.8-541.35-90.371-655.9-89.592-122.4 405.93-341.51 902.91-872.83 935.12-711.88-92.854-894.27-858.75-909.61-929.32-440.94-0.35078-599.35 58.606-685.74 171.42-335.19 1269.5-316.41 2270.8-320.38 3229.7 1979.1 231.07 2111.5 278.86 3779.2-42.621-86.415-1253.5 195.69-2431.1-334.74-3274.7z"
          fill="#59f" stroke-width="3.7795"/>
    <path d="m738.08 36.9c-124.37-4.3255-306.05 1.4944-472.12 0.64454 0 0 43.523 221.65 240.99 247.41 140.85-8.5374 198.78-140.53 231.13-248.05z"
          fill="#fbecd8"/>
    <path d="m977.76 931.92c-412.16 78.77-462.48 67.446-950.21 10.248 105.93 523.72 879.14 569.17 950.21-10.248z"
          fill="#a05a2c"/>
</svg>
