<svg width="1e3mm" height="1220.8mm" version="1.1" viewBox="0 0 1e3 1220.8" xmlns="http://www.w3.org/2000/svg">
    <g transform="translate(117.93 1046.1)">
        <path d="m137.78-34.996c-74.752 4.0534-132.78 8.348-155.71 12.646-79.996 30.25-112 64.002-96.001 156 0 0 444 99.999 996-12.001l-30.68-57.526-613.32-30.475c-35.409-27.237-74.901-41.877-100.29-68.646z"
              fill="#c44f00"/>
        <path d="m834.13-1040.2c-359.78-32.215-604.06 81.892-604.06 81.892s-180 352-160 536c36 184 64.988 201.81 43.167 339.19 12 64 72.833 76.807 124.83 116.81l644 32c-8-204-108-468-108-468 44.299-242.56 63.317-424.73 60.066-637.89z"
              fill="#a05a2c"/>
    </g>
</svg>
