<svg width="1e3mm" height="1220.8mm" version="1.1" viewBox="0 0 1e3 1220.8" xmlns="http://www.w3.org/2000/svg">
    <g transform="translate(117.93 1046.1)">
        <path d="m137.78-34.996c-74.752 4.0534-132.78 8.348-155.71 12.646-79.996 30.25-112 64.002-96.001 156 0 0 444 99.999 996-12.001l-30.68-57.526-613.32-30.475c-35.409-27.237-74.901-41.877-100.29-68.646z"
              fill="#c44f00"/>
        <path d="m690.51-982.47c-136.42-119.8-444.95-42.019-460.44 24.161 0 0-180 352-160 536 36 184 64.988 201.81 43.167 339.19 12 64 72.833 76.807 124.83 116.81l644 32c-8-204-108-468-108-468 80.973-250.57 4.811-445.39-83.561-580.16z"
              fill="#a05a2c"/>
    </g>
</svg>
