<svg width="1e3mm" height="1220.8mm" version="1.1" viewBox="0 0 1e3 1220.8" xmlns="http://www.w3.org/2000/svg">
    <path d="m825.82 971.72c-203.64 19.647-398.07 46.802-667.47 151.58-2.0302 16.797-1.628 37.278 1.7573 62.599 259.66 41.383 388.38 54.926 718.17 3.5176 10.623-128.54-28.22-191.5-52.463-217.7z"
          fill="#c44f00" stroke-width=".8721"/>
    <path d="m736.64 55.54c-268.97-136.75-497.3 27.037-497.3 27.037-74.074 408.05-69.139 602.12-80.992 1040.7 288.59-112.57 491.15-136.11 710.63-156.39-10.019-136.75-66.403-85.207-66.403-323.16 13.73-245.8-8.5578-443.92-65.942-588.21z"
          fill="#a05a2c" stroke-width=".8721"/>
</svg>
