<svg width="1e3mm" height="1220.8mm" version="1.1" viewBox="0 0 1e3 1220.8" xmlns="http://www.w3.org/2000/svg">
  <g transform="translate(117.93 1046.1)">
    <path d="m137.78-34.996c-74.752 4.0534-132.78 8.348-155.71 12.646-79.996 30.25-112 64.002-96.001 156 0 0 444 99.999 996-12.001l-68.183-190.73c-146.13 6.4661-578.77-8.3992-578.77-8.3992-27.65 23.199-25.395 38.212-97.34 42.48z"
          fill="#c44f00"/>
    <path d="m690.51-982.47c-136.42-119.8-444.95-42.019-460.44 24.161 0 0-180 352-160 536 12.722 66.317 17.458 58.731 20.208 95.24 247.75 14.95 297.02 20.291 692.21 2.2079-4.1203-35.881-8.422-77.447-8.422-77.447 80.973-250.57 4.811-445.39-83.561-580.16z"
          fill="#a05a2c"/>
  </g>
  <path d="m375.03 968.62c233.43 15.842 314.9 20.045 520.2 9.0525l-33.462-254.93c-188.49 3.8797-299.49 8.3782-585.93-0.0277z"
        fill="#fbecd8"/>
</svg>
