<svg width="1e3mm" height="1220.8mm" version="1.1" viewBox="0 0 1e3 1220.8" xmlns="http://www.w3.org/2000/svg">
    <path d="m221.9 982.93c-36.779 78.979-65.182 177.65-61.797 202.97 259.66 41.383 388.38 54.926 718.17 3.5176 10.623-128.54-54.282-189.21-78.525-215.41-115.59 6.8582-448.12 9.6762-577.85 8.93z"
          fill="#c44f00" stroke-width=".8721"/>
    <path d="m736.64 55.54c-268.97-136.75-497.3 27.037-497.3 27.037-50.298 175.78-61.823 243.66-70.019 610.91 250.18 11.795 419.82 8.3723 639.3-11.908-19.966-274.53-12.971-380.41-71.992-626.06z"
          fill="#a05a2c" stroke-width=".8721"/>
    <path d="m237.84 982.88 9.5692-286.27c245.94 6.4269 368.21 0.47387 522.1-11.812l15.248 290.25c-175.72 13.74-347.76 12.68-546.92 7.8306z"
          fill="#fbecd8"/>
</svg>
