<svg width="657mm" height="337.11mm" version="1.1" viewBox="0 0 657 337.11" xmlns="http://www.w3.org/2000/svg">
    <path d="m111.83 200.14 0.45562-27.262 425.64-1.4711-0.45562 27.638z" fill="#0055d4"/>
    <path d="m112.29 246.52-0.45562-46.379 425.64-1.0951 0.94597 47.839z" fill="#025"/>
    <path d="m65.395 289.43 15.668 27.929 472.37 0.65664 16.349-30.654z" fill="#241c1c"/>
    <path d="m37.985 273.7-25.628-0.26266-0.26294-18.142h-11.569l-0.52585 47.326 12.094 0.26322 0.52588-18.405h25.102z"
          fill="#241c1c"/>
    <path d="m619.01 272.08 25.628-0.26266 0.26294-18.142h11.569l0.52585 47.326-12.094 0.26322-0.52588-18.405h-25.102z"
          fill="#241c1c"/>
    <path d="m38.162 68.274 1.067 177.63 6.5767 0.22672-0.14025-55.638 16.228-0.0311v55.988l5.7663-0.30438 0.21996-55.481 19.325-0.15533 0.17319 55.626 6.4057 0.0722 0.20295-55.684 17.817-0.18617 0.4901 56.182 5.1507-0.1914 0.12072-61.642-71.914-0.0797-0.292-115.84 559.7-0.76295 0.31122 114.4h-74.526l0.54247 63.946 7.0306 0.53825-0.45297-56.625h16.297l0.17334 56.171 7.3108 0.21157-0.15762-56.371h18.332l0.86677 56.169 5.9837-0.0692 0.2743-56.029 18.35-0.0829 0.14833 55.995 6.5476-0.0805-0.23163-178.17 21.931-16.252-95.706 0.13448-35.993-15.894-354.01 0.50767-35.537 15.984-95.683 0.13444z"
          fill="#ac9d93" stroke-width="1.8325"/>
    <path d="m39.229 264.54v-18.634l572.87 0.25751-0.0297 19.357z" fill="#241c1c"/>
    <path d="m33.779 291.32 585.77-0.33526 1.0517-26.292-587.87-0.71644z" fill="#6b5252"/>
    <path d="m112.29 172.87 0.46062-105.15 425.15-0.37138 0.0247 104.05-36.105 0.10953-1.1193-76.169-150.26 0.0084 0.45562 76.697-38.143 0.13183-0.10872-76.238-161.92 0.46737 0.45562 76.329z"
          fill="#0055d4"/>
</svg>
