<svg width="657mm" height="337.11mm" version="1.1" viewBox="0 0 657 337.11" xmlns="http://www.w3.org/2000/svg">
    <path d="m48.751 265.58 0.91124-92.946h555.85l0 92.035z" fill="#2b1100"/>
    <path d="m65.395 289.43 15.668 27.929 488.77 1.1123 16.349-30.654z" fill="#241c1c"/>
    <path d="m37.985 273.7-25.628-0.26266-0.26294-18.142h-11.569l-0.52585 47.326 12.094 0.26322 0.52588-18.405h25.102z"
          fill="#241c1c"/>
    <path d="m619.01 272.08 25.628-0.26266 0.26294-18.142h11.569l0.52585 47.326-12.094 0.26322-0.52588-18.405h-25.102z"
          fill="#241c1c"/>
    <path d="m56.497 173.77-0.45562 89.073 24.603-0.45562 0.22781-88.845z" fill="#784421"/>
    <path d="m83.264 174-0.45562 89.073 24.603-0.45562 0.22781-88.845z" fill="#874d25"/>
    <path d="m110.15 174-0.45562 89.073 24.603-0.45562 0.22781-88.845z" fill="#945429"/>
    <path d="m137.48 174-0.45562 89.073 24.603-0.45562 0.22781-88.845z" fill="#693c1d"/>
    <path d="m165.05 173.77-0.45561 89.073 24.603-0.45562 0.2278-88.845z" fill="#844b24"/>
    <path d="m192.61 174-0.45561 89.073 24.603-0.45562 0.2278-88.845z" fill="#70401f"/>
    <path d="m53.275 172.48v20.797l167.02 70.304 0.21235-19.681z" fill="#422512"/>
    <path d="m230.56 173.77-0.4714 89.073 25.455-0.45562 0.2357-88.845z" fill="#784421"/>
    <path d="m258.25 174-0.47139 89.073 25.455-0.45562 0.23571-88.845z" fill="#874d25"/>
    <path d="m286.06 174-0.4714 89.073 25.455-0.45562 0.23571-88.845z" fill="#945429"/>
    <path d="m314.21 174.23-0.47139 89.073 25.455-0.45562 0.23567-88.845z" fill="#844b24"/>
    <path d="m227.67 264.13 0.48078-20.955 98.558-69.407-0.0697 20.264z" fill="#563118"/>
    <path d="m342.73 174.45-0.47138 89.073 25.455-0.45562 0.23569-88.845z" fill="#70401f"/>
    <path d="m371.25 174.23-0.47138 89.073 25.455-0.45562 0.23571-88.845z" fill="#834a24"/>
    <path d="m436.65 173.66-0.45561 89.073 24.603-0.45562 0.22781-88.845z" fill="#784421"/>
    <path d="m463.42 173.89-0.45562 89.073 24.603-0.45562 0.22781-88.845z" fill="#874d25"/>
    <path d="m490.3 173.89-0.45562 89.073 24.603-0.45562 0.22781-88.845z" fill="#945429"/>
    <path d="m517.64 173.89-0.45562 89.073 24.603-0.45562 0.22781-88.845z" fill="#693c1d"/>
    <path d="m545.2 173.66-0.45561 89.073 24.603-0.45562 0.2278-88.845z" fill="#844b24"/>
    <path d="m572.77 173.89-0.45561 89.073 24.603-0.45562 0.2278-88.845z" fill="#70401f"/>
    <path d="m398.68 173.77-0.47139 89.073 25.455-0.45562 0.2357-88.845z" fill="#784421"/>
    <path d="m426.24 264 0.0248-20.316-99.695-69.913 0.0702 20.412z" fill="#422512"/>
    <path d="m599.56 172.37v21.246l-166.55 70.821 0.11838-20.774z" fill="#5a3219"/>
    <path d="m44.65 143.47h562.69l0.45561 125.75h-8.2011l-0.45564-118.46-164.93 0.45561-0.91126 118h-7.2898l-0.45562-118h-196.83l-0.45562 115.27h-8.2011l0.91123-114.82-166.76-0.45562-0.91124 115.27-9.1123 1.8225z"
          fill="#917c6f"/>
    <path d="m33.779 291.32 585.77-0.33526 1.0517-26.292-587.87-0.71644z" fill="#6b5252"/>
</svg>
