<svg width="1e3mm" height="337.11mm" version="1.1" viewBox="0 0 1e3 337.11" xmlns="http://www.w3.org/2000/svg">
    <path d="m65.395 289.43 15.668 27.929 724.8 2.0436 16.349-30.654z" fill="#241c1c"/>
    <path d="m37.985 273.7-25.628-0.26266-0.26294-18.142h-11.569l-0.52585 47.326 12.094 0.26322 0.52588-18.405h25.102z"
          fill="#241c1c"/>
    <path d="m367.08 142.24c1.8405-9.0709 11.197-14.375 11.197-14.375l24.528-0.19143s11.082 2.9327 13.974 14.896z"
          fill="#241c1c"/>
    <path d="m65.219 150.01s3.7183-25.284 11.899-31.234c18.592 0 22.31-12.642 51.313-14.13 20.079-0.74364 30.49 8.1803 37.927 8.1803 18.592-5.2056 32.721 4.8338 50.569 9.2958 11.155-3.7183 18.592-12.27 32.721-12.27 17.848 5.2056 20.079 18.592 36.439 15.617 6.693 1.4873 15.583 23.167 15.583 23.167z"
          fill="#241c1c"/>
    <path d="m462.75 211.17 0.1221-78.656-3.516-84.017-26.349-0.86862 1.7503 94.716-88.08-0.17028 0.9593-70.205 86.212-1.5096-0.8416-22.832-112.71 1.1768 0.0484 162.08z"
          fill="#bd0000"/>
    <path d="m702.82 132.67c0.90919-53.426-39.293-70.344 1.8184-132.67h61.826c40.914 59.659-0.90919 80.139-0.90919 133.57z"
          fill="#862424"/>
    <path d="m571.37 134.64c0.45187-29.868-19.539-39.326 0.90418-74.173h30.744c20.346 33.353-0.45186 44.802-0.45186 74.67z"
          fill="#792121"/>
    <path d="m830.96 268.18c52.585-72.567 1.0517-135.67 1.0517-135.67h-369.14c-12.464 40.207-9.223 78.641-9.223 78.641l-133.3-0.2699-1.2803 57.117s341.27-0.30607 511.9 0.1803z"
          fill="#24221c"/>
    <path d="m51.094 265.33 258.36 1.4873 0.39828-121.16-259.24 0.52588z" fill="#bd0000"/>
    <path d="m33.779 291.32 838.2 1.0517 1.0517-26.292-840.3-2.1034z" fill="#6b5252"/>
    <path d="m307.66 49.55 171.78 0.0657v-16.361h-171.04z" fill="#483737"/>
    <path d="m854.24 207.09h-401.58l-0.74366-11.155 56.147 0.10239 0.37173-65.054 9.3224-0.0796-0.35226 65.345 122.29 0.15582 0.37229-64.687 9.2654-0.20034 0.0601 65.248 152.79-0.0645-1.4873-65.074 8.8633-0.0979 1.6999 64.965 43.724 0.18475z"
          fill="#c8beb7"/>
    <path d="m830.3 336.63 169.7 0.4719-116.52-97.436-52.58-0.2315z" fill="#bd0000"/>
    <path d="m834.38 244.25 0.29438 87.638 11.691-0.0768-5.9382-87.298z" fill="#241c1c"/>
    <path d="m980.82 331.6-96.876-87.344-5.5214-0.26266 81.218 87.761z" fill="#241c1c"/>
    <path d="m844.64 244.65 13.587 87.212 17.09-0.18587-24.499-87.158z" fill="#241c1c"/>
    <path d="m855.42 244.38 33.492 87.398 20.88-0.18531-47.668-87.212z" fill="#241c1c"/>
    <path d="m867.64 244.38 56.542 87.924 20.617-0.18531-70.717-87.738z" fill="#241c1c"/>
    <path d="m850.52 174.18v52.056l9.6676 0.37173v-52.8z" fill="#d4aa00"/>
    <path d="m795.97 245.07 0.74363 49.204-120.47-0.70296v-47.635z" fill="#dab000"/>
    <path d="m365.55 170.25v25.33h6.3641v-25.079z" fill="#d4aa00"/>
    <path d="m399.64 170.5 0.0805 4.8299 7.265 0.1241v5.196l-7.3063-0.0712-0.0898 3.837 7.355 0.0556-0.0173 6.4196-7.287-0.0445v4.7333h11.592v-25.079z"
          fill="#d4aa00"/>
    <path d="m378.27 170.5-0.2808 6.3711 8.5159 0.17028 0.0406 17.919 5.2276 0.25098v-25.079z" fill="#d4aa00"/>
    <path d="m121.55 184.49v46.473h15.053v-46.013z" fill="#d4aa00"/>
    <path d="m202.19 184.95 0.19031 8.8615 17.184 0.2276v9.5332l-17.281-0.13078-0.21247 7.0399 17.397 0.10184-0.0412 11.778-17.236-0.0818v8.6842h27.418v-46.013z"
          fill="#d4aa00"/>
    <path d="m151.63 184.95-0.66418 11.689 20.142 0.31275 0.0961 32.877 12.365 0.46022v-46.013z" fill="#d4aa00"/>
    <path d="m74.269 162.48v91.235l194.56 0.52588 1.3146-8.4136-187.73-0.26266 0.52582-75.459 185.62-0.78877 0.26294 84.924h7.6248l0.26294-92.286z"
          fill="#c8b7b7"/>
    <path d="m407.78 87.848c3.175 3.2329 5.4648 8.1345 6.1434 15.515 0 0 4.9805-1.5386 5.2291 3.7146-0.24853 6.3042-4.5012 3.9773-4.5012 3.9773-0.99399 12.871-7.7555 19.271-27.388 19.797-5.1649 0-9.2059-2.0371-12.263-5.101l4.8889-2.197s3.0139-2.7541 8.9778-0.12744c0 0-1.4485-7.8194-1.0756-12.679-4.2247 1.3134-5.8501-1.3055-6.2229-4.1949 0 0 2.0197-5.4219 6.3687 0.22482 1.7396-4.5966 0.67791-8.983 2.7902-11.216 0.497-4.0713 7.0213-5.9659 10.625-4.2587 0 0 2.7263-2.7492 6.427-3.456z"
          fill="#e1c570" stroke-width=".014804"/>
    <path d="m407.31 96.213c1.386 0.18642 2.6174 1.8518 2.5482 4.0807 0 1.8573-1.4057 2.8706-2.6531 2.8706-1.6632 0-2.5124-1.4166-2.4432-3.2739 0-1.4859 1.0928-3.6773 2.5482-3.6773z"
          fill="#fff" stroke-width=".014804"/>
    <path d="m408.08 99.298c0.64536 0 1.3423 1.0719 1.2778 1.8617 0.0645 0.72399-0.99749 1.4236-1.6429 1.4895-0.77445 0-1.2778-0.88576-1.2778-1.6757 0-1.1189 0.73935-1.6755 1.6429-1.6755z"
          stroke-width=".080746"/>
    <path d="m397.43 110.34c0.39694 0 0.87112 0.20924 1.2497 0.97892 2.3802 6.5019 4.8253 6.6556 10.81 6.1724-6.4156 1.0978-5.0795 1.8783-7.6929 3.4028 0.23189-0.13968 0.7086-0.45465 0.98345-0.84191 0 0-1.2426-0.45966-1.4911-1.5761-0.6834 0.39399-1.4911 0.26322-1.4911 0.26322 0.68342 1.2477 1.8639 2.2325 1.8639 2.2325-4.4181-3.6234-1.4667-7.1572-5.0322-10.375 0 0 0.3507-0.25932 0.80052-0.2571z"
          stroke-width=".014804"/>
    <path d="m402.78 120.05s-1.2426-0.46022-1.4911-1.5759c-0.6834 0.39344-1.4911 0.26322-1.4911 0.26322 0.68341 1.2476 1.8638 2.2327 1.8638 2.2327s0.74556-0.39399 1.1183-0.91943z"
          fill="#d40000" stroke-width=".055953"/>
    <path d="m387.93 106.78c1.7396-4.5967 2.5184-11.349 4.6308-13.582-8.2184-1.6202-12.878-2.5825-22.657 0.01669 0 0-2.4619 0.75877-3.5716 2.9084-0.87776 1.7004-0.44903 4.5488-0.5039 6.6372 0 0-1.254 2.762-1.0927 5.9871 0.10668 2.1343 1.3272 4.367 2.1684 6.5112 0.99406 3.8088-0.0704 3.4892 1.0478 5.8531 1.1183 3.4148 5.1966 5.4673 5.1966 5.4673l6.7339-3.0261s3.0138-2.7542 8.9778-0.12744c0 0-1.4484-7.8193-1.0756-12.679-4.2247 1.3133-5.8506-1.3057-6.2229-4.195 0 0 2.0197-5.4221 6.3687 0.22482z"
          fill="#520" stroke-width=".055953"/>
    <path d="m365.82 93.215 59.52 2.7943s-6.1518-5.7278-11.13-7.8767c0 0 3.9446-3.4223 2.7637-7.3683-1.0011-4.7246-43.132-7.8085-48.152-2.417-2.0451 5.5775 4.0626 7.0593-3.0022 14.868z"
          fill="#241c1c"/>
    <path d="m378.31 142.53c0.76067-0.68598-3.3552-9.9636 12.595-13.667 7.6006-0.6137 18.38 10.093 18.38 10.093 10.788 1.8887 18.643 5.2988 18.643 5.2988-0.85572 9.5787-10.147 18.332-10.147 18.332-11.712-0.68081-23.204-6.4319-23.204-6.4319-9.5198-4.3443-16.267-13.625-16.267-13.625z"
          fill="#4a3a3a" stroke-width=".03532"/>
    <path d="m431.59 141.64c0.80931-0.74547 1.6987-1.1365 2.9501-0.61292 2.9413 0.52143 1.9826 2.7169-0.37429 6.0348 9.3436 1.5111 7.9213 4.5165 1.4429 6.9136 3.263 2.2248 1.5072 6.1931-4.6754 6.2038 4.2215 3.8965-0.18192 5.729-2.7294 5.6413-5.0334-0.9856-6.6866-3.4255-9.0738-4.6228 2.474-2.6915 7.5879-8.9611 8.6611-15.827 1.6504-0.8783 2.6429-2.6659 3.7988-3.7306z"
          fill="#fbecd8" stroke-width=".03532"/>
</svg>
