<svg width="1e3mm" height="1000.5mm" version="1.1" viewBox="0 0 1e3 1000.5" xmlns="http://www.w3.org/2000/svg">
    <g transform="translate(.11369 703.23)">
        <path d="m499.62-703.23 0.26471 71.169c33.985 0.0427 67.546 4.1392 100.04 12.017-12.451 200.46-100.97 331.04-100.97 331.04l63.993 24.819s25.815-151.46 172.67-296.54c23.905 15.882 46.319 34.25 66.836 54.933l50.275-50.143c-93.4-94.145-220.49-147.16-353.1-147.3z"
              fill="#d40000" style="paint-order:normal"/>
        <path d="m499.62 297.3 0.26471-71.169c33.985-0.0427 67.546-4.1392 100.04-12.017-12.451-200.46-99.105-331.04-99.105-331.04l58.833-24.614s29.11 151.25 175.96 296.34c23.905-15.882 46.319-34.25 66.836-54.933l50.275 50.143c-93.4 94.145-220.49 147.16-353.1 147.3z"
              fill="#d40000" style="paint-order:normal"/>
        <path d="m500.15 297.3-0.26471-71.169c-33.985-0.0427-67.546-4.1392-100.04-12.017 12.451-200.46 100.97-331.04 100.97-331.04l-59.985-26.278s-29.823 152.92-176.67 298c-23.905-15.882-46.319-34.25-66.836-54.933l-50.275 50.143c93.4 94.145 220.49 147.16 353.1 147.3z"
              fill="#d40000" style="paint-order:normal"/>
        <path d="m500.28-702.83-0.26471 71.169c-33.985 0.0427-67.546 4.1392-100.04 12.017 12.451 200.46 98.973 330.64 98.973 330.64l-60.259 22.766s-27.552-149.01-174.4-294.09c-23.905 15.882-46.319 34.25-66.836 54.933l-50.275-50.143c93.4-94.145 220.49-147.16 353.1-147.3z"
              fill="#d40000" style="paint-order:normal"/>
        <path d="m999.89-202.96-71.169-0.26471c-0.0427 33.985-4.1392 68.076-12.017 100.57-200.46-12.451-331.04-99.634-331.04-99.634l-26.008 60.756s152.65 27.717 297.73 174.57c-15.882 23.905-34.25 46.319-54.933 66.836l50.143 50.275c94.145-93.4 147.16-220.49 147.3-353.1z"
              fill="#d40000" style="paint-order:normal"/>
        <path d="m-0.11369-202.43 71.169-0.26471c0.0427-33.985 4.1392-67.546 12.017-100.04 200.46 12.451 331.04 100.97 331.04 100.97l24.581-64.469s-151.22-25.34-296.3-172.19c15.882-23.905 34.25-46.319 54.933-66.836l-50.143-50.275c-94.145 93.4-147.16 220.49-147.3 353.1z"
              fill="#d40000" style="paint-order:normal"/>
        <path d="m-0.11369-202.96 71.169 0.26471c0.0427 33.985 4.1392 67.546 12.017 100.04 200.46-12.451 331.04-99.105 331.04-99.105l26.721 58.562s-153.36 29.381-298.44 176.23c15.882 23.905 34.25 46.319 54.933 66.836l-50.143 50.275c-94.145-93.4-147.16-220.49-147.3-353.1z"
              fill="#d40000" style="paint-order:normal"/>
        <path d="m999.89-202.96-71.169-0.26471c-0.0427-33.985-4.1392-67.546-12.017-100.04-200.46 12.451-331.04 100.97-331.04 100.97l-22.712-61.887s149.35-27.922 294.43-174.77c-15.882-23.905-34.25-46.319-54.933-66.836l50.143-50.275c94.145 93.4 147.16 220.49 147.3 353.1z"
              fill="#d40000" style="paint-order:normal"/>
        <circle cx="499.62" cy="-205.12" r="99.622" fill="#620000" style="paint-order:normal"/>
    </g>
</svg>
