<svg width="1e3mm" height="1000.5mm" version="1.1" viewBox="0 0 1e3 1000.5" xmlns="http://www.w3.org/2000/svg">
    <path d="m928.83 500.01c-0.0427-33.985-4.1391-68.076-12.017-100.57-200.46 12.451-321.66 93.922-321.66 93.922l-23.968-58.716s141.23-24.045 286.31-170.9c-15.882-23.905-34.25-46.318-54.852-66.916-20.602-20.597-43.017-38.965-66.922-54.847-146.85 145.09-173.92 284.92-173.92 284.92l-56.385-21.758s82.166-122.01 94.617-322.47c-32.494-7.8778-66.055-11.974-100.04-12.017-33.985 0.0427-67.546 4.139-100.04 12.017 12.451 200.46 95.258 322.06 95.258 322.06l-57.129 23.422s-26.967-141.09-173.81-286.17c-23.905 15.882-46.319 34.25-66.919 54.849-20.6 20.599-38.967 43.012-54.848 66.916 145.08 146.85 287.02 171.33 287.02 171.33l-26.721 56.93s-119.16-80.126-319.62-92.577c-7.8778 32.494-11.975 66.055-12.017 100.04l-71.169 0.26459-0.0031-0c0.14-132.61 53.155-259.7 147.3-353.1l0 0c93.263-93.935 220.08-146.88 352.53-146.96 132.45-0.073 259.48 52.892 353.25 146.62 93.769 93.728 146.78 220.82 146.92 353.43l-0.01 0z"
          fill="#d40000" style="paint-order:normal"/>
    <path d="m928.83 500.01c-0.0427 33.985-4.139 68.076-12.017 100.57-200.46-12.451-321.66-93.922-321.66-93.922l-23.968 58.716s141.23 24.045 286.31 170.9c-15.882 23.905-34.249 46.318-54.852 66.916-20.602 20.597-43.017 38.965-66.922 54.847-146.85-145.09-173.92-284.92-173.92-284.92l-56.385 21.758s82.166 122.01 94.617 322.47c-32.494 7.8778-66.055 11.974-100.04 12.017-33.985-0.0427-67.546-4.139-100.04-12.017 12.451-200.46 95.258-322.06 95.258-322.06l-57.129-23.422s-26.967 141.09-173.81 286.17c-23.905-15.882-46.319-34.25-66.919-54.849-20.6-20.599-38.967-43.012-54.848-66.916 145.08-146.85 287.02-171.33 287.02-171.33l-26.721-56.93s-119.16 80.126-319.62 92.577c-7.8778-32.494-11.975-67.114-12.017-101.1l-71.172 0.26159 0.0031 0c0.14 132.61 53.152 260.23 147.3 353.63l0 0c93.263 93.935 220.08 146.88 352.53 146.96 132.45 0.073 259.48-52.892 353.25-146.62s146.78-221.36 146.92-353.97l-0.01 0z"
          fill="#d40000" style="paint-order:normal"/>
    <circle cx="499.73" cy="498.11" r="99.622" fill="#620000" style="paint-order:normal"/>
</svg>
