<svg width="1e3mm" height="553.04mm" version="1.1" viewBox="0 0 1e3 553.04" xmlns="http://www.w3.org/2000/svg">
    <g transform="translate(-38.205 379.36)">
        <path d="m714.78-158.94c-36.286-30.994-171.6-61.232-171.6-61.232-94.494 0.75595-165.55 33.262-176.89 43.089-13.607 21.167-21.706 33.335-21.167 57.452 4.5357 20.411 105.83 37.042 161.77 50.649 79.375 5.2917 108.86-7.5595 108.86-7.5595 38.34-25.72 140.97-30.394 99.03-82.399z"
              fill="#ca1e1e"/>
        <path d="m375.36-140.04s44.19-25.815 36.631-243.53c46.869 72.571 16.286 50.006 76.762 88.559 26.458-57.452 10.583-178.4 10.583-178.4 80.887 70.304 61.988 207.13 65.768 206.38 47.625-44.601 18.195-79.922 65.82-154.01 3.7798 167.07 9.0194 207.68 49.085 286.3-173.11 2.2679-112.64 68.036-304.65-5.2917z"
              fill="#f60"/>
    </g>
</svg>
