<svg width="1e3mm" height="606.01mm" version="1.1" viewBox="0 0 1e3 606.01" xmlns="http://www.w3.org/2000/svg">
    <g transform="matrix(6.2878 0 0 6.2878 -278.39 -487.98)">
        <path d="m44.275 167.96s54.745-29.832 120.44-55.581l18.843-5.8581 1.331 3.6006-15.493 7.0926c-63.09 23.435-122.89 56.773-122.89 56.773z"
              fill="#502d16"/>
        <path d="m174.6 139.8s4.0902-2.235 6.9713-6.8057c0.23691 5.8988 3.2823 8.1578 3.2823 8.1578s3.1813-0.22728 2.7646-7.354c1.8332 3.1082 7.9219 5.9328 7.9219 5.9328-7.1054-11.048-0.0728-13.211-5.8858-31.726-2.7481-8.7531-8.7242-14.072-11.042-30.397-1.6584 5.7906-2.5242 6.0285-1.6844 10.054 0 0-3.8897-4.1062-8.3513-5.768-0.50378 3.6918 2.545 8.5084 2.545 8.5084-5.6734-4.2339-11.177-2.8355-11.177-2.8355 10.969 4.9432 14.275 9.9718 17.987 23.876 4.259 15.954-0.34838 18.621-3.331 28.357z"
              fill="#d38d5f"/>
        <path d="m183.56 106.52 19.754-6.5183-18.423 10.119z" fill="#502d16"/>
    </g>
</svg>
