<svg width="1e3mm" height="2800.5mm" version="1.1" viewBox="0 0 1e3 2800.5" xmlns="http://www.w3.org/2000/svg">
    <g transform="translate(-37.15 2413.5)">
        <path d="m824.96-882.43h-558.39v22.725l-101.72 126.61-86.031 86.031-8.1162 1021.6 938.14 5.9287-0.1822-1016.4-88.466-90.631z"
              fill="#6c5d53"/>
        <path d="m1034.1-1914.6-46.807 17.11-398.23-2.1643 37.954-24.129z" fill="#784421"/>
        <path d="m507.63-2413.5-52.77 22.558 2.1643 365.77 47.545-24.091z" fill="#784421"/>
        <path d="m498.45-922.91 3.0608-1007-419.33-6.1216 3.0608-125.49 419.33 12.243 3.0608-364.24 122.43 3.0608v364.24l407.09 3.0608-3.0609 128.55-407.09-9.1824-12.243 994.76z"
              fill="#a05a2c"/>
        <path d="m498.45-922.91-47.916-4.9766 8.6572-978.27-422.04-8.6572 2.1643-127.69 45.927-19.02-3.0608 125.49 419.33 6.1216z"
              fill="#784421"/>
        <path d="m483-1332.6v142.84l149.34-2.1643v-142.84z" fill="#dbdee3"/>
        <path d="m483-1332.6 149.34-2.1643 6.4929 49.779h-147.17l-8.6573-47.615" fill="#b0bac3"/>
        <path d="m824.96-932.21-558.39-2.1643v51.943h558.39z" fill="#917c6f"/>
        <path d="m167.01-875.94v121.2l259.72-2.1643 2.1643-116.87z" fill="#c8beb7"/>
        <path d="m436.47-873.78v121.2l236.11-2.1643 1.9676-116.87z" fill="#9a887c"/>
        <path d="m682.12-873.78v121.2l236.11-2.1643 1.9676-116.87z" fill="#a6978c"/>
        <path d="m66.369-748.25v121.2l173.86-2.1643 1.4488-116.87z" fill="#a49387"/>
        <path d="m252.5-748.25v121.2l272.6-2.1643 2.2717-116.87z" fill="#baaea6"/>
        <path d="m536.02-748.25v121.2l115.91-2.1643 0.96591-116.87z" fill="#c9c1bb"/>
        <path d="m662.64-748.25v121.2l356.31-2.1643 2.9694-116.87z" fill="#9d8f85"/>
        <path d="m68.533-618.39v121.2l302.65-2.1643 2.5221-116.87z" fill="#b4a79d"/>
        <path d="m382.36-620.55v121.2l302.65-2.1643 2.5221-116.87z" fill="#a09184"/>
        <path d="m694.02-622.72v121.2l154.54-2.1643 1.2879-116.87z" fill="#bcb1a8"/>
        <path d="m857.42-620.55v121.2l158.84-2.1643 1.3236-116.87z" fill="#afa197"/>
        <path d="m67.451-492.86v121.2l246.84-2.1643 2.0571-116.87z" fill="#a29387"/>
        <path d="m323.92-492.86v121.2l246.84-2.1643 2.057-116.87z" fill="#c1b8b0"/>
        <path d="m579.31-492.86v121.2l158.84-2.1643 1.3237-116.87z" fill="#958578"/>
        <path d="m747.04-495.02v121.2l268.3-2.1643 2.2359-116.87z" fill="#ab9f94"/>
        <path d="m1017 9.2638v-121.2l-173.86 2.1643-1.4488 116.87z" fill="#a49387"/>
        <path d="m830.91 9.2639v-121.2l-272.6 2.1643-2.2717 116.87z" fill="#baaea6"/>
        <path d="m547.39 9.2639v-121.2l-115.91 2.1643-0.96591 116.87z" fill="#c9c1bb"/>
        <path d="m420.77 9.2638v-121.2l-356.31 2.1643-2.9693 116.87z" fill="#9d8f85"/>
        <path d="m1014.9-120.59v-121.2l-302.65 2.1643-2.5221 116.87z" fill="#b4a79d"/>
        <path d="m701.05-118.43v-121.2l-302.65 2.1643-2.5221 116.87z" fill="#a09184"/>
        <path d="m389.39-116.27v-121.2l-154.54 2.1643-1.2879 116.87z" fill="#bcb1a8"/>
        <path d="m225.99-118.43v-121.2l-158.84 2.1643-1.3237 116.87z" fill="#afa197"/>
        <path d="m1016-246.12v-121.2l-246.84 2.1643-2.057 116.87z" fill="#a29387"/>
        <path d="m759.49-246.12v-121.2l-246.84 2.1643-2.057 116.87z" fill="#c1b8b0"/>
        <path d="m504.1-246.12v-121.2l-158.84 2.1643-1.3237 116.87z" fill="#958578"/>
        <path d="m336.37-243.96v-121.2l-268.3 2.1643-2.236 116.87z" fill="#ab9f94"/>
        <path d="m1010.3 12.51v121.2l-302.65-2.1643-2.5221-116.87z" fill="#b4a79d"/>
        <path d="m696.45 10.346v121.2l-302.65-2.1643-2.5221-116.87z" fill="#a09184"/>
        <path d="m384.79 8.1817v121.2l-154.54-2.1643-1.2879-116.87z" fill="#bcb1a8"/>
        <path d="m221.39 10.346v121.2l-158.84-2.1643-1.3237-116.87z" fill="#afa197"/>
        <path d="m1011.4 138.04v121.2l-246.84-2.1643-2.0571-116.87z" fill="#a29387"/>
        <path d="m754.89 138.04v121.2l-246.84-2.1643-2.057-116.87z" fill="#c1b8b0"/>
        <path d="m499.5 138.04v121.2l-158.84-2.1643-1.3237-116.87z" fill="#958578"/>
        <path d="m331.77 135.88v121.2l-268.3-2.1643-2.236-116.87z" fill="#ab9f94"/>
        <path d="m62.852 384.77v-121.2l246.84 2.1643 2.057 116.87z" fill="#a29387"/>
        <path d="m319.32 384.77v-121.2l246.84 2.1643 2.057 116.87z" fill="#c1b8b0"/>
        <path d="m574.71 384.77v-121.2l158.84 2.1643 1.3237 116.87z" fill="#958578"/>
        <path d="m742.45 386.94v-121.2l268.3 2.1643 2.2359 116.87z" fill="#ab9f94"/>
    </g>
</svg>
