<svg width="1e3mm" height="881.1mm" version="1.1" viewBox="0 0 1e3 881.1" xmlns="http://www.w3.org/2000/svg">
    <path d="m641.92 324.8c-33.169 3.5261-62.64 35.157-60.982 77.471 0 35.261 33.641 54.499 63.495 54.499 39.803 0 60.128-26.895 58.47-62.156 0-28.209-26.153-69.814-60.982-69.814z"
          fill="#fff" stroke-width=".31556"/>
    <path d="m634.33 382.12c-10.514 0-21.867 14.356-20.816 24.934-1.0513 9.6971 16.25 19.066 26.763 19.947 12.616 0 20.816-11.863 20.816-22.441 0-14.986-12.044-22.441-26.763-22.441z"
          stroke-width="1.1927"/>
    <path d="m253.4 775.96c-11.337 4.6211-137.53-47.683-161.51-177.15-57.464-66.269-57.111-181.96 9.9076-265.73 10.456-88.126 32.048-100.32 70.608-155.03 217.7-40.132 504.33-24.588 761.4 36.571 13.811 44.506 16.202 101.74-1.7767 143.49 38.834 87.837 9.0908 134.57-14.867 242.41-27.064 109.64-53.609 176.88-148.93 187.65-282.11 12.528-289.35 1.1302-514.83-12.21z"
          fill="#520" stroke-width="1.0613"/>
    <path d="m152.85 564.39c4.1019 248.79 181.97 323.69 364.71 320.35 171.62 1.3378 324.24-76.556 337.77-321.34 145.23-3.6248 112.89-218.13-2.2275-120.73-4.9288-88.762-15.78-165.02-41.41-250.05-257.09-0.51494-279.12-14.61-617.89 64.927-19.16 58.224-48.017 127.27-50.491 180.16-122.79-68.58-145.76 152.86 9.5345 126.68z"
          fill="#fbecd8" stroke-width=".27872"/>
    <path d="m350.33 319.32c-38.012 3.9984-71.784 39.865-69.885 87.847 0 39.983 38.552 61.799 72.764 61.799 45.613 0 68.906-48.117 67.006-88.101 0-31.987-29.971-61.545-69.885-61.545z"
          fill="#fff" stroke-width=".35972"/>
    <path d="m362.8 366.7c-16.749 0-34.836 23.525-33.161 40.859-1.6748 15.89 25.887 31.243 42.635 32.687 20.098 0 33.161-19.439 33.161-36.773 0-24.557-19.187-36.773-42.635-36.773z"
          stroke-width="1.927"/>
    <path d="m615.7 320.5c-38.012 3.9984-71.784 39.866-69.885 87.847 0 39.983 38.552 61.799 72.764 61.799 45.613 0 68.906-48.117 67.006-88.101 0-31.987-29.971-61.545-69.885-61.545z"
          fill="#fff" stroke-width=".35972"/>
    <path d="m633.03 366.48c-15.182 0-31.577 24.33-30.059 42.257-1.5181 16.434 23.465 32.312 38.647 33.806 18.218 0 30.059-20.104 30.059-38.032 0-25.398-17.392-38.032-38.647-38.032z"
          stroke-width="1.8658"/>
    <path d="m509.79 529.18c-82.294 18.117-109.72-34.102-109.72-34.102s-2.7431 28.773 24.688 54.35c34.975 22.379 85.037-20.248 85.037-20.248z"/>
    <path d="m646.2 540.13c-45.437 48.834-68.683 105.12-307.69 95.648 0 0 68.638 70.478 182.25 57.892 120.71-30.205 125.44-153.54 125.44-153.54z"/>
    <path d="m475.68 687.19s20.653-24.417 45.437-37.736c26.849-4.4395 49.568 13.318 49.568 13.318s-43.372 26.637-95.005 24.417z"
          fill="#d40000"/>
    <path d="m384.03 390.02c-7.302 0-10.939 3.8533-10.253 10.821-0.16958 5.3508 3.8143 9.1565 9.995 8.6015 8.0322 0 9.0358-4.1702 9.0358-10.821 0.56062-4.7088-2.8474-8.6015-8.7776-8.6015z"
          fill="#f9f9f9"/>
    <path d="m654.31 386.08c-7.302 0-10.939 3.8533-10.253 10.821-0.16958 5.3508 3.8143 9.1565 9.995 8.6015 8.0322 0 9.0358-4.1702 9.0358-10.821 0.56063-4.7088-2.8474-8.6015-8.7776-8.6015z"
          fill="#f9f9f9"/>
    <path d="m-177.56 222.1c6.4738-132.31 1370.2-131.68 1365.9 35.764-3.5033 110.56-1369.2 126.22-1365.9-35.764z"
          fill="#fc0"/>
    <path d="m93.507 206.66s96.066-338.99 429.66-335.55c316.24 2.8463 387.07 350.31 387.07 350.31-98.814 66.112-708.58 69.814-816.73-14.757z"
          fill="#cea500"/>
</svg>
