<svg width="1e3mm" height="881.1mm" version="1.1" viewBox="0 0 1e3 881.1" xmlns="http://www.w3.org/2000/svg">
    <path d="m253.4 775.96c-11.337 4.6211-137.53-47.683-161.51-177.15-57.464-66.269-57.111-181.96 9.9076-265.73 333.32-100.16 496.56-127.95 830.23 25.031 38.834 87.837 9.0908 134.57-14.867 242.41-27.064 109.64-53.609 176.88-148.93 187.65-282.11 12.528-289.35 1.1302-514.83-12.21z"
          fill="#520" stroke-width="1.0613"/>
    <path transform="scale(.26458)"
          d="m789.78 2869.6c255.18 360.15 706.7 482.74 1166.4 474.32 381.33 2.9727 737.86-97.566 977.34-368.93-9.7811 1.4926-19.754 2.8262-29.945 3.9785-1066.2 47.35-1093.6 4.2723-1945.8-46.148-14.916 6.0801-82.443-13.925-167.96-63.217z"
          fill="#fbecd8" stroke-width="1.0534"/>
    <path d="m-170.41 266.87c6.1191-132.33 1369.9-135.35 1365.9 32.102-3.2071 110.57-1368.9 129.89-1365.9-32.102z"
          fill="#fc0"/>
    <path d="m100.61 250.7s95.157-339.24 428.76-336.7c316.25 1.9986 388.01 349.27 388.01 349.27-98.636 66.377-708.39 71.714-816.77-12.567z"
          fill="#cea500"/>
</svg>
