<svg width="1e3mm" height="881.1mm" version="1.1" viewBox="0 0 1e3 881.1" xmlns="http://www.w3.org/2000/svg">
    <path d="m208.96 133.52c-58.337 56.202-100.41 141.41-112.88 269.71 0 0-91.513-26.746-96.08 64.576 4.5661 109.59 82.705 69.14 82.705 69.14 18.264 223.74 142.5 335.01 503.23 344.14 94.9 0 169.15-35.414 225.32-88.674l-89.83-38.192s-55.377-47.878-164.96-2.2159c0 0 26.614-135.93 19.764-220.41 77.625 22.831 107.49-22.696 114.34-72.924 0 0-37.11-94.254-117.02 3.9171-31.964-79.908-12.456-156.16-51.268-194.97-9.1322-70.775-129.01-103.71-195.23-74.032 0 0-50.093-47.791-118.09-60.078z"
          fill="#fbecd8" stroke-width=".26458"/>
    <path d="m217.46 278.95c-25.466 3.2287-48.093 32.191-46.82 70.937 0 32.287 25.829 49.902 48.749 49.902 30.559 0 46.164-24.627 44.891-56.914 0-25.83-20.08-63.925-46.82-63.925z"
          fill="#fff" stroke-width=".26458"/>
    <path d="m203.3 332.57c-11.858 0-24.664 18.634-23.479 32.364-1.1858 12.587 18.328 24.748 30.187 25.892 14.23 0 23.479-15.397 23.479-29.128 0-19.452-13.585-29.128-30.187-29.128z"
          stroke-width="1.4431"/>
    <path d="m399.09 524.48c-7.2934 0.0444-16.006 3.6396-22.962 17.017-43.735 113.03-88.661 115.7-198.63 107.3 117.88 19.086 93.331 32.652 141.35 59.155-4.2605-2.4206-13.02-7.9025-18.07-14.636 0 0 22.831-7.9908 27.397-27.397 12.557 6.8492 27.397 4.5661 27.397 4.5661-12.557 21.689-34.247 38.811-34.247 38.811 81.178-62.989 26.95-124.42 92.463-180.36 0 0-6.4433-4.5106-14.709-4.4603z"
          stroke-width=".26458"/>
    <path d="m300.8 693.34s22.831-7.9908 27.397-27.397c12.557 6.8493 27.397 4.5662 27.397 4.5662-12.557 21.689-34.246 38.813-34.246 38.813s-13.699-6.8493-20.548-15.982z"
          fill="#d40000"/>
    <path d="m573.55 462.6c-31.963-79.908-12.456-156.16-51.269-194.97-9.1324-70.776-129.02-103.71-195.23-74.033 0 0-93.663-89.365-198.68-55.119 15.982-89.041 206.32-120.34 206.32-120.34 125.57-27.397 179.44-19.115 266.19-5.4168 102.74-6.8493 134.11 56.591 134.11 56.591 40.883 13.259 94.959 23.741 119.43 52.866 26.097 31.054 22.078 81.093 50.354 104.66 0 0 45.235 13.193 65.624 50.562 16.128 29.558 8.2504 79.076 9.2587 115.38 0 0 23.042 48.014 20.078 104.08-1.9618 37.102-24.386 75.915-39.842 113.19-18.265 66.21 1.2953 60.657-19.253 101.75-20.548 59.36-95.484 95.041-95.484 95.041l-123.73-52.606s-55.376-47.878-164.96-2.2159c0 0 26.614-135.93 19.764-220.41 77.625 22.831 107.5-22.697 114.34-72.925 0 0-37.111-94.256-117.02 3.9172z"
          fill="#520"/>
</svg>
