<svg width="1e3mm" height="881.1mm" version="1.1" viewBox="0 0 1e3 881.1" xmlns="http://www.w3.org/2000/svg">
    <g transform="translate(114.06 878.17)">
        <path transform="matrix(.26458 0 0 .26458 -114.06 -878.17)"
              d="m789.79 504.64c-220.49 212.42-379.5 534.46-426.65 1019.4 0 0 -345.88 -101.09 -363.14 244.07 17.258 414.19 312.59 261.32 312.59 261.32 69.032 845.64 538.59 1266.2 1902 1300.7 358.68 0 639.3 -133.85 851.6 -335.15l-339.52-144.35s-209.3-180.96-623.49-8.375c0 0 100.59-513.76 74.699-833.04 293.39 86.29 406.28-85.783 432.17-275.62 0 0-140.26-356.24-442.28 14.805-120.81-302.02-47.078-590.2-193.77-736.89-34.516-267.5-487.62-391.99-737.87-279.81 0 0-189.33-180.63-446.32-227.07z"
              fill="#fbecd8"/>
        <path transform="matrix(.26458 0 0 .26458 -114.06 -878.17)"
              d="m821.92 1054.3c-96.252 12.203-181.77 121.67-176.96 268.11 0 122.03 97.621 188.61 184.25 188.61 115.5 0 174.48-93.078 169.67-215.11 0-97.626-75.892-241.61-176.96-241.61z"
              fill="#fff"/>
        <path d="m81.717-528.44c-8.072 0-16.789 13.145-15.982 22.831-0.80716 8.8792 12.476 17.458 20.548 18.265 9.6864 0 15.982-10.862 15.982-20.548 0-13.722-9.2471-20.548-20.548-20.548z"/>
        <path transform="matrix(.26458 0 0 .26458 -114.06 -878.17)"
              d="m1508.4 1982.3c-27.566 0.1679-60.494 13.756-86.785 64.316-165.3 427.21-335.1 437.31-750.72 405.56 445.55 72.136 352.75 123.41 534.26 223.58-16.103-9.1489-49.209-29.868-68.297-55.318 0 0 86.291-30.202 103.55-103.55 47.46 25.887 103.55 17.258 103.55 17.258-47.46 81.976-129.44 146.69-129.44 146.69 306.82-238.07 101.86-470.27 349.47-681.69 0 0-24.353-17.048-55.594-16.858z"/>
        <path d="m186.74-184.83s22.831-7.9908 27.397-27.397c12.557 6.8493 27.397 4.5662 27.397 4.5662-12.557 21.689-34.246 38.813-34.246 38.813s-13.699-6.8493-20.548-15.982z"
              fill="#d40000"/>
        <path d="m459.49-415.57c-31.963-79.908-12.456-156.16-51.269-194.97-9.1324-70.776-129.02-103.71-195.23-74.033 0 0-93.663-89.365-198.68-55.119 15.982-89.041 206.32-120.34 206.32-120.34 125.57-27.397 179.44-19.115 266.19-5.4168 102.74-6.8493 134.11 56.591 134.11 56.591 40.883 13.259 94.959 23.741 119.43 52.866 26.097 31.054 22.078 81.093 50.354 104.66 0 0 45.235 13.193 65.624 50.562 16.128 29.558 8.2504 79.076 9.2587 115.38 0 0 23.042 48.014 20.078 104.08-1.9618 37.102-24.386 75.915-39.842 113.19-18.265 66.21 1.2953 60.657-19.253 101.75-20.548 59.36-95.484 95.041-95.484 95.041l-123.73-52.606s-55.376-47.878-164.96-2.2159c0 0 26.614-135.93 19.764-220.41 77.625 22.831 107.5-22.697 114.34-72.925 0 0-37.111-94.256-117.02 3.9172z"
              fill="#552200"/>
    </g>
</svg>
