<svg width="1e3mm" height="818.08mm" version="1.1" viewBox="0 0 1e3 818.08" xmlns="http://www.w3.org/2000/svg">
    <g transform="translate(-4.7715 464.25)">
        <path d="m63.102-235.08c26.334-146.55 160.88-253.41 191.33-223.32-32.095-10.676-131.26 81.629-155.12 229.15z"
              fill="#8d4f26"/>
        <path d="m79.972-233.24c26.334-146.55 144.01-255.25 174.46-225.16-32.095-10.676-121.79 82.494-145.66 230.01z"
              fill="#d38d5f"/>
        <path d="m895.72-98.825s84.791 11.708 109.05 105.85c-23.292-4.8526-32.998 19.41-32.998 19.41-27.175-58.231-76.056-125.26-76.056-125.26z"
              fill="#2b1100"/>
        <path d="m103.01-76.877-59.018 26.764s25.392 22.647 26.078 70.685c35.686-63.136 32.941-97.449 32.941-97.449z"
              fill="#28170b"/>
        <path d="m183.81-264.75c-41.342-34.342-120.48 4.8473-127.14 33.537-5.8231 32.167 1.9193 57.773 1.9193 57.773s-67.018 53.041-51.49 93.802c15.528 71.818 124.55-16.608 124.55-16.608s105.17 188.88 201.25 217.7c0 0 18.606 81.083-2.745 226.66l64.509 1.137s32.177-138.51 53.528-227.8c77.642-29.116 229.78-42.467 326.83 23.528 21.923 64.256 10.639 206.52 10.639 206.52l87.63 2.323s32.488-87.435 39.292-247.7c21.923-40.821 61.74-147.69-17.843-211.74-123.48-86.331-349.38 0.58713-564.49-53.317-51.438-14.558-103.75-84.468-146.45-105.82z"
              fill="#784421"/>
        <path d="m114.62-253.09c31.057-146.55 180.7-235.82 216.61-205.74-37.85-10.676-163.78 75.373-204.96 220.15-9.0714-3.0238-12.406-6.0928-11.65-14.408z"
              fill="#8d4f26"/>
        <path d="m123.47-220.08c-21.351 1.941-41.732 5.8232-40.762 30.086-5.0576 31.863-64.927 51.148-75.603 110.35 17.069 67.811 91.717 1.8427 138.85-42.383 56.48 109.94 111.37 179.81 189.05 210.35-2.527-23.249-27.129-128.26 67.456-127.49 71.316 0.58646 75.556 36.159 59.559 90.675 120.16 0.59501 164.5 12.959 299.21-44.706-7.4196-101.83 68.3-128.47 133.51-112.43-67.351-49.295-189.49-53.489-395.46-42.29-114.4 6.2196-208.79-34.848-261.13-72.473-46.241-18.366-1.4885-105.16-23.306-89.261-19.999 14.573-41.154 104.12-91.381 89.565z"
              fill="#9b592c"/>
        <path d="m126.27-238.68c31.057-146.55 169.05-250.23 204.96-220.15-37.85-10.676-140.65 58.86-168.8 206.38-10.583 15.875-27.851 15.279-36.166 13.767z"
              fill="#d38d5f"/>
        <path d="m107.76-198.01c-9.4454 6.99-14.794 14.57-11.682 20.698 2.1085 5.505 14.571 3.4664 22.928-2.2431 8.0912-3.0785 16.525-13.773 12.874-17.721-1.9285-6.2319-13.671-7.101-24.119-0.7344z"/>
        <path d="m17.424-93.5c4.5118-18.5 7.4086-25.768 21.761-27.298-3.0781 14.314-5.6381 24.789-21.761 27.298z"
              fill="#28170b"/>
        <path d="m24.547-55.09c27.175-19.41 38.821-34.939 38.821-34.939s-21.351 49.011-38.821 34.939z" fill="#28170b"/>
        <path d="m442.37 141.83c54.349 7.7642 90.025 45.85 332.65 3.147-9.4494-31.75-10.68-81.881-10.68-81.881-159.17 46.585-312.58-22.671-321.97 78.734z"
              fill="#d38d5f"/>
    </g>
</svg>
