<svg width="995.28mm" height="281.05mm" version="1.1" viewBox="0 0 995.28 281.05" xmlns="http://www.w3.org/2000/svg">
    <g transform="translate(-30.412 1090)">
        <path d="m591.12-862.39c7.1826-2.7925 16.554 6.7985 19.576 34.81 2.267 17.66-7.52 17.788-25.742 14.872 21.419-27.841-5.9873-30.606 6.1651-49.683z"
              fill="#d45500"/>
        <path d="m513.1-860.01c-7.1826-2.7925-16.554 6.7985-19.576 34.81-2.267 17.66 7.52 17.788 25.742 14.872-21.419-27.841 5.9873-30.606-6.1651-49.683z"
              fill="#d45500"/>
        <path d="m466.85-964.38s-81.871-62.866-349.89-114.74c-54.035-10.807-173.79-32.596 19.184 50.596-131.44-33.624-56.286 4.7249 9.6953 27.202-56.287-8.1661-106.94-2.6021 9.2133 29.493 0 0-79.743 31.07 7.2965 26.716 112.39-17.291 294.85 47.954 294.85 47.954 21.614 58.358 62.898 70.802 101.8 68.641 38.905 0 71.915-35.586 74.076-61.523 0 0 167.16-77.734 293.6-58.543 73.438 6.1452 5.611-22.07 5.611-22.07 77.946-21.397 60.457-42.577-2.205-28.822 87.116-32.095 108.3-60.877-5.8063-32.794 130.17-56.472 128.68-65.541 31.765-46.894-164.27 20.533-324.97 113.26-324.97 113.26-35.126-25.118-122.24-26.385-164.22 1.5283z"
              fill="#333"/>
        <path d="m568.85-887.2-18.611 75.678-21.94-76.129s26.013 7.3466 40.551 0.45052z" fill="#c99f00"/>
    </g>
</svg>
