<svg width="1e3mm" height="388.8mm" version="1.1" viewBox="0 0 1e3 388.8" xmlns="http://www.w3.org/2000/svg">
    <g transform="translate(-26.833 1091.8)">
        <path d="m26.852-917.45c0 28.915 166.26 57.83 269.87 45.782 0 0 72.288 91.565 146.99 103.61 55.421 4.8192 520.47 19.277 520.47 19.277-50.601-125.3-149.39-122.89-149.39-122.89-42.11-15.438-82.823-14.115-79.36-28.288 5.5031-22.526 81.77-77.734 81.77-77.734 53.011-98.793-57.916-10.139-57.916-10.139 22.459-120.11-19.513-105.58-46.724-14.249-25.389-121.04-69.989-119.45-51.028 3.825-62.598-103.69-99.586-55.026-40.241 17.576-12.697 0.35955-59.075-34.63-45.588 15.979 7.4111 27.81-50.773 25.636-69.419 24.099-166.28-13.702-283.05 1.4625-283.05 1.4625-20.774-12.984-63.238-29.423-83.074-14.237-22.99-10.046-44.492-2.5282-45.048 9.6954-12.048-4.8192-69.449 16.714-68.26 26.228z"
              fill="#333"/>
        <path d="m948.22-781.31 78.613 78.312-104.52-47.59s24.698-13.554 25.903-30.722z" fill="#c99f00"/>
        <path d="m513.59-794.56c17.177-2.7625 46.05 32.918 53.278 60.628 5.4216 17.47-99.396 13.855-113.25 7.2288 9.6384-8.4336 43.915-9.1394 77.649-24.199-2.4096-7.8312-38.571-31.859-17.676-43.658z"
              fill="#d45500"/>
    </g>
</svg>
