<svg width="1e3mm" height="1269.1mm" version="1.1" viewBox="0 0 1e3 1269.1" xmlns="http://www.w3.org/2000/svg">
    <path d="m446.5 866.24c35.163 204.03 26.302 402.43 26.302 402.43l52.287-0.3607s-2.0442-128.43 58.133-392.15z"
          fill="#502d16"/>
    <path d="m277.61 505c-51.869 261.99-37.637 517.98 723.41 473.05l1.784-365.83c-195.88 4.6472-394.12 4.5356-523-21.224-42.825-40.451-67.364-75.083-78.386-101.72z"
          fill="#a7752e"/>
    <path d="m393.6 387.89c56.555-8.0119 190.91-14.295 237.78-91.66-68.57 27.109-95.524 32.819-88.584 27.544 102.11-77.605 158.28-223.59 141.51-290.67-30.298 108.44-68.57 151.49-68.57 151.49s-9.5678-87.705-87.705-183.38c44.001 108.32 45.174 129.14 58.542 221.68-24.9 65.558-153.08 132.71-234.61 165z"
          fill="#af7751"/>
    <path d="m404.8 403.13s85.696-75.548 94.717-73.293c1.1276 63.145-40.593 93.589-77.803 102.61z" fill="#2b1100"/>
    <path d="m351.96 386.29c18.25-15.786 34.353-80.058 37.574-153.35 15.03 74.42-2.1471 133.05-2.1471 133.05s71.927-58.634 91.251-109.38c2.1471 46.231-79.442 129.67-79.442 129.67z"
          fill="#28170b"/>
    <path d="m415.09 398.76s67.308-59.611 73.373-57.216c-5.5222 53.692-37.657 77.333-64.507 83.016z" fill="#b6a092"/>
    <path d="m293.64 386.68c-56.555-8.0119-190.91-14.295-237.78-91.66 68.57 27.109 95.524 32.819 88.584 27.544-102.11-77.605-158.28-223.59-141.51-290.67 30.298 108.44 68.57 151.49 68.57 151.49s9.5678-87.705 87.705-183.38c-44.001 108.32-45.174 129.14-58.542 221.68 24.9 65.558 153.08 132.71 234.61 165z"
          fill="#af7751"/>
    <path d="m268.37 405.97s-85.696-75.548-94.717-73.293c-1.1276 63.145 40.593 93.589 77.803 102.61z" fill="#2b1100"/>
    <path d="m262.16 406.31s-70.547-60.071-77.529-58.235c1.866 50.478 35.935 74.66 65.532 81.732z" fill="#b6a092"/>
    <path d="m325.71 385.09c-16.872-15.786-31.76-80.058-34.737-153.35-13.895 74.42 1.985 133.05 1.985 133.05s-66.497-58.634-84.361-109.38c-1.985 46.231 73.444 129.67 73.444 129.67z"
          fill="#28170b"/>
    <path d="m248.07 445.98c1.0424 16.914 43.189 92.366 61.781 112.66l68.568-1.5309c18.848-18.041 48.937-102.11 48.937-122.41 0-15.786-26.059-69.91-36.483-64.272-29.186 15.786-85.473 16.914-111.53 3.3827-9.3812-4.5103-31.271 52.996-31.271 72.165z"
          fill="#ce9a4f"/>
    <path d="m289.69 455c0.36002-16.578-37.551-21.365-36.415-9.5844-1.2852 18.605 35.13 20.86 36.415 9.5844z"
          fill="#241f1c"/>
    <path d="m385.89 448.35c-0.37117-16.578 38.712-21.365 37.541-9.5844 1.325 18.605-36.216 20.86-37.541 9.5844z"
          fill="#241f1c"/>
    <path d="m280.9 410.62c30.956 36.677 44.223 97.273 44.223 97.273l35.379-1.5946s0.73705-55.015 39.064-98.07c-41.275 10.365-63.387 20.73-118.67 2.392z"
          fill="#a2785d"/>
    <path d="m312.04 514.37c20.806-13.537 33.38-13.978 60.162-3.6848 5.4564 3.5206 8.2531 25.345 6.2178 46.425-2.5259 7.5515-69.009 7.7849-68.568 1.5309-3.0751-19.54-2.7305-39.92 2.1876-44.271z"
          fill="#f5e3da"/>
    <path d="m323.88 523.09c13.224-9.0362 21.193-9.3781 38.132-2.6767 3.4466 2.3067 5.1524 16.73 3.7989 30.68-1.6234 5.0045-43.75 5.4237-43.451 1.2857-1.8892-12.912-1.609-26.392 1.5204-29.289z"
          fill="#331a0e"/>
    <path d="m269.99 733.36c63.355 87.763 203.33 149.53 336.9 168.43 143.27 12.501 278.95-6.0797 297.65-18.937 41.718-26.348 37.56-92.985 37.56-92.985 21.957-60.747 60.757-60.734 60.757-60.734l-1.8364 248.92s-340.93 33.613-554.64-43.236c-147.23-51.23-176.39-201.45-176.39-201.45z"
          fill="#8b4e26"/>
    <path d="m543.98 889.74c54.259 175.94 64.336 377.21 64.336 377.21l52.323 1.1275s-17.545-123.86 13.371-362.02c-67.226 2.2251-130.03-16.314-130.03-16.314z"
          fill="#502d16" stroke-width=".92305"/>
</svg>
