<svg width="1e3mm" height="1269.1mm" version="1.1" viewBox="0 0 1e3 1269.1" xmlns="http://www.w3.org/2000/svg">
    <g transform="translate(227.54 731.72)">
        <path d="m238.15 106.66 22.552 428.48 54.124 2.2552 13.531-426.23z" fill="#502d16"/>
        <path d="m50.071-226.72c-51.869 261.99-38.661 484.49 722.39 439.56l-0.1193-319.17c-315.68-11.917-571.4-70.718-598.46-136.12z"
              fill="#a7752e"/>
        <path d="m166.06-343.83c56.555-8.0119 190.91-14.295 237.78-91.66-68.57 27.109-95.524 32.819-88.584 27.544 102.11-77.605 158.28-223.59 141.51-290.67-30.298 108.44-68.57 151.49-68.57 151.49s-9.5678-87.705-87.705-183.38c44.001 108.32 45.174 129.14 58.542 221.68-24.9 65.558-153.08 132.71-234.61 165z"
              fill="#af7751"/>
        <path d="m177.26-328.59s85.696-75.548 94.717-73.293c1.1276 63.145-40.593 93.589-77.803 102.61z" fill="#2b1100"/>
        <path d="m124.42-345.43c18.25-15.786 34.353-80.058 37.574-153.35 15.03 74.42-2.1471 133.05-2.1471 133.05s71.927-58.634 91.251-109.38c2.1471 46.231-79.442 129.67-79.442 129.67z"
              fill="#28170b"/>
        <path d="m187.55-332.96s67.308-59.611 73.373-57.216c-5.5222 53.692-37.657 77.333-64.507 83.016z"
              fill="#b6a092"/>
        <path d="m66.097-345.04c-56.555-8.0119-190.91-14.295-237.78-91.66 68.57 27.109 95.524 32.819 88.584 27.544-102.11-77.605-158.28-223.59-141.51-290.67 30.298 108.44 68.57 151.49 68.57 151.49s9.5678-87.705 87.705-183.38c-44.001 108.32-45.174 129.14-58.542 221.68 24.9 65.558 153.08 132.71 234.61 165z"
              fill="#af7751"/>
        <path d="m40.834-325.75s-85.696-75.548-94.717-73.293c-1.1276 63.145 40.593 93.589 77.803 102.61z"
              fill="#2b1100"/>
        <path d="m34.617-325.41s-70.547-60.071-77.529-58.235c1.866 50.478 35.935 74.66 65.532 81.732z" fill="#b6a092"/>
        <path d="m98.17-346.63c-16.872-15.786-31.76-80.058-34.737-153.35-13.895 74.42 1.985 133.05 1.985 133.05s-66.497-58.634-84.361-109.38c-1.985 46.231 73.444 129.67 73.444 129.67z"
              fill="#28170b"/>
        <path d="m20.527-285.74c1.0424 16.914 43.189 92.366 61.781 112.66l68.568-1.5309c18.848-18.041 48.937-102.11 48.937-122.41 0-15.786-26.059-69.91-36.483-64.272-29.186 15.786-85.473 16.914-111.53 3.3827-9.3812-4.5103-31.271 52.996-31.271 72.165z"
              fill="#ce9a4f"/>
        <path d="m62.146-276.72c0.36002-16.578-37.551-21.365-36.415-9.5844-1.2852 18.605 35.13 20.86 36.415 9.5844z"
              fill="#241f1c"/>
        <path d="m158.35-283.37c-0.37117-16.578 38.712-21.365 37.541-9.5844 1.325 18.605-36.216 20.86-37.541 9.5844z"
              fill="#241f1c"/>
        <path d="m53.364-321.1c30.956 36.677 44.223 97.273 44.223 97.273l35.379-1.5946s0.73705-55.015 39.064-98.07c-41.275 10.365-63.387 20.73-118.67 2.392z"
              fill="#a2785d"/>
        <path d="m84.495-217.35c20.806-13.537 33.38-13.978 60.162-3.6848 5.4564 3.5206 8.2531 25.345 6.2178 46.425-2.5259 7.5515-69.009 7.7849-68.568 1.5309-3.0751-19.54-2.7305-39.92 2.1876-44.271z"
              fill="#f5e3da"/>
        <path d="m96.345-208.63c13.224-9.0362 21.193-9.3781 38.132-2.6767 3.4466 2.3067 5.1524 16.73 3.7989 30.68-1.6234 5.0045-43.75 5.4237-43.451 1.2857-1.8892-12.912-1.609-26.392 1.5204-29.289z"
              fill="#331a0e"/>
    </g>
</svg>
