<svg width="1e3mm" height="1930.4mm" version="1.1" viewBox="0 0 1e3 1930.4" xmlns="http://www.w3.org/2000/svg">
    <g transform="translate(-31.531 1644.6)">
        <path d="m31.531 278.88c1.8528-528.98 31.609-1099.5 103.96-1350.5 23.102-77.814 59.175-120.57 59.175-120.57-12.188-166.4-15.057-313.3 57.407-382.49 81.798-64.86 229.77-73.869 324.64-65.886 63.563 30.681 101.89 406.96 101.89 406.96s43.92 18.325 108.82 51.458c130.95 119.41 137.06 1056.4 175.52 1468z"
              fill="#be7f40"/>
        <path d="m475.45-1132.2c-168.09-47.602-214.81-220.12-220.11-262.62-13.426-73.542 68.467-87.792 94.543-158.42 18.119-62.23 89.849-63.695 143.74-45.2 47.605 16.339 83.099-42.2 83.099-42.2 160.34-48.883 33.073 385.52 210.71 458.42 0 0-246.24 63.915-311.98 50.019z"
              fill="#623c22"/>
        <path d="m698.91-1327.6s-50.564 56.567-87.927 47.807c-11.622-144.73-54.086-228.72-55.218-272.07-1.2272-26.989 9.4662-78.188 67.405-92.67 0 0 40.533-0.055 92.463 5.7492 28.51 158.92 11.334 193.81-16.723 311.19z"
              fill="#c8b7b7"/>
        <path d="m729.43-1510.9c11.59-26.866 15.475-98.474-13.799-127.94 0 0-65.697 37.848-63.051 59.101 3.3084 26.567 50.223 60.627 76.85 68.842z"
              fill="#483737"/>
        <path d="m728.97-1473.8s-25.819 77.421-99.011 89.386c0 0 65.02 7.2138 76.574 21.24 0 0 18.721-61.721 22.437-110.63z"
              fill="#483737"/>
        <path d="m472.59-1559.5c-36.676-49.962-104.58-38.072-112.93 29.975 19.886 53.621 102.19 40.118 112.93-29.975z"
              fill="#241c1c"/>
        <path d="m308.25-1466.3c27.674-41.514-18.388-113.39-56.178-108.45-43.371 11.526-57.08 19.123-55.148 103.17 0.57142 31.937 58.415 76.761 111.33 5.2774z"
              fill="#c39f87"/>
        <path d="m295.25-1461.7c-30.359-23.388-52.333-68.232-70.926-5.898 3.577 16.608 42.597 32.834 70.926 5.898z"
              fill="#483737"/>
        <path d="m321.59-395.65s-177.91-133.15-193.05-327.17c0-91.303 83.277-349.99 121.13-380.43 79.492-38.043 261.19 15.217 272.54 53.26 15.141 60.869-109.77 277.71-117.35 365.21 3.7853 110.32 68.136 216.84 68.136 216.84z"
              fill="#784421"/>
        <path d="m473.01-467.93c45.634 65.978 37.45 127.58 52.591 207.47-15.141 45.651-113.16 81.657-132.08 36.005-7.5706-76.086-71.921-171.19-71.921-171.19s98.418 83.694 0 0c19.781-67.056 151.41-72.281 151.41-72.281z"
              fill="#483737"/>
        <path d="m764.62-1125.3c0 61.871 53.451 105.12 115.91 565.76l136.57-2.8813c-22.161-130.08 6.2792-416.88-175.24-576.66-41.847-28.532-65.84-15.802-77.249 13.788z"
              fill="#784421"/>
        <path d="m1017.1-562.47c-60.505-41.847-175.56 1.3055-175.56 1.3055 76.639 45.651 48.068 137.57 80.338 168.01 68.572 49.456 82.02 16.523 102.19-10.107 20.168-68.477-6.9698-159.21-6.9698-159.21z"
              fill="#483737"/>
        <path d="m191.36-361.41c-98.911 3.8043-159.83 640.3-159.83 640.3l931.42 6.9689-41.065-679c-53.26 15.217-57.168 404.56-258.8 404.56-216.84-11.413-384.44-379.98-471.73-372.82z"
              fill="#784421"/>
    </g>
</svg>
