<svg width="1e3mm" height="1616.8mm" version="1.1" viewBox="0 0 1e3 1616.8" xmlns="http://www.w3.org/2000/svg">
    <g transform="translate(-16.538 576.09)">
        <g transform="matrix(11.999 0 0 9.8276 -342.97 -2059.6)">
            <g transform="matrix(1.0165 0 0 1.0165 -.49413 -5.2025)">
                <path d="m29.962 215.27c3.9062-8.6152 12.422-37.459 12.422-37.459l-4.8036 38.241-3.168 423.76z"
                      fill="#999"/>
                <path d="m42.384 177.81s0.86568-4.8102 3.8899-7.4256c2.9636 4.7082 5.9775 9.1344 7.3063 23.024l-7.2286 434.22-11.94 12.184 3.1378-423.8z"
                      fill="#ccc"/>
                <path d="m53.581 193.41 5.5762-8.4012c2.6462-7.5383 4.9143-26.307 4.9143-26.307l2.1421 30.461-2.8982 76.768 3.3163 374.25-20.279-12.555z"
                      fill="#808080"/>
                <path d="m64.071 158.7s1.5121-2.7692 4.0322-5.0768c6.9304 1.5384 8.4425 31.076 8.4425 31.076l12.515 447.95-22.429 7.5383-3.3163-374.25 2.8982-76.768z"
                      fill="#e6e6e6"/>
                <path d="m76.546 184.7 9.0726-14.307s11.719 5.0768 11.341 15.538l6.3405 453.33-14.239-6.6153z"
                      fill="#999"/>
                <path d="m85.618 170.39s4.1582-5.5384 9.1986-5.2307c5.6704 5.6922 7.0565 9.0768 10.459 13.692 1.5121 8.3075 3.9062 9.0768 3.9062 9.0768l1.0081 24.923 6.0885 425.49-12.979 0.92306-6.3405-453.33s-8.6105-8.6665-11.341-15.538z"
                      fill="#ccc"/>
            </g>
        </g>
    </g>
</svg>
