<svg width="1e3mm" height="1053.6mm" version="1.1" viewBox="0 0 1e3 1053.6" xmlns="http://www.w3.org/2000/svg">
    <path d="m264.31 361.2c24.493-65.275 39.131-35.512 159.02-93.693 238.53-75.688 307.34 98.624 307.34 98.624l35.864 2511.7-596.33-2.2936s67.323-2415 94.11-2514.3z"
          fill="#b3b3b3"/>
    <path d="m146.84 451.01c36.349-36.349 59.868-55.592 109.05-55.592 102.63 0 168.91 87.664 168.91 87.664l50.949 2370.6-359.21 10.828s-86.783-2290.7 30.301-2413.5z"
          fill="#c2c2c2"/>
    <path d="m352.67 469.66c-55.046 73.255-14.595 2430.4-14.595 2430.4l626.84 10.481-76.334-2462c-9.1743-66.791-75.105-159.24-198.76-118.94-114.68 81.873-190.37-15.082-337.16 140.05z"
          fill="#ccc"/>
    <path d="m973.79 567.96s-19.064-109.05-69.904-111.18c-33.892 0-135.57 62.007-139.81 162.5l-97.805 2315 336.81 4.2763s-10.228-2276.5-29.292-2370.6z"
          fill="#d7d7d7" stroke-width=".99535"/>
    <path d="m-37.923 2786.4s74.972-2076.7 87.914-2127c12.942-52.097 93.831-145.13 255.6-143.27 265.32 24.188 148.83 111.64 284.73 160.01 38.827 22.327 51.214 2106.4 51.214 2106.4z"
          fill="#d9d9d9" stroke-width="1.2301"/>
    <path d="m1064.6 2790.1s-10.324-2111.9-106.54-2122.6c-132.57-32.072-143.26-119.74-277.96-121.87-74.835 4.2763-59.868 62.007-89.803 130.43-36.349 55.592-171.42 2103.3-171.42 2103.3z"
          fill="#e3e3e3"/>
</svg>
