<svg width="1e3mm" height="1633.5mm" version="1.1" viewBox="0 0 1e3 1633.5" xmlns="http://www.w3.org/2000/svg">
    <g transform="matrix(-11.999 0 0 9.8276 1370.9 -1465.2)">
        <g transform="matrix(.92789 0 0 .92789 2.0669 22.737)">
            <path d="m33.015 667.8-0.13075-469.45 6.9926 5.1027 1.3229-22.679 6.9926 18.332 2.4568-6.6146 8.8879 494.75z"
                  fill="#e1e1e1"/>
            <path d="m41.199 180.77 1.1339-14.363 8.8824-11.15 7.5595 33.64 2.0789-11.717 5.2917 34.774 9.3287 468.48-15.938 6.8029-8.8879-494.75-2.4568 6.6146z"
                  fill="#c0c0c0"/>
            <path d="m56.318 179.07 4.3467-12.284 7.3705-6.2366 4.7247 29.482 4.7247-32.317 3.9688 20.6 4.7247 37.987 17.835 470.01-28.538-5.8798-9.3287-468.48-5.2917-34.774-2.0789 11.717z"
                  fill="#a9a9a9"/>
            <path d="m68.036 160.55 3.9688-5.2917 8.8824-19.088s7.7485 29.671 7.9375 28.726c0.18899-0.94494 3.9688-17.009 3.9688-17.009l7.3705 40.065 5.6696-9.6384 17.002 500.67-18.822 7.3263-17.835-470.01-4.7247-37.987-3.9688-20.6-4.7247 32.317z"
                  fill="#969696"/>
        </g>
    </g>
</svg>
